<svg width="135" height="43" viewBox="0 0 135 43" fill="none" xmlns="http://www.w3.org/2000/svg">
<path d="M60.7708 10.3147C61.921 11.838 62.4949 13.8247 62.4927 16.275C62.4905 18.7253 61.9166 20.7175 60.7708 22.2517C60.2412 22.9937 59.5484 23.6067 58.7448 24.0444C57.9411 24.4821 57.0477 24.733 56.1319 24.7781V31.7471H52.3853V24.7781C51.4653 24.7473 50.5649 24.5066 49.7541 24.0747C48.9432 23.6427 48.2438 23.0312 47.7102 22.2876C46.5644 20.7404 45.9905 18.7362 45.9883 16.275C45.9861 13.8139 46.5601 11.8162 47.7102 10.2821C48.2457 9.54166 48.946 8.93339 49.7567 8.50434C50.5674 8.0753 51.4668 7.83698 52.3853 7.80783V0H56.1484V7.80783C57.0597 7.85316 57.9488 8.10219 58.7493 8.53631C59.5497 8.97042 60.2408 9.57838 60.7708 10.3147ZM49.5572 16.275C49.5189 17.6245 49.8282 18.9614 50.456 20.1594C51.053 21.2474 51.8431 21.7914 52.8264 21.7914H52.8627V10.8043H52.8264C51.8409 10.8043 51.0508 11.3483 50.456 12.4364C49.8334 13.6199 49.5241 14.9407 49.5572 16.275ZM55.6381 21.7816C56.6455 21.7816 57.4489 21.2376 58.0481 20.1496C58.6732 18.9507 58.9813 17.6143 58.9436 16.2652C58.9783 14.9269 58.6702 13.6017 58.0481 12.4135C57.4489 11.3255 56.6455 10.7815 55.6381 10.7815H55.6052V21.7816H55.6381Z" fill="black"/>
<path d="M71.0885 24.8073C68.7663 24.8073 66.927 24.0457 65.5705 22.5224C64.2141 20.9991 63.5337 18.9199 63.5293 16.2846C63.5293 13.6733 64.2097 11.606 65.5705 10.0828C66.9314 8.55949 68.7707 7.79785 71.0885 7.79785C73.4282 7.79785 75.2796 8.56493 76.6426 10.0991C78.0057 11.6332 78.685 13.7005 78.6806 16.301C78.6806 18.9253 78.0013 21.0046 76.6426 22.5387C75.284 24.0729 73.4326 24.8291 71.0885 24.8073ZM68.2406 20.1722C68.582 20.5961 69.0153 20.9383 69.5083 21.1734C70.0013 21.4086 70.5414 21.5307 71.0885 21.5307C71.6356 21.5307 72.1757 21.4086 72.6687 21.1734C73.1617 20.9383 73.5949 20.5961 73.9363 20.1722C74.5948 19.2648 74.924 17.9591 74.924 16.2553C74.924 14.5514 74.5948 13.2457 73.9363 12.3383C73.5949 11.9144 73.1617 11.5722 72.6687 11.3371C72.1757 11.1019 71.6356 10.9798 71.0885 10.9798C70.5414 10.9798 70.0013 11.1019 69.5083 11.3371C69.0153 11.5722 68.582 11.9144 68.2406 12.3383C67.5822 13.2457 67.2529 14.5514 67.2529 16.2553C67.2529 17.9591 67.5822 19.267 68.2406 20.1788V20.1722Z" fill="black"/>
<path d="M88.8935 7.77184C89.8331 7.74697 90.765 7.94734 91.6099 8.35593C92.4547 8.76452 93.1876 9.36925 93.7463 10.1188C94.9645 11.6747 95.5736 13.7311 95.5736 16.288C95.5736 18.8449 94.9645 20.9122 93.7463 22.4899C93.1843 23.2338 92.4499 23.8327 91.6053 24.236C90.7606 24.6394 89.8305 24.8354 88.8935 24.8074C86.6986 24.8074 85.1402 23.8543 84.2183 21.948V31.7078H80.4947V24.3961H80.4585V8.18965H84.2183V10.5953C85.1336 8.713 86.692 7.77184 88.8935 7.77184ZM85.1698 20.1756C85.4918 20.6201 85.9206 20.978 86.4173 21.2168C86.914 21.4556 87.4629 21.5678 88.0144 21.5433C88.5649 21.5669 89.1126 21.4532 89.6073 21.2125C90.102 20.9719 90.5278 20.612 90.8458 20.1658C91.5043 19.2497 91.8335 17.9549 91.8335 16.2815C91.8335 14.608 91.5043 13.3187 90.8458 12.4135C90.5055 11.9903 90.0731 11.649 89.5809 11.4149C89.0888 11.1808 88.5497 11.06 88.0038 11.0616C87.458 11.0631 86.9196 11.187 86.4288 11.4239C85.9381 11.6609 85.5077 12.0047 85.1698 12.4298C84.4872 13.3459 84.147 14.6298 84.1492 16.2815C84.1514 17.9331 84.4916 19.2257 85.1698 20.1593V20.1756Z" fill="black"/>
<path d="M97.4668 24.3964V8.18994H103.337L106.221 19.2391L109.138 8.18994H114.972V24.3964H111.459V11.3953L107.591 24.3964H104.848L101.019 11.3953V24.3964H97.4668Z" fill="black"/>
<path d="M123.598 24.8074C122.657 24.8322 121.724 24.6329 120.876 24.2263C120.029 23.8196 119.293 23.2175 118.728 22.4703C117.499 20.9165 116.885 18.8493 116.885 16.2684C116.885 13.6876 117.499 11.6311 118.728 10.0992C119.293 9.3526 120.03 8.75106 120.877 8.34498C121.724 7.93891 122.657 7.74013 123.598 7.76531C125.793 7.76531 127.351 8.70647 128.273 10.5888V8.18965H132V24.3961H128.273V21.9545C127.358 23.8565 125.799 24.8074 123.598 24.8074ZM124.441 21.5433C124.999 21.5692 125.555 21.4569 126.059 21.2164C126.562 20.9759 126.997 20.6148 127.325 20.1658C128.003 19.2497 128.342 17.9549 128.342 16.2815C128.342 14.608 128.003 13.3241 127.325 12.4298C126.996 11.9818 126.561 11.6217 126.058 11.3818C125.554 11.142 124.999 11.0298 124.441 11.0556C123.893 11.0292 123.348 11.1387 122.854 11.3741C122.36 11.6095 121.934 11.9634 121.613 12.4037C120.954 13.3089 120.625 14.5983 120.625 16.2717C120.625 17.9451 120.954 19.2399 121.613 20.156C121.929 20.6035 122.354 20.965 122.848 21.2074C123.342 21.4498 123.89 21.5653 124.441 21.5433Z" fill="black"/>
<path d="M49.201 18.1258C49.183 18.1053 49.1665 18.0835 49.1516 18.0605C49.257 18.3282 48.9738 18.2433 48.9047 18.0605C48.6408 18.2672 48.3084 18.3685 47.9729 18.3445C47.8413 18.5338 47.7886 18.3674 47.782 18.4881C47.7754 18.6089 47.5351 18.4163 47.6635 18.6775C47.6404 18.6416 47.7886 18.8439 47.7063 18.7395C47.2552 18.1519 47.1927 19.1475 46.9194 18.8015C47.1565 19.0626 46.7416 18.9353 46.656 18.8505C46.8173 19.0431 46.2181 19.0137 46.3926 19.0528C46.6264 19.2585 46.1457 19.0528 46.3103 19.1834C46.1622 19.0202 44.6016 19.9962 44.5489 19.9668C44.4963 19.9374 44.2197 20.1724 44.0715 20.1006C44.1967 20.2084 43.6962 20.2181 43.7917 20.5478C43.6863 20.3128 43.4921 20.8285 43.5151 20.427C43.4625 20.636 42.6394 20.9101 42.6196 20.8547C42.3562 20.4205 42.0533 21.328 41.9974 21.1517C42.0566 21.2333 40.6804 21.3247 40.7068 21.341C40.8944 21.6087 39.0606 21.922 39.1166 21.8274C38.5931 22.4802 37.2202 21.6609 37.2729 22.1081C37.184 21.3965 36.3708 22.4345 36.6144 21.5956C36.5486 21.922 36.0119 21.1811 36.002 21.2039C35.8802 21.3802 35.5477 20.6164 35.6926 20.4466C35.6136 20.5087 35.3633 20.525 35.5576 20.3944C35.5576 20.3487 35.6168 20.2508 35.6596 20.4564C35.6596 20.3422 35.6596 20.3748 35.5905 20.1986L35.6432 20.2638C35.6037 20.1594 35.821 20.2638 35.8703 20.3193C35.6465 19.7938 35.7321 20.3846 35.9362 20.2377C35.9362 20.2736 35.9362 20.2736 35.9988 20.2377C35.9724 20.0582 35.9461 20.0223 35.9197 20.1365C35.9197 19.611 35.9757 20.117 35.9823 20.0615C35.9732 20.0756 35.9684 20.092 35.9684 20.1088C35.9684 20.1256 35.9732 20.142 35.9823 20.1561C35.9461 19.8885 36.0547 20.2312 36.0778 20.2802C35.9724 20.0647 36.1403 20.2802 36.0778 20.1039L36.1304 20.1953C36.1074 20.081 36.1304 20.1006 36.1765 20.2508C36.1206 20.0811 36.3346 19.9897 36.4564 20.0713C36.3872 19.771 36.4827 19.9374 36.4893 19.944C36.5947 20.1529 36.6638 19.6632 36.6539 19.9864C36.6539 19.957 36.6539 19.9864 36.6803 20.0517C36.7 19.9897 36.8778 19.7253 37.0095 19.895C36.9239 19.7416 36.914 19.7481 36.9074 19.6926C37.0293 19.5718 36.97 19.7742 37.1642 19.9537C36.9963 19.7057 37.24 19.8656 37.0721 19.6273C37.0918 19.6273 37.1116 19.438 37.1544 19.5718C37.1346 19.5066 37.1544 19.5066 37.207 19.4935C37.0984 19.2618 37.1873 19.3956 37.207 19.4935C37.2268 19.5914 37.3749 19.4184 37.398 19.6567C37.3782 19.5501 37.4243 19.5566 37.5363 19.6763C37.0951 19.2193 37.77 19.4478 37.5363 19.2781C37.4869 19.2063 37.5955 19.2781 37.5692 19.2454C37.5264 19.0692 37.6021 19.0267 37.6844 18.9908C37.5922 18.919 37.3321 18.3804 37.4869 18.6448C37.4276 18.5143 37.6647 18.9092 37.5988 18.7852L37.533 18.7264C37.5736 18.8033 37.621 18.8765 37.6745 18.9451C37.612 18.8211 37.7503 19.0626 37.6745 18.906C37.6627 18.9649 37.67 19.026 37.6955 19.0806C37.7209 19.1351 37.7632 19.1803 37.8161 19.2095C37.6647 19.0855 37.9478 19.0985 37.7931 18.9941C38.4812 19.4021 37.9412 18.9582 38.0334 18.9582C38.017 18.9582 37.9248 18.8896 37.9774 18.9223C37.7601 18.6742 38.9092 18.6807 38.6359 18.3739C38.7709 18.5861 39.5215 17.5481 39.5248 17.5481C39.6071 17.5742 39.752 17.2217 39.91 17.2412C39.7553 17.1955 40.2063 16.9768 39.9693 16.7222C40.1701 16.8887 40.1043 16.3403 40.2689 16.7222C40.2261 16.5329 40.7825 15.8768 40.8352 15.9193C41.306 16.1641 41.0294 15.2207 41.1842 15.3415C41.0591 15.2991 42.1719 14.4178 42.0797 14.4145C41.8064 14.3459 42.8435 12.8967 42.86 12.9293C42.748 12.4462 43.716 10.7815 43.2155 10.9349C43.7226 10.788 42.8402 10.2462 43.4361 10.0112C43.2155 10.1254 43.1925 9.0613 43.1563 9.107C43.1201 9.15269 42.6855 8.49334 42.6789 8.4966C42.6723 8.49987 42.6789 8.4966 42.7085 8.4966C42.6196 8.46396 42.3793 8.33013 42.4089 8.25832C42.3595 8.242 42.3365 8.1963 42.3859 8.11796C42.3069 8.20609 42.2937 8.18977 42.3299 8.11796C42.3036 8.1506 42.2542 8.15387 42.2739 8.11796C42.2739 8.13428 42.2739 8.11796 42.2509 8.10164C42.2772 8.16039 42.1653 8.1963 42.1389 8.26485C42.2344 8.04941 42.1093 8.2877 42.2015 8.03636L42.1389 8.1147C42.2542 8.09838 41.6912 8.01351 41.7636 7.87641C41.8558 7.59896 41.4673 8.12122 41.4871 7.90253C41.4871 7.90253 41.3488 7.87968 41.3554 7.79481C41.3323 7.9417 41.4113 7.64466 41.2599 7.95475C41.3027 7.78828 41.2171 8.00045 41.2599 7.82419C41.227 7.90905 41.1908 7.87315 41.1315 8.05268C41.1578 8.01677 41.1512 8.00698 41.1117 8.01677L41.1447 7.88621L41.0722 8.05594C41.0751 7.9768 41.0941 7.89907 41.1282 7.82745C41.0854 7.89011 41.0469 7.95554 41.013 8.0233C41.0788 7.83398 40.9208 8.16366 40.8516 7.76217C40.8088 8.01677 40.8516 7.64466 40.8023 7.83724C40.8053 7.78851 40.8142 7.74031 40.8286 7.69362C40.7858 7.74258 40.799 7.58917 40.743 7.74911C40.743 7.69036 40.7693 7.66424 40.7726 7.62834C40.7364 7.71321 40.9208 6.67194 40.6706 7.92538C40.6706 7.84051 40.6706 7.8503 40.6278 7.96128C40.6936 7.82092 40.6772 7.79155 40.5784 7.86988C40.5784 7.8503 40.4434 8.00045 40.4105 7.82745C40.4961 8.04288 40.1701 7.32477 40.1998 7.60875C40.2327 7.76543 40.1998 7.8046 40.1142 7.723V7.68056C40.0789 7.73148 40.0553 7.78941 40.045 7.8503C40.045 7.52389 39.7783 7.79807 39.7652 7.8503V7.74258C39.7652 7.8046 39.696 7.57285 39.6532 7.70341C39.6516 7.68713 39.6516 7.67073 39.6532 7.65445C39.6137 7.77196 39.4886 7.96455 39.4952 7.98087C39.4952 7.84377 38.9059 7.39332 39.0639 7.95149C38.9092 7.39332 39.031 8.67613 38.7347 7.75564C38.9454 8.34971 38.5371 7.42923 38.5701 7.97434C38.5075 7.76217 38.4779 7.73279 38.4845 7.88947C38.5701 8.08205 38.4515 8.08205 38.1289 7.88947C38.1492 7.96396 38.1745 8.03702 38.2046 8.10817L38.1124 7.98739C38.175 8.19304 38.0202 8.61737 37.7602 8.22568C37.7964 8.34319 36.4103 8.87851 36.463 8.90462C36.3564 9.11123 36.2188 9.30055 36.0547 9.46605C36.0547 9.62926 35.9988 9.63252 35.8868 9.46605C35.7749 10.0993 35.7024 9.68149 35.3831 10.0634C35.3304 10.1124 35.1888 10.2984 35.3831 10.1907C35.337 10.6216 35.2152 10.2723 35.1263 10.1646C35.2382 10.3082 35.0769 10.491 34.965 10.3115C35.0703 10.5954 34.7707 10.3539 34.6719 10.5726C34.6028 11.023 34.4909 10.8435 34.2736 11.1504C34.4942 10.9937 34.1518 11.6955 34.1485 11.1863C33.7633 11.7803 33.3353 12.2536 33.4604 12.518C33.49 12.6029 33.4604 12.6453 33.3945 12.7106C33.5986 12.9522 33.2497 12.8249 32.9204 12.8706C33.2727 12.926 33.006 13.7617 32.848 14.1207C33.2266 14.0848 33.2628 14.4471 32.7229 14.2056C32.7525 14.2643 33.2925 14.9106 32.6439 14.6593C32.792 14.6593 32.6439 14.532 32.6834 14.47C32.636 14.532 32.6034 14.6039 32.588 14.6802C32.5726 14.7565 32.5748 14.8353 32.5945 14.9106C32.5253 15.0151 32.4957 15.0379 32.5155 14.9825C32.4496 15.0804 32.4035 15.3089 32.578 15.3774C32.555 15.3774 32.3673 15.2958 32.3344 15.2762C33.2299 15.9029 32.262 15.6353 32.2225 15.6451C32.5517 15.792 32.5517 15.8018 32.2225 15.6777L32.4332 15.8442C32.347 15.8035 32.252 15.7845 32.1566 15.7887C32.2891 16.0706 32.4633 16.3314 32.6735 16.5623C31.2315 15.792 32.4793 16.5623 31.9887 16.4938C32.0644 16.5329 33.0324 16.8006 31.9887 16.9475C32.0513 16.9475 32.5056 17.8745 32.0348 17.6656C32.1621 17.7592 32.1292 17.7689 31.936 17.695C32.578 17.7798 32.1862 18.1128 32.285 18.0442C32.0414 18.1356 32.5023 19.3107 32.4068 19.2291L32.4332 19.3303C32.555 19.2063 31.7385 19.8362 31.6957 19.7383C31.5146 19.5294 31.5278 20.2051 31.3467 20.0974C31.3105 20.0713 31.1492 20.2671 31.0438 20.2084C30.9911 20.1627 31.0438 20.4858 30.9352 20.3389C30.9681 20.4205 30.8759 20.4466 30.9615 20.6164C30.8989 20.5152 30.9615 20.7339 30.8166 20.5119C30.8989 20.76 30.8726 20.7567 30.7343 20.5119C30.7343 20.6849 30.7113 20.5935 30.7343 20.76C30.7343 20.76 30.0759 20.6523 30.2141 20.8938C29.9079 20.4695 29.9376 21.3312 29.8553 21.1647C29.987 21.328 28.9137 21.2464 29.0124 21.3377C29.2297 21.6217 28.7721 21.3377 28.861 21.687C28.7062 21.4226 28.0313 22.1473 28.0379 21.8404C27.8535 22.5128 26.6485 22.033 26.9416 22.5161C26.507 21.7817 26.7736 23.4007 26.3226 22.4345C26.4872 22.7381 25.7728 22.5259 25.8222 22.6206C25.8814 22.7805 25.8222 22.6891 25.7892 22.6206C25.8156 22.725 25.7695 22.6956 25.7629 22.6663C25.7629 22.7152 25.7267 22.6238 25.7234 22.614C25.7234 22.7511 25.6641 22.6467 25.6246 22.5585C25.6231 22.5705 25.6231 22.5825 25.6246 22.5944C25.5522 22.4639 25.6543 22.8099 25.5884 22.5944C25.618 22.7087 25.5884 22.6565 25.5654 22.6271C25.5292 22.4998 25.5654 22.6271 25.5226 22.4933C25.8814 23.7467 25.1933 21.5434 25.4765 22.4671C25.4801 22.5011 25.4856 22.5349 25.4929 22.5683C25.572 22.7903 25.4271 22.6042 25.4205 22.5226C25.4205 22.503 25.4205 22.6303 25.4205 22.5553V22.6173C25.4205 22.5847 25.4008 22.5749 25.358 22.5912C25.3152 22.6075 25.3283 22.6303 25.3283 22.5357C25.3283 22.5683 25.2921 22.4573 25.3053 22.5357C25.2592 22.3105 25.2658 22.49 25.246 22.4508C25.2691 22.5553 25.2987 22.7315 25.167 22.5553C25.1933 22.6108 25.167 22.7348 25.167 22.6173C25.167 22.6499 25.167 22.6499 25.167 22.6173C25.167 22.6369 25.167 22.6499 25.167 22.663C25.167 22.676 25.167 22.8654 25.167 22.6924C25.167 22.5879 25.0254 22.9111 25.0024 22.7348C25.0024 22.9894 25.0024 22.6206 25.0024 22.8164C25.0024 22.6956 25.0024 22.663 25.0024 22.7185V22.5749C25.0003 22.6301 24.9915 22.6849 24.976 22.7381V22.614C24.976 22.6989 25.0748 21.6087 24.9299 22.9209C24.9299 22.8393 24.9299 22.8523 24.9069 22.9633C24.9497 22.8164 24.9431 22.787 24.8871 22.8784C24.8871 22.8784 24.8081 23.0547 24.8213 22.849C24.8937 22.9568 24.9036 22.5749 24.795 22.7446C24.874 22.527 24.874 22.4911 24.795 22.6369C24.7719 22.8001 24.7522 22.836 24.7291 22.7413V22.6989C24.6972 22.7492 24.6686 22.8016 24.6435 22.8556C24.6929 22.7283 24.6929 22.5977 24.581 22.7903C24.6369 22.6924 24.6205 22.6989 24.5283 22.8099L24.581 22.712C24.5447 22.7642 24.6468 22.5553 24.581 22.6532L24.6106 22.614C24.7456 22.4671 24.3933 22.7609 24.4591 22.6989C24.4591 22.6989 24.4361 22.7707 24.4394 22.7576C24.3966 22.9992 24.2814 22.9731 24.3735 22.8295C24.5283 22.6303 24.4229 22.6597 24.5019 22.503C24.5019 22.5226 24.5941 22.3562 24.5283 22.4573C24.5118 22.4965 24.5085 22.4965 24.4954 22.503V22.5226C24.4657 22.5585 24.3472 22.6303 24.4954 22.5226L24.4065 22.601C24.469 22.5096 24.4657 22.5357 24.446 22.5618C24.4688 22.5354 24.4941 22.5114 24.5217 22.49L24.4987 22.5194C24.5349 22.4704 24.5579 22.4541 24.4987 22.5194L24.5316 22.4802C24.5579 22.4606 24.469 22.5455 24.446 22.5618C24.4954 22.5292 24.2879 22.6924 24.4822 22.5161L24.548 22.4606C24.5278 22.475 24.509 22.4914 24.4921 22.5096C24.4921 22.5096 24.4921 22.49 24.525 22.4704C24.4657 22.5226 24.5447 22.4704 24.5447 22.4508L24.5217 22.4671L24.4954 22.49C24.4098 22.5553 24.1661 22.7087 24.5415 22.4476C24.5052 22.4737 24.4723 22.4965 24.4888 22.4802L24.3999 22.5226C24.255 22.6303 24.3999 22.4933 24.4427 22.4704C24.4855 22.4476 24.3406 22.5128 24.4131 22.4704L24.3538 22.49C24.3538 22.49 24.3242 22.49 24.4065 22.4508H24.367C24.3797 22.4461 24.3937 22.4461 24.4065 22.4508C24.4065 22.4508 24.4065 22.4508 24.3834 22.4508C24.3834 22.4508 24.3472 22.4508 24.3307 22.4508C24.3735 22.4508 24.1497 22.3986 24.4196 22.4247C24.39 22.4247 24.5019 22.3953 24.4196 22.4247C24.6501 22.3823 24.4657 22.3986 24.5085 22.3823C24.4493 22.3823 24.0739 22.3823 24.2912 22.3398L24.3801 22.3137C24.334 22.3137 24.1332 22.3137 24.3801 22.2876C24.2484 22.3105 24.2188 22.3072 24.2912 22.2876C24.2353 22.2876 24.5184 22.2713 24.3505 22.2876C24.3353 22.2926 24.319 22.2934 24.3033 22.29C24.2877 22.2865 24.2733 22.2789 24.2616 22.268C24.5184 22.2974 24.2353 22.268 24.1727 22.2452C24.3439 22.2452 24.1167 22.2223 24.2978 22.2452C24.2089 22.2452 24.2353 22.2093 24.0509 22.1734C24.0871 22.193 24.097 22.1734 24.0805 22.1734L24.2155 22.193L24.0707 22.1113C24.1486 22.1164 24.2259 22.1296 24.3011 22.1505C24.1464 22.0983 24.2451 22.1211 24.0937 22.0689C24.3242 22.1407 23.8731 21.984 24.3406 21.971C24.0904 21.9122 24.4591 21.971 24.2682 21.9286C24.3164 21.9363 24.3638 21.9483 24.4098 21.9645C24.3571 21.9286 24.5118 21.9645 24.3538 21.8992C24.4163 21.8992 24.4394 21.9286 24.4756 21.9351C24.39 21.8992 25.4633 22.2027 24.1826 21.8176C24.2682 21.8176 24.2583 21.8176 24.1497 21.7784C24.2847 21.8535 24.3176 21.847 24.2418 21.7523C24.2649 21.7523 24.1102 21.6185 24.3011 21.6283C24.9003 21.9938 24.2254 21.1027 24.4065 21.1223C24.604 21.0309 24.5612 20.9689 24.3505 20.8873C24.3044 20.8873 24.2419 20.8383 24.3703 20.8873C24.4028 20.8851 24.4354 20.8908 24.4652 20.9038C24.495 20.9169 24.5212 20.937 24.5415 20.9624C24.7192 20.8449 24.9267 20.6588 24.5415 20.5772C24.762 20.6262 24.6468 20.5054 24.7192 20.5152C24.5349 20.4205 24.5744 20.3748 24.8542 20.4401C24.1958 20.3063 25.2164 20.4662 24.7357 20.2312C24.9497 20.2932 24.9892 20.29 24.8509 20.2312C24.66 20.1986 24.7192 20.1267 25.0287 20.0125C24.976 20.0125 24.7851 19.957 24.9563 19.9505C24.6995 19.8591 25.4863 18.906 25.3711 18.8994C25.5324 18.9321 25.4403 18.6416 25.6115 18.6481C25.674 18.6644 25.4896 18.3935 25.6576 18.4751C25.5917 18.4131 25.6576 18.3413 25.516 18.227C25.7662 18.3837 25.516 17.8778 25.7794 18.227C25.7794 18.2499 26 16.9214 26.3259 17.176C26.1119 17.0911 27.3136 16.5231 27.0074 16.1641C26.6354 15.9519 28.9071 14.4439 28.242 14.2415C28.9927 14.4798 27.893 13.5234 28.7918 13.8139C28.4626 13.7323 29.1211 13.2459 29.0223 13.2329C28.7721 13.1643 29.4174 12.58 29.447 12.58C29.3746 12.58 29.3318 11.4833 29.3219 11.5029C29.2297 11.6661 29.4273 11.2483 29.2956 11.48C29.2956 11.4409 29.3285 11.4213 29.3483 11.3756C29.2725 11.5094 29.3186 11.3331 29.3252 11.2744L29.2791 11.369C29.2861 11.3456 29.2949 11.3226 29.3055 11.3005C29.1343 11.591 29.3055 11.1601 29.2758 11.2744C29.2462 11.3886 29.2166 11.3723 29.2989 11.2124C29.3186 11.2124 29.3186 11.1928 29.2989 11.1895C29.2499 11.2392 29.1918 11.2791 29.1277 11.307C29.0486 11.405 29.0618 11.3723 29.1705 11.2058C29.1154 11.2725 29.0658 11.3434 29.0223 11.418L29.0585 11.3462C29.0381 11.386 29.0114 11.4224 28.9795 11.4539C29.0187 11.4203 29.0502 11.3787 29.0717 11.3319C29.0933 11.2852 29.1045 11.2344 29.1046 11.183C28.9202 11.4604 28.9137 11.4637 29.0684 11.183C28.9927 11.2972 29.0684 11.183 28.9729 11.3201L29.0058 11.2907C28.7918 11.5355 29.0421 11.1928 29.1013 11.1047C28.9696 11.307 29.1013 11.072 28.9993 11.2222L29.0552 11.134C28.9894 11.2189 28.9993 11.1993 29.0914 11.072C29.0914 11.072 28.7392 11.2385 29.0914 11.0002C29.0777 11.0344 29.0588 11.0663 29.0355 11.0949C29.1178 10.9447 29.1046 10.9578 28.9927 11.134C29.0552 11.023 28.9565 11.1732 28.9301 11.2026C28.9038 11.1079 28.8774 11.2483 28.9828 11.1014L28.9532 11.1275L29.0223 11.0296C28.9663 11.0981 28.9762 11.0785 28.9894 11.0459C28.7688 11.3919 28.9071 11.1601 28.9499 11.0916C29.075 10.9121 28.9499 11.0328 28.8972 11.121C28.9154 11.0916 28.9352 11.0633 28.9565 11.0361C28.8643 11.1438 28.8906 11.1047 29.0388 10.9153L28.9729 10.9871C29.0717 10.8533 29.0717 10.837 28.9729 10.9382C28.9565 10.9806 28.94 10.9839 28.9235 10.9382L29.0091 10.8076C28.8248 11.0622 28.8083 11.0785 28.9499 10.8631C28.726 11.1373 29.0915 10.6411 29.0618 10.6901C28.884 10.9317 29.019 10.6901 28.8445 10.9382C28.8083 10.8794 28.7161 11.0459 28.8248 10.9219C28.7293 11.0426 28.7918 10.9219 28.782 10.9382L28.6865 11.0524C28.6991 11.0328 28.7135 11.0142 28.7293 10.9969L28.6766 11.0492C28.7721 10.9121 28.861 10.7848 28.9565 10.6411C28.9235 10.6868 28.805 10.8631 28.7556 10.9186C28.7556 10.899 28.7556 10.8892 28.7293 10.9186C28.7618 10.8529 28.804 10.7924 28.8544 10.7391C28.5581 11.0263 29.0783 10.4975 28.6569 10.9055C28.6832 10.8631 28.7128 10.8403 28.7359 10.8076C28.6503 10.9055 28.6371 10.9219 28.6931 10.8468C28.591 11.01 28.5581 11.0361 28.5877 10.9284C28.6108 10.8957 28.6437 10.8598 28.6766 10.8174C28.5943 10.899 28.6141 10.8762 28.5087 10.9904L28.5581 10.9121C28.726 10.677 27.9951 11.6073 28.5285 10.9414L28.5021 10.9676C28.5515 10.9121 28.5515 10.9088 28.5021 10.9676L28.6009 10.8468L28.5581 10.8925L28.6108 10.8076C28.3737 11.0557 28.2223 11.2091 28.4955 10.8827C28.4066 10.9969 28.5482 10.8468 28.535 10.8827C28.5538 10.854 28.5747 10.8267 28.5976 10.8011L28.5021 10.8892C28.5322 10.8581 28.5577 10.8229 28.5778 10.7848C28.4396 10.9578 28.4758 10.8892 28.4264 10.9382C28.6766 10.6379 28.377 10.9806 28.4462 10.899C28.2552 11.0949 29.368 9.7892 28.3178 10.9643L28.4922 10.7684C27.8338 11.294 28.9038 10.491 28.3046 10.9349C28.4165 10.7946 28.3638 10.8598 28.456 10.7391C28.2058 11.01 28.2025 11.01 28.456 10.7391L28.2782 10.9153C28.3112 10.8827 28.4198 10.7587 28.4659 10.7032C28.4515 10.7037 28.4377 10.7093 28.4269 10.7188C28.4161 10.7283 28.4089 10.7412 28.4066 10.7554C28.647 10.1319 27.8041 11.7771 28.4066 10.726C27.9161 11.2352 28.9729 10.0503 28.3671 10.7064L28.4857 10.6085C28.0807 11.0524 28.3342 10.7391 28.4132 10.6509C28.4922 10.5628 28.2486 10.8598 28.3869 10.4224C28.2881 10.3931 28.2684 10.3343 28.3243 10.2462C28.2387 10.5008 28.1663 9.82837 28.107 10.3213C28.0247 9.48564 27.9062 10.38 27.9391 10.1254C28.0708 10.1678 27.8338 10.0601 27.8272 10.0503C27.8071 10.1089 27.7743 10.1624 27.7311 10.2069C27.6878 10.2515 27.6352 10.2861 27.577 10.3082C27.577 10.442 27.5473 10.4159 27.4815 10.2331C27.4815 10.3441 27.4815 10.3147 27.5506 10.491L27.5045 10.4224C27.6066 10.6836 27.3333 10.3963 27.3004 10.3572C27.4749 10.6836 27.4157 10.6118 27.2115 10.4257C27.2708 10.5954 27.2971 10.6281 27.2938 10.5204C27.3663 10.8272 27.2017 10.4877 27.1325 10.3833C27.2675 10.5824 27.0831 10.3833 27.1786 10.54L27.1128 10.4584C27.1589 10.5595 27.1424 10.54 27.0634 10.4029C27.1391 10.5432 26.9251 10.5661 26.9449 10.4224C27.0074 10.6934 26.8461 10.1842 27.0272 10.5661C26.9416 10.4747 27.0469 10.6183 27.0601 10.6575C27.0107 10.6575 27.0601 10.6999 26.9679 10.5857C26.9877 10.664 26.9679 10.6444 26.9053 10.5302C26.9679 10.664 27.0733 10.8076 26.9053 10.6379C26.7374 10.4681 26.8329 10.6052 26.9053 10.7162C26.8132 10.6248 26.8362 10.7782 26.7539 10.5204C26.7539 10.5759 26.6057 10.5954 26.6584 10.713C26.5234 10.7391 26.7309 10.8207 26.5728 10.6803C26.7506 11.0067 26.3819 10.491 26.4247 10.5334C26.5992 10.7782 26.3884 10.5987 26.5629 10.8403C26.5333 10.8403 26.5629 11.0067 26.5136 10.8729C26.5629 10.961 26.5136 10.9382 26.4905 10.9349C26.5761 11.0851 26.586 11.1112 26.5234 11.0133L26.5498 11.0818C26.4247 10.9414 26.3555 10.8566 26.2205 10.7162C26.3852 10.7913 26.4576 10.8925 26.4312 11.0198C26.3675 10.981 26.317 10.9242 26.2864 10.8566C26.2864 10.9023 26.3226 11.0981 26.26 11.0296C26.3259 11.1406 26.3325 11.1601 26.2798 11.0851C26.2107 10.9023 26.4049 11.4539 26.2798 11.2352C26.2535 11.2058 26.2337 11.1634 26.2008 11.1177C26.2304 11.2026 26.3226 11.3299 26.2238 11.2809C26.2238 11.2809 26.2238 11.3821 26.1481 11.232C26.1389 11.262 26.1312 11.2925 26.1251 11.3233C26.1053 11.3233 26.0724 11.2646 26.0625 11.2417C26.1514 11.4474 26.0856 11.3397 26.0164 11.2744C26.1218 11.4213 25.967 11.4017 25.8288 11.3527C25.8288 11.3788 25.8551 11.529 25.8024 11.4702C25.8551 11.5192 25.8024 11.5225 25.8024 11.4702C25.8024 11.5355 25.7827 11.4963 25.7563 11.4702C25.8847 11.6432 25.4271 11.3136 25.5917 11.5812C25.5917 11.5518 25.46 11.813 25.1999 11.7379C25.0246 11.9521 24.8221 12.143 24.5974 12.3059C24.5744 12.4723 24.5184 12.4723 24.4229 12.3059C24.2056 12.9293 24.1925 12.5246 23.8007 12.8673C23.748 12.9032 23.5505 13.0893 23.8007 13.0011C23.6756 13.4353 23.613 13.0631 23.5439 12.9424C23.6295 13.1023 23.4352 13.2688 23.3529 13.0729C23.4023 13.3798 23.1521 13.0729 23.0039 13.2916C22.8426 13.7323 22.7537 13.5397 22.4706 13.8008C22.7241 13.6899 22.2237 14.3198 22.3389 13.8008C21.7957 14.3068 21.2327 14.6267 21.2557 14.9302C21.2557 15.0249 21.2195 15.0575 21.124 15.0967C21.2294 15.397 20.9396 15.1652 20.6137 15.0967C20.9429 15.286 20.3174 15.9748 20.0079 16.2457C20.1725 16.3044 20.3108 16.9181 20.1758 16.6243C20.1482 16.5464 20.1047 16.4748 20.0481 16.4142C19.9915 16.3536 19.9229 16.3051 19.8466 16.2718C19.8466 16.3501 19.998 17.1858 19.547 16.657C19.6754 16.7386 19.5997 16.5329 19.682 16.5003C19.4252 16.6015 19.4351 16.7484 19.2606 16.892C19.1552 16.9475 18.9873 17.1237 19.0992 17.2772C19.0828 17.2772 18.961 17.0976 18.9412 17.065C19.356 17.9855 18.6614 17.3392 18.635 17.3294C18.8424 17.6558 18.8326 17.6558 18.612 17.3555L18.691 17.6166C18.691 17.5644 18.556 17.4567 18.4902 17.4208C18.4629 17.6824 18.4178 17.942 18.3552 18.1976C17.8844 16.9964 18.2202 18.2303 17.9206 17.9202C18.0457 18.1911 18.2169 18.6318 17.621 18.2858C17.6967 18.3804 17.3148 19.3107 17.1469 18.8766C17.1469 18.9778 16.9461 18.8113 16.979 18.8113C16.8209 18.7884 16.4555 18.7232 17.0909 18.7917C16.9493 18.7917 17.058 18.7721 16.8572 18.7493L17.0382 18.7721C17.1238 18.7264 17.0843 18.7068 16.923 18.7134L17.1173 18.7428C17.0975 18.7428 16.8967 18.7003 17.0284 18.7199C16.9973 18.7151 16.9665 18.7085 16.9362 18.7003C17.1271 18.7166 16.7979 18.6057 17.1502 18.6709L16.9164 18.6057L17.0613 18.635C16.923 18.5926 17.0613 18.6187 16.923 18.5795H16.9461C16.5213 18.4392 17.6276 17.992 17.4201 17.9626C17.1502 17.8843 17.6539 17.8647 17.3247 17.6003C17.5946 17.7211 17.6934 16.8006 17.8514 17.0911C17.8514 17.0585 17.8086 16.9344 17.8514 17.0128C17.8686 16.9664 17.9033 16.9285 17.9482 16.9072C17.9931 16.8858 18.0446 16.8827 18.0918 16.8985C17.486 16.4644 18.7074 16.1478 18.5066 16.0923C18.3058 16.0368 18.6054 15.9617 18.3914 15.9062C18.5692 15.9617 18.5 15.8801 18.6614 15.9062L18.6021 15.8148C18.4243 15.7659 18.5494 15.7234 18.5066 15.6222C18.7173 15.867 19.4647 14.4341 19.5174 14.2741C19.5437 14.2154 19.5174 14.2741 19.5174 14.2741C19.5931 14.2741 19.6589 13.964 19.8038 13.9477C19.6491 13.9183 20.0145 13.6735 19.7478 13.4646C19.9816 13.6083 19.7906 13.0893 20.031 13.432C19.9421 13.2427 20.3865 12.6355 20.4326 12.6682C20.9133 12.8803 20.5446 12.0153 20.7026 12.1329C20.5577 12.0872 21.5981 11.3364 21.5059 11.3266C21.2096 11.232 22.25 10.021 22.2763 10.0732C22.1677 9.43667 23.4978 8.65981 23.0303 8.51945C23.883 8.78385 22.7603 7.68056 23.6887 8.01351C23.3595 7.92211 24.2155 7.39006 24.0443 7.36068C23.7151 7.17136 23.9093 6.9396 24.6402 6.65889C24.7324 6.65889 24.4559 6.14968 24.6402 6.21823C24.6699 6.21823 24.7357 6.04523 24.8378 6.0844C24.7291 6.02891 24.9234 6.16274 24.7357 5.92119C24.874 6.02238 24.7159 5.85264 24.8674 5.96036C24.8048 5.89181 24.8674 5.85917 24.7291 5.73187C24.7511 5.77104 24.7675 5.76451 24.7785 5.71229L24.8871 5.79389C24.7116 5.59804 24.7346 5.59804 24.9563 5.79389C24.8707 5.65027 24.9563 5.72208 24.8476 5.58498C24.8476 5.58498 25.3843 5.55887 25.1769 5.38913C25.2789 5.52623 25.3217 5.51644 25.3053 5.35649C25.4205 5.4381 25.7168 5.647 25.1999 5.19002C25.2789 5.22593 25.2789 5.20961 25.1999 5.12147C25.2855 5.25857 25.3283 5.24878 25.325 5.09863C25.1011 4.96153 26.0658 4.87014 25.8814 4.77221C25.5522 4.56983 26.0954 4.77221 25.8255 4.4458C26.0757 4.63512 26.1876 4.01167 26.1843 4.18793C26.2535 4.07368 26.3094 4.0541 26.3555 4.13244C26.2996 3.97902 26.3555 3.73095 26.2897 3.73095C26.3555 3.79297 27.3235 3.54816 26.7737 3.26744C27.2905 3.5351 26.4773 2.71254 27.2477 3.03242C26.9185 2.92144 27.5243 2.58523 27.3926 2.57218C27.1852 2.53301 27.5704 1.99116 27.6198 1.96178C28.2453 1.71697 25.2723 1.45258 25.4304 1.45584C25.2975 1.72506 25.1457 1.98466 24.976 2.23271C24.976 2.40897 24.9267 2.42203 24.7983 2.2784C24.7291 2.79414 24.7719 3.10097 24.334 2.84963C24.367 2.94429 24.334 3.00957 24.2715 3.04221C24.2089 3.07486 24.0311 3.33925 24.2715 3.18257C24.2254 3.55795 24.2089 3.43718 24.0015 3.18257C24.0015 3.18257 23.8106 3.37516 23.8237 3.36537C23.771 3.20542 23.804 3.69178 23.8073 3.63302C23.8106 3.57427 23.7546 3.13687 23.4978 3.68525C23.4089 4.12917 23.241 4.05736 23.0303 4.33808C23.2706 4.15529 22.8591 4.92889 22.8953 4.38378C22.4377 5.03661 21.9076 5.53929 21.9932 5.87223C22.0294 5.99627 22.0195 6.02564 21.9636 5.9571C21.9636 6.08113 21.9306 6.12357 21.8911 6.0844C21.9932 6.25087 21.4565 6.23455 21.3709 6.24108C21.8483 6.35206 19.5602 9.90998 18.9873 10.269C18.6218 10.4257 18.5 11.1471 18.1708 11.369C18.2049 11.3575 18.2371 11.341 18.2663 11.3201C18.049 11.6661 18.0161 12.0774 17.7626 12.4984C17.6671 12.5931 17.3082 13.1513 17.2819 12.9195C17.2029 13.6931 15.7839 14.7964 15.7806 15.2501C15.5863 15.8083 15.4283 16.0988 15.2933 16.4122C14.3517 17.8223 14.2694 19.3499 13.206 20.1104C13.3113 20.0745 11.1153 24.2428 11.1153 24.2232C10.9013 25.085 6.09454 32.1584 5.04758 32.5305C4.74469 32.5533 4.55373 33.2225 4.52739 33.3596C4.41545 33.2388 3.33557 35.1157 3.44092 35.0178C3.54628 34.9199 3.5364 35.0178 3.49031 35.1059C2.41043 36.2647 3.49031 37.5116 3.26314 38.308C3.26552 38.4035 3.28898 38.4972 3.33187 38.5827C3.37476 38.6682 3.43603 38.7433 3.51137 38.8027C3.58671 38.8621 3.67428 38.9045 3.76792 38.9267C3.86155 38.949 3.95896 38.9506 4.0533 38.9315C4.2245 38.7552 4.28376 38.7781 4.23438 39C4.89284 38.5137 4.26071 38.8303 4.66238 38.4647C4.54385 38.6834 5.26487 38.3341 5.41632 38.1775C5.41632 38.1775 5.76202 37.8511 5.43608 38.0273C5.58423 37.5246 5.64678 37.9033 5.72909 38.0273C5.63362 37.8772 5.83115 37.6062 5.94639 37.8249C5.87725 37.4561 6.15051 37.7988 6.3283 37.4659C6.44353 37.022 6.65753 37.0285 6.86824 36.7119C6.61473 36.9208 7.07565 36.0786 7.0131 36.6498C7.5267 35.9056 8.11274 35.3866 8.02714 34.9982C7.99421 34.8644 8.00738 34.835 8.06665 34.9035C8.06665 34.7664 8.10286 34.7175 8.14566 34.7632C7.98434 34.4759 8.33332 34.613 8.69877 34.5477C8.34979 34.4955 8.83705 33.3955 9.06751 32.9777C8.81071 33.0103 8.61317 32.524 9.21896 32.8732C9.21896 32.1453 9.54819 32.3053 9.32431 32.5468C9.56465 32.2955 9.50539 32.1388 9.63709 31.894C9.72598 31.7765 9.8445 31.5023 9.68647 31.3978C9.76273 31.4426 9.83638 31.4917 9.90706 31.5447C9.27493 30.8299 10.0157 31.1204 10.1375 31.1041C9.83792 30.8756 9.8445 30.8625 10.154 31.0616L9.99924 30.8266C10.0223 30.8756 10.1836 30.9278 10.2593 30.9343C10.2198 30.9343 10.2034 30.0497 10.1935 30.0628C10.7927 30.8364 10.4174 30.1966 10.7861 30.3598C10.7861 30.3598 10.2988 30.1052 10.4272 29.9453C10.9935 29.9061 10.7729 29.6874 10.7071 29.6189C10.6412 29.5503 11.9318 28.4144 11.9417 28.4144C12.034 28.1334 12.1588 27.8639 12.3137 27.6114C12.2907 27.4384 12.35 27.4188 12.4882 27.5559C12.5574 26.8705 12.6759 27.2295 12.992 26.7856C13.0249 26.7497 13.2191 26.4755 12.9755 26.6452C13.015 26.1654 13.1566 26.5277 13.2488 26.6452C13.1401 26.5147 13.285 26.2568 13.42 26.4559C13.308 26.1295 13.6142 26.4037 13.7492 26.1295C13.8348 25.6627 13.9797 25.7835 14.2134 25.4767C13.9731 25.6529 14.3978 24.8859 14.3484 25.431C14.8423 24.7782 15.3921 24.3603 15.3361 24.0241C15.3361 23.9262 15.3624 23.8838 15.4612 23.825C15.3262 23.5345 15.6489 23.7238 15.9913 23.7499C14.7995 23.2375 18.0589 21.9971 17.7099 21.465C17.6572 21.2725 17.6671 21.217 17.8218 21.465C17.7461 21.2953 17.8844 21.1093 18.0325 21.1386C17.9963 21.1386 18.0556 21.0962 18.0589 21.106C18.3058 20.8971 18.3321 20.8644 18.5165 20.8155C18.5165 20.8644 18.6317 20.7502 18.6943 20.7698C18.7372 20.5787 18.837 20.4047 18.9807 20.2704C18.928 20.117 19.1157 20.2475 19.1256 20.2704C19.1848 19.5816 19.1453 20.2181 19.5239 19.8395C19.5997 19.784 19.6458 19.6796 19.5239 19.7253C19.547 19.3434 19.6688 19.6894 19.7478 19.8036C19.6128 19.6012 19.8334 19.7644 19.7478 19.5882C19.8532 19.6241 19.8071 19.5882 19.8762 19.7122C19.7906 19.4674 20.0639 19.6861 20.1297 19.5621C20.1956 19.438 20.2153 19.0822 20.3437 19.1606C20.2614 19.0561 21.3314 18.3445 21.3314 18.338C21.3314 18.2597 21.3314 18.2368 21.417 18.2107C21.2722 17.9235 21.5619 18.1781 21.845 18.2792C21.5389 18.0703 21.9372 17.5742 22.1743 17.3588C22.0525 17.3 21.9504 16.9671 21.9734 17.0062C22.0247 17.115 22.0912 17.2161 22.171 17.3065C22.171 17.2674 22.1874 17.2445 22.2994 17.3588C22.2994 17.3588 22.0097 16.5068 22.4936 17.0617C22.3718 16.9736 22.4673 17.1662 22.4047 17.1825C22.4377 17.1825 22.4772 17.2249 22.4837 17.2478C22.5333 17.1421 22.5751 17.033 22.6089 16.9214C22.543 16.7059 23.5011 17.5415 22.7768 16.5949C22.7768 16.6113 22.9183 16.7712 22.9381 16.8038C22.4969 15.9486 23.241 16.6602 23.1554 16.6145C22.9414 16.311 22.9447 16.2881 23.1554 16.5982L23.0533 16.3567C23.1037 16.4364 23.1697 16.5052 23.2476 16.559C23.2476 16.559 23.4418 16.1184 23.3496 16.3991C23.6229 16.2457 23.2146 16.5525 23.4714 16.3567C23.7743 16.5101 23.3529 16.3567 23.3694 16.4056C23.3844 16.4228 23.3927 16.4449 23.3927 16.4676C23.3927 16.4904 23.3844 16.5124 23.3694 16.5297C23.3328 16.8012 23.254 17.0655 23.1356 17.3131C23.1883 17.4763 23.1356 17.4991 22.9743 17.3881C23.0434 18.041 22.8426 17.6884 22.6451 18.1813C22.6187 18.2335 22.52 18.5077 22.6978 18.3054C22.7866 18.7525 22.5628 18.4522 22.4442 18.3772C22.5924 18.4784 22.5068 18.733 22.3356 18.5893C22.5298 18.8439 22.1611 18.6905 22.1348 18.968C22.2237 19.4217 22.036 19.3401 21.9405 19.7089C22.0953 19.4641 22.0097 20.2965 21.8352 19.7971C21.6738 20.5446 21.4203 21.1941 21.6508 21.4291C21.6765 21.4605 21.6905 21.4997 21.6905 21.5401C21.6905 21.5805 21.6765 21.6197 21.6508 21.6511C21.9306 21.8078 21.5586 21.8274 21.2722 22.0134C21.3841 21.9808 21.9932 22.9927 21.8088 23.4039C21.9208 23.2603 21.9273 23.479 21.8088 23.59C21.8549 23.6357 22.0294 23.8805 22.0228 23.8544C22.059 23.9915 22.1743 24.0372 22.2302 24.1808C22.3509 24.4126 22.5075 24.624 22.6945 24.8075C22.5331 24.9022 22.7833 24.9707 22.7866 25.0589C23.0642 25.1228 23.3345 25.2147 23.5933 25.3331C23.748 25.2286 23.7381 25.4734 23.6163 25.4375C23.6459 25.4604 24.6205 25.6203 24.5579 25.617C24.6238 25.617 24.8871 25.617 24.66 25.5256C25.0221 25.3102 24.8608 25.5028 24.8114 25.7411C24.8542 25.5518 25.111 25.5615 25.0485 25.7639C25.1999 25.4897 25.2098 25.8782 25.4633 25.7966C25.832 25.5518 25.8222 25.728 26.1843 25.6529C25.9111 25.6203 26.6485 25.3265 26.3028 25.7084C26.9975 25.5224 27.6428 25.4473 27.7218 25.1666C27.7581 25.085 27.8009 25.0654 27.8996 25.0654C27.8996 24.739 28.084 25.0654 28.3606 25.2547C28.1301 24.9773 28.8873 24.5333 29.2429 24.3767C29.0947 24.2624 29.1738 23.9229 29.1803 23.9719C29.1853 24.0534 29.2065 24.1332 29.2427 24.2065C29.2788 24.2799 29.3293 24.3455 29.3911 24.3995C29.3911 24.3538 29.5129 23.6031 29.7598 24.1221C29.6577 24.0111 29.6841 24.2265 29.5985 24.233C29.6754 24.22 29.7485 24.1901 29.8123 24.1455C29.8761 24.1009 29.929 24.0427 29.9672 23.9752C30.0857 23.9523 30.122 23.9523 30.0726 23.9752C30.4018 23.9001 30.2536 23.4137 30.4018 23.8936C30.3524 23.5672 30.4018 23.6063 30.494 23.936C30.4446 23.6488 30.5302 23.5802 30.7376 23.714C30.5006 23.6129 30.7771 23.3648 30.764 23.714C30.6849 23.3321 30.764 23.5802 30.8891 23.6814C30.8331 23.6161 31.5179 23.355 31.5047 23.3354C31.5047 23.3713 31.6924 22.9176 31.834 23.0547C31.857 23.1004 32.071 22.3235 32.443 22.6532C32.3937 22.5618 33.76 22.4965 33.7139 23.306C33.9692 23.4144 34.2129 23.5478 34.4415 23.7043C34.6127 23.7043 34.6291 23.7434 34.4876 23.8773C35.146 23.9327 34.7773 24.0796 35.2613 24.3146C35.2975 24.3375 35.7024 24.3375 35.3963 24.2755C35.8506 24.2428 35.5477 24.4126 35.4555 24.5366C35.5708 24.3865 35.8276 24.5007 35.6794 24.6606C35.956 24.4746 35.7749 24.8434 36.0844 24.8696C36.5124 24.7977 36.5189 24.9707 36.8745 25.0262C36.6111 24.8957 37.4671 24.9055 36.9733 25.1242C37.7536 25.2058 38.4318 25.369 38.6392 25.1242C38.6658 25.0935 38.702 25.0726 38.7421 25.0649C38.7821 25.0572 38.8236 25.0631 38.8598 25.0817C38.975 24.7847 39.0475 25.1437 39.2746 25.4081C39.133 25.0817 40.0812 24.8565 40.4928 24.7945C40.3841 24.6704 40.5751 24.06 40.5422 24.3832C40.5264 24.4636 40.527 24.5463 40.5439 24.6265C40.5609 24.7066 40.5939 24.7826 40.6409 24.85C40.6903 24.7749 40.9702 23.9948 41.1084 24.6574C41.0327 24.5268 40.9998 24.7422 40.9109 24.7325C41.1842 24.7651 41.2665 24.628 41.4805 24.5758C41.5002 24.5758 41.5068 24.6378 41.5068 24.6639C41.5068 24.69 41.8361 24.5072 41.7998 24.2918C41.823 24.3767 41.8417 24.4628 41.8558 24.5497C41.892 23.5704 42.2114 24.7063 42.185 24.4452C42.185 24.3473 42.185 24.3408 42.2608 24.4224C42.1916 24.0568 42.2015 24.0502 42.2937 24.4224L42.3233 24.1547C42.2575 24.4419 42.4748 24.3375 42.5274 24.3636C42.5801 24.3897 42.4418 24.0046 42.6427 24.233C42.6427 24.2135 42.534 23.9752 42.5702 23.998C42.6712 24.0719 42.7659 24.1537 42.8534 24.2428C43.1102 24.5692 43.0641 24.0535 43.0937 24.0862C43.3439 24.6606 42.7381 23.9132 43.0279 24.1841C43.0279 24.1841 43.0279 24.0862 43.0279 24.0796C42.9818 23.7793 43.0509 23.8511 43.1793 24.1188C43.1793 24.0698 43.5086 23.7924 43.5876 23.8544C43.5514 23.7663 43.8312 23.7402 43.8082 23.6847C43.9662 23.8675 44.1374 23.0318 44.2065 23.3909C44.2065 23.5051 44.3086 23.1004 44.4864 23.1885C44.5391 23.2342 44.4864 22.9078 44.5917 23.0514C44.5456 22.947 44.6181 22.8849 44.707 22.8686C44.7432 22.8425 44.7794 22.8295 44.7926 22.8686C44.7926 22.7805 44.7926 22.7446 44.7926 22.6173C45.2732 22.5651 45.7803 22.2909 45.642 22.1179C45.4214 21.9122 46.6297 21.8959 46.4651 21.7915C46.1918 21.5499 46.7153 21.7556 46.554 21.4128C46.7647 21.6511 47.2717 20.76 47.3342 21.0864C47.3342 20.4336 48.6512 20.4336 48.21 20.0908C48.8388 20.5739 48.075 19.2911 48.8355 19.9048C48.5722 19.7155 49.3426 19.4772 49.2438 19.4347C49.28 19.4413 49.6883 18.573 49.201 18.1258ZM43.4262 11.059H43.3966C43.367 11.0328 43.3933 11.0459 43.4262 11.059ZM42.2739 8.08858C42.2739 8.11143 42.2739 8.12122 42.2575 8.12449C42.262 8.11213 42.2675 8.10012 42.2739 8.08858ZM42.185 8.20609C42.1389 8.30402 42.1488 8.23873 42.1785 8.20609H42.185ZM42.027 8.04615C42.0303 8.01024 42.027 8.02656 42.027 8.04615V8.04615ZM41.8097 8.22241C41.7702 8.38562 41.7439 8.28443 41.8097 8.22241V8.22241ZM41.52 8.06247C41.52 8.12775 41.4476 8.38888 41.4969 8.18977C41.4179 8.32034 41.4048 8.29749 41.52 8.06247ZM41.3883 7.99719C41.3554 8.09185 41.3652 8.09185 41.4212 7.99719C41.1578 8.55536 41.2928 8.10817 41.385 7.99719H41.3883ZM41.0591 8.0233C40.9636 8.36603 40.9735 8.2779 41.0722 8.0233H41.0591ZM32.8974 14.3884C32.871 14.3623 32.8974 14.3492 32.9402 14.3427C32.983 14.3362 32.9336 14.3786 32.8974 14.3884ZM24.4229 22.5879L24.4032 22.6108L24.4229 22.5879ZM24.4032 22.6075C24.3143 22.7087 24.3604 22.6467 24.3999 22.6075H24.4032ZM24.4032 22.5585L24.3834 22.5781C24.3703 22.5977 24.3999 22.5781 24.3999 22.5585H24.4032ZM24.3472 22.5259C24.3999 22.5226 24.3735 22.5226 24.3571 22.5226L24.3472 22.5259ZM24.6962 20.6555H24.6699C24.6534 20.6327 24.6797 20.6425 24.7061 20.6555H24.6962ZM28.3507 14.3982H28.3178C28.3046 14.3623 28.3243 14.3623 28.3507 14.3982ZM28.8478 11.6987C28.6799 11.9664 28.8478 11.6889 28.8445 11.6987H28.8478ZM28.7227 10.8794C28.7227 10.8598 28.7853 10.8109 28.749 10.8598C28.7128 10.9088 28.703 10.9088 28.7194 10.8794H28.7227ZM28.6799 11.4539C28.6799 11.4539 28.6075 11.6073 28.6206 11.5584C28.5548 11.6334 28.9565 10.8957 28.6799 11.4539ZM28.4363 10.9708C28.4593 10.9447 28.4363 10.9708 28.4363 10.9904C28.4363 11.01 28.4066 10.9937 28.4231 10.9708H28.4363ZM28.3902 11.0459C28.3276 11.0981 28.3507 11.0981 28.377 11.0459H28.3902ZM28.1663 10.8729C28.1663 10.8729 28.14 10.9186 28.1531 10.8729H28.1663ZM27.8371 10.8337C27.847 10.85 27.8338 10.8403 27.8404 10.8337H27.8371ZM27.8371 10.8076C27.8371 10.8076 27.8173 10.7978 27.8239 10.8076H27.8371ZM27.7482 10.7717C27.7482 10.7717 27.7482 10.7913 27.7482 10.7978C27.8074 10.9153 27.735 10.7946 27.7482 10.7717ZM27.7218 10.7195C27.7646 10.8207 27.6922 10.726 27.7218 10.7325V10.7195ZM27.2938 11.0328H27.2741C27.2763 11.0285 27.2785 11.0328 27.2807 11.0459L27.2938 11.0328ZM27.2938 11.0328C27.2708 11.0687 27.2445 11.0328 27.2576 11.0165C27.2708 11.0002 27.1457 10.8664 27.2741 11.0361L27.2938 11.0328ZM26.3753 10.9121C26.4411 11.0133 26.4049 10.9676 26.3753 10.9447C26.3456 10.9219 26.3292 10.8631 26.3753 10.9121ZM25.786 11.4898C25.8781 11.6302 25.7497 11.4931 25.786 11.4898V11.4898ZM25.7662 11.4898C25.7563 11.5551 25.7497 11.5029 25.7662 11.4964V11.4898ZM25.5259 11.4409C25.5884 11.5355 25.6444 11.7248 25.5259 11.4474V11.4409ZM25.5259 18.0214L25.5522 18.054C25.5094 18.054 25.4995 18.0442 25.5127 18.0279L25.5259 18.0214ZM25.2131 18.5632C25.3349 18.733 25.0979 18.7591 25.1999 18.5698L25.2131 18.5632ZM25.0485 18.8896C25.1209 18.9647 25.0123 18.9484 25.0353 18.9027L25.0485 18.8896ZM24.4921 20.3683L24.5579 20.3911C24.525 20.3911 24.525 20.3911 24.5579 20.3911C24.5118 20.3879 24.4789 20.3748 24.4921 20.3683ZM23.1356 8.74794H23.1027C23.083 8.70224 23.1126 8.72509 23.1356 8.74794ZM26.9185 3.47635H26.8922C26.879 3.43391 26.8988 3.4535 26.9185 3.47635ZM25.0583 5.04966C25.0057 4.97459 25.3119 5.33364 25.0583 5.04966C25.1044 5.11168 25.0583 5.06925 25.0583 5.04966ZM24.7291 5.63395C24.7291 5.63395 24.7456 5.64047 24.7489 5.63395H24.7291ZM24.5316 6.00606C24.5974 6.10072 24.5118 6.0387 24.5316 6.00606V6.00606ZM24.5085 6.04196L24.5349 6.09745C24.4987 6.0844 24.4888 6.06481 24.5085 6.04196ZM24.0707 3.28703C24.0147 3.56121 23.7908 3.42086 24.0707 3.28703V3.28703ZM23.8896 3.44044C23.8929 3.41106 23.962 3.46329 23.8731 3.44044H23.8896ZM21.7232 6.29983C21.7153 6.30934 21.7065 6.31808 21.6969 6.32594C21.6936 6.30636 21.7002 6.2933 21.7232 6.29983ZM20.2581 12.1459C20.2976 12.1459 20.5018 12.3875 20.3503 12.2243C20.3898 12.2895 20.2252 12.2047 20.2581 12.1459ZM20.0606 12.4723C20.0738 12.5735 20.031 12.5376 20.0606 12.4854V12.4723ZM19.6227 10.8044C19.6128 10.6673 19.6886 10.8109 19.6227 10.8174V10.8044ZM19.6425 13.1937C19.682 13.086 19.7379 13.1219 19.8071 13.3014C19.7676 13.2851 19.7083 13.2459 19.6425 13.2068V13.1937ZM19.6886 9.67496C19.7235 9.77141 19.7772 9.86013 19.8466 9.93609C19.5766 9.84469 19.5239 9.7533 19.6886 9.68801V9.67496ZM19.5108 10.6542C20.3635 10.3506 19.0005 11.2809 19.5108 10.6542V10.6542ZM18.8622 10.7913C19.1486 11.0328 18.7667 11.1275 18.8622 10.7913V10.7913ZM18.7173 15.5602C18.7667 15.5472 18.747 15.5504 18.7173 15.5602V15.5602ZM18.3881 15.9976C18.3914 16.0498 18.3618 15.9943 18.3782 15.9943L18.3881 15.9976ZM18.3222 15.8507C18.3398 15.8768 18.3233 15.8768 18.2729 15.8507H18.3222ZM18.207 16.3665C18.1708 16.4219 18.1642 16.3926 18.1971 16.3665H18.207ZM17.97 13.1023C17.9239 13.1676 17.9074 13.1284 17.9601 13.1121L17.97 13.1023ZM17.8679 13.2231C17.486 13.6376 17.2753 12.8836 17.858 13.2329L17.8679 13.2231ZM3.26314 35.9056C3.32899 35.8305 3.30923 35.9056 3.26314 35.9056V35.9056ZM3.40142 35.9317C3.37837 35.9056 3.40471 35.9285 3.40142 35.9383V35.9317ZM3.45739 36.046C3.37837 35.8044 3.54957 36.0329 3.45739 36.0525V36.046ZM6.01223 36.5911C5.83115 36.3495 6.05833 36.4899 6.01223 36.5976V36.5911ZM6.58181 35.5923C6.62131 35.5792 6.65424 35.5792 6.58181 35.5988V35.5923ZM7.24027 34.6718C7.27978 34.6293 7.30941 34.7012 7.25015 34.6783L7.24027 34.6718ZM8.11603 28.2512L8.16542 28.2284C8.13578 28.3393 8.13249 28.3002 8.12591 28.2577L8.11603 28.2512ZM8.31686 34.5282C8.23126 34.4368 8.29052 34.4498 8.3432 34.4368C8.39588 34.4237 8.38929 34.5543 8.32674 34.5347L8.31686 34.5282ZM9.02142 32.7133C9.0239 32.6995 9.03059 32.6867 9.0406 32.6768C9.05061 32.6669 9.06345 32.6603 9.07739 32.6578C9.11031 32.697 9.08068 32.7133 9.0313 32.7198L9.02142 32.7133ZM11.9417 27.2654C11.9187 27.2458 12.0207 27.2099 11.9516 27.272L11.9417 27.2654ZM15.6357 23.6618C15.56 23.5606 15.616 23.5867 15.6686 23.5835C15.6686 23.6129 15.6917 23.6912 15.6357 23.6618ZM15.7707 16.5133C15.4415 16.6994 15.6555 16.4187 15.6588 16.4285C15.6588 16.3208 15.8398 16.4122 15.7707 16.5133ZM17.0679 18.9614C16.9033 18.9647 17.0975 18.795 17.0679 18.9614V18.9614ZM16.9461 18.9321C17.0152 18.9321 16.9724 18.9843 16.9461 18.9321V18.9321ZM17.0251 18.8505H16.9987C16.9691 18.8537 16.9954 18.857 17.0251 18.8603V18.8505ZM17.0613 18.8505C17.0613 18.8505 16.8045 18.8635 17.0613 18.8635V18.8505ZM17.0613 18.8505C17.0712 18.8929 16.7716 18.8472 17.0646 18.8733L17.0613 18.8505ZM16.9263 18.9321C16.9592 18.968 16.8275 18.9484 16.9263 18.9321V18.9321ZM16.9263 19.0202C16.9263 19.0431 16.9263 19.0431 16.8572 19.0202H16.9263ZM16.8374 19.1932C16.8539 19.2063 16.7979 19.2128 16.8275 19.203L16.8374 19.1932ZM16.8374 19.1932C16.8967 19.2291 16.8275 19.2226 16.8506 19.2095L16.8374 19.1932ZM16.3831 15.2762C16.4687 15.5308 16.0999 16.0107 16.3962 15.286L16.3831 15.2762ZM16.5181 19.5849H16.5477C16.4818 19.6143 16.1954 19.7579 16.4423 19.6273C16.467 19.6161 16.4923 19.6063 16.5181 19.598V19.5849ZM16.6267 19.6339C16.6135 19.5849 16.2612 19.8134 16.6267 19.6273V19.6339ZM16.4654 19.784C16.2678 19.9113 17.0218 19.4511 16.4654 19.7775V19.784ZM16.7189 19.6665C16.7518 19.7155 16.6267 19.7481 16.5905 19.7514L16.7189 19.6665ZM16.3896 19.895C16.3008 19.9635 16.4818 19.7775 16.3896 19.8362C16.4588 19.784 16.3929 19.8721 16.3765 19.8885L16.3896 19.895ZM16.3995 19.5131C16.3995 19.5131 16.3995 19.5131 16.3666 19.5131H16.3995ZM16.4357 19.5131C16.4522 19.5261 16.1987 19.5457 16.4226 19.5164L16.4357 19.5131ZM16.4357 19.5131C16.4555 19.5131 16.4127 19.5131 16.4061 19.5131C16.3995 19.5131 16.3205 19.5523 16.4325 19.5196L16.4357 19.5131ZM16.3534 19.6665L16.5641 19.5849C16.472 19.7187 16.4028 19.7448 16.36 19.6763L16.3534 19.6665ZM16.3896 19.7938H16.3567C16.3567 19.7938 16.3666 19.7971 16.3962 19.8036L16.3896 19.7938ZM16.416 19.7938C16.416 19.7938 16.4357 19.7938 16.416 19.7938V19.7938ZM16.3403 19.6665C16.3403 19.6665 16.9724 19.4119 16.3567 19.6763L16.3403 19.6665ZM16.495 19.5555C16.512 19.5504 16.5285 19.5439 16.5444 19.5359C16.5137 19.5686 16.4983 19.5751 16.4983 19.5555H16.495ZM16.4489 19.4804C16.4028 19.3988 16.4753 19.376 16.6596 19.4086L16.4489 19.4804ZM16.4489 19.4347C16.4127 19.4347 16.4292 19.4347 16.4687 19.4347C16.5082 19.4347 16.4753 19.425 16.4522 19.4347H16.4489ZM16.4127 19.4347C16.4127 19.4347 16.4983 19.4021 16.416 19.425L16.4127 19.4347ZM16.1888 19.4347C16.2119 19.3891 16.2678 19.4609 16.1921 19.425L16.1888 19.4347ZM16.2415 19.4511L16.281 19.4837C16.225 19.4543 16.2119 19.4445 16.2448 19.4413L16.2415 19.4511ZM16.2942 19.6339C16.4588 19.5718 16.3205 19.6339 16.2612 19.611C16.2876 19.6143 16.3008 19.6143 16.2975 19.6241L16.2942 19.6339ZM16.2942 19.8395C16.2942 19.8395 16.2942 19.8362 16.3073 19.8297L16.2942 19.8395ZM16.6004 19.9081C16.5475 19.9533 16.4821 19.9817 16.4127 19.9897C16.5411 20.0092 16.1263 19.9897 16.4127 19.9897C16.2975 19.9701 16.6596 19.7122 16.4687 19.8591C16.498 19.8374 16.5288 19.8178 16.5609 19.8003C16.3798 19.9635 16.5345 19.8003 16.5839 19.8003C16.4456 19.8983 16.9526 19.6143 16.6465 19.8624C16.765 19.771 16.7485 19.7873 16.6135 19.9113L16.6004 19.9081ZM16.686 19.8264C16.765 19.7579 16.788 19.7579 16.6991 19.8167L16.686 19.8264ZM16.7716 19.4707C16.7716 19.4707 16.3567 19.6534 16.551 19.5555C16.3567 19.6175 16.6563 19.5066 16.7847 19.4576L16.7716 19.4707ZM16.6893 19.3531H16.7222C16.6728 19.3727 16.5971 19.3956 16.5181 19.4184L16.6004 19.3858L16.8144 19.3238C16.7774 19.3321 16.74 19.3386 16.7024 19.3434L16.6893 19.3531ZM16.8407 19.2487C16.8835 19.2324 16.9395 19.2389 16.8539 19.2389L16.8407 19.2487ZM16.867 19.5066C16.8144 19.5359 17.0218 19.4184 16.9526 19.4674C17.0547 19.4282 16.9098 19.5229 16.8802 19.4968L16.867 19.5066ZM16.9033 19.5457C16.8374 19.5686 16.979 19.487 17.0053 19.4674C16.9856 19.5457 16.9461 19.5849 16.9164 19.5359L16.9033 19.5457ZM16.9921 19.4413C16.9921 19.4413 16.9921 19.4413 17.0152 19.4413H16.9921ZM16.9493 19.6241C16.9208 19.5914 16.9472 19.5653 17.0284 19.5457L16.9493 19.6241ZM17.2292 19.2977L17.3115 19.252L17.2753 19.2911C17.2457 19.3434 17.0514 19.3825 17.1798 19.3401C17.2127 19.3205 17.2029 19.3401 17.1798 19.3401C17.3708 19.2226 17.0349 19.4119 17.1798 19.3401L17.2325 19.3107C17.2067 19.327 17.1791 19.3402 17.1502 19.3499L17.2457 19.3009L17.0712 19.3858C17.2226 19.3074 17.0185 19.4054 17.1798 19.327C16.8703 19.4707 16.9493 19.4184 17.0909 19.3531C16.8242 19.4543 17.0909 19.3531 17.137 19.3238C17.0053 19.3727 16.9658 19.3401 17.0317 19.3499C16.9691 19.3499 16.9954 19.3205 17.1107 19.2683C16.8703 19.3564 17.2193 19.2226 17.0284 19.2879L17.1568 19.2258L17.2029 19.1965C17.4103 19.1442 16.8209 19.3074 16.9033 19.2813C16.9856 19.2552 16.9691 19.2552 16.8572 19.2813C17.0119 19.252 17.0349 19.2389 16.9296 19.2422C16.9296 19.2422 16.8144 19.2422 16.9296 19.1932C16.7057 19.3172 17.4794 19.1344 17.0152 19.141C17.2489 19.0985 17.2819 19.0855 17.114 19.0985C16.9461 19.1116 16.9131 19.154 16.9889 19.0985H17.0349C16.9757 19.0954 16.9164 19.0954 16.8572 19.0985C16.9757 19.079 17.1304 19.0235 16.8868 19.0431C16.9493 19.0431 16.9658 19.0431 16.9493 19.0104C16.9329 18.9778 17.0086 18.981 16.9921 18.981H17.0415C17.137 18.9941 17.2391 18.9974 17.2424 19.2846L17.2292 19.2977ZM17.9074 21.2529C17.8745 21.217 17.8152 21.0929 17.9206 21.2398L17.9074 21.2529ZM18.635 20.7959C18.6383 20.7502 18.6811 20.711 18.6482 20.7828L18.635 20.7959ZM19.817 18.9027C19.9091 18.8211 19.9355 18.9321 19.8301 18.8896L19.817 18.9027ZM19.896 16.5068C19.896 16.4709 19.896 16.4709 19.9552 16.484C19.9618 16.4905 19.9421 16.5003 19.9091 16.4938L19.896 16.5068ZM20.2779 16.8332C20.268 16.7973 20.3141 16.8071 20.2911 16.8234L20.2779 16.8332ZM20.3503 16.7745C20.3339 16.6472 20.4063 16.7288 20.3635 16.7647L20.3503 16.7745ZM20.9166 15.2436C20.9824 15.3513 20.9166 15.3187 20.8837 15.3121C20.8508 15.3056 20.8738 15.1979 20.9232 15.2338L20.9166 15.2436ZM20.7158 16.4709C20.7783 16.3697 21.1504 16.0792 20.7224 16.4611L20.7158 16.4709ZM20.9627 16.2457C20.8606 16.1771 20.9034 16.1347 21.0911 16.1216L20.9627 16.2457ZM21.0977 16.1151C21.0845 16.1216 21.1964 16.0139 21.1076 16.1053L21.0977 16.1151ZM21.5125 18.1585C21.4434 18.0605 21.4928 18.0932 21.5323 18.103C21.5718 18.1128 21.5718 18.1878 21.5191 18.1487L21.5125 18.1585ZM22.1183 17.2053C22.1183 17.2053 22.1381 17.1858 22.1677 17.2053C22.1973 17.2249 22.1677 17.2151 22.1249 17.1955L22.1183 17.2053ZM21.6245 21.984C21.6047 21.9612 21.5389 21.9155 21.6014 21.9057C21.7298 21.9318 21.6705 21.9449 21.631 21.9743L21.6245 21.984ZM22.0393 23.6161C21.9603 23.6194 22.0953 23.5019 22.0459 23.6161H22.0393ZM22.1348 23.9425H22.0953C22.1578 23.9197 22.171 23.9262 22.1413 23.9458L22.1348 23.9425ZM23.4122 16.5166C23.4122 16.5166 23.4286 16.5068 23.4122 16.5166V16.5166ZM23.5768 16.3208C23.557 16.3208 23.5603 16.2914 23.5768 16.3208V16.3208ZM23.5274 15.7299C23.4912 15.7365 23.3924 15.6679 23.5274 15.7202V15.7299ZM23.4319 16.0041C23.4912 15.9584 23.3891 16.0433 23.4319 15.9943V16.0041ZM23.4155 16.0433C23.5538 15.9943 23.4122 16.0139 23.4122 16.0335L23.4155 16.0433ZM23.4155 16.0596C23.4122 16.0629 23.4122 16.0531 23.4286 16.0498L23.4155 16.0596ZM23.3957 16.3012L23.3595 16.3305C23.3332 16.3208 23.3891 16.2424 23.4122 16.2816L23.3957 16.3012ZM23.3957 16.3012C23.2838 16.3665 23.3793 16.2261 23.4122 16.2685L23.3957 16.3012ZM23.3957 16.3012C23.2443 16.3501 23.3858 16.2392 23.3924 16.2555L23.3957 16.3012ZM23.3496 16.3012C23.32 16.2783 23.297 16.2685 23.3463 16.2424L23.3496 16.3012ZM23.3068 16.3012C23.3068 16.3012 23.3068 16.3012 23.3266 16.3012C23.3463 16.3012 23.3101 16.2359 23.3035 16.2424L23.3068 16.3012ZM23.3562 16.2489C23.1718 16.2653 23.3694 16.2032 23.3628 16.1902L23.3562 16.2489ZM23.3562 16.2196L23.3134 16.2457C23.3134 16.2457 23.3858 16.2065 23.3496 16.2457C23.2344 16.2489 23.3398 16.1412 23.3496 16.1608L23.3562 16.2196ZM23.2739 16.2392C23.2574 16.213 23.2739 16.1967 23.3398 16.1935L23.2739 16.2392ZM23.3398 16.1837C23.1488 16.2424 23.3266 16.1119 23.3332 16.1249L23.3398 16.1837ZM23.2212 15.9323C23.2476 15.9878 23.2739 16.0074 23.2377 16.027C23.2015 16.0466 23.2114 16.027 23.2377 16.027C23.3167 16.0009 23.3957 16.1053 23.3068 16.1543C23.3727 16.1184 23.3332 16.1543 23.3068 16.1804C23.2805 16.2065 23.1192 15.9584 23.2146 15.8736L23.2212 15.9323ZM23.2212 16.4383C22.9315 15.7854 23.2212 16.3305 23.2212 16.3273C23.2212 16.324 23.264 16.3273 23.2212 16.4122C22.9546 16.5231 23.3496 16.3338 23.2937 16.3762C23.3233 16.3012 23.2937 16.3371 23.2212 16.3795V16.4383ZM23.3661 16.4383C23.3184 16.4695 23.2732 16.5044 23.2311 16.5427C23.2607 16.5035 23.2937 16.3403 23.3002 16.4383C23.3299 16.3403 23.3529 16.3436 23.3661 16.3665V16.4383ZM23.4023 16.4187C23.4122 16.3012 23.4484 16.3208 23.4122 16.3469L23.4023 16.4187ZM23.4188 16.1445C23.4122 16.0564 23.4286 16.0694 23.4122 16.0727L23.4188 16.1445ZM23.4188 16.1706L23.4649 16.1478C23.4451 16.1119 23.4286 16.1184 23.4122 16.0988L23.4188 16.1706ZM23.4188 16.2032C23.4682 16.1151 23.6031 16.1086 23.4418 16.1314L23.4188 16.2032ZM23.4583 16.3142C23.534 16.2098 23.4879 16.2522 23.4813 16.2424L23.4583 16.3142ZM23.4583 16.3403C23.4583 16.3403 23.6097 16.2294 23.4912 16.311C23.6492 16.1706 23.5077 16.262 23.4978 16.2685L23.4583 16.3403ZM23.4616 16.3501C23.5208 16.2653 23.5142 16.2685 23.5011 16.2783L23.4616 16.3501ZM23.4879 16.3893C23.5636 16.2946 23.5307 16.3208 23.5274 16.3208L23.4879 16.3893ZM23.4879 16.3893C23.4879 16.3893 23.557 16.3632 23.5307 16.3208L23.4879 16.3893ZM23.4879 16.4089C23.4879 16.4089 23.5142 16.4089 23.5175 16.4089C23.5208 16.4089 23.5702 16.3762 23.5439 16.3436L23.4879 16.4089ZM23.511 16.4383C23.5834 16.3599 23.5834 16.3893 23.5669 16.373L23.511 16.4383ZM23.5373 16.3175C23.692 16.213 23.6229 16.2783 23.6163 16.262L23.5373 16.3175ZM23.6953 16.2522L23.59 16.3305L23.6229 16.3077C23.5603 16.3534 23.5603 16.3534 23.6229 16.3077C23.4747 16.4056 23.5702 16.3273 23.6229 16.2849L23.5505 16.3469C23.5966 16.3077 23.6492 16.2718 23.7019 16.2326L23.6953 16.2522ZM23.827 16.1575L23.804 16.1739L23.827 16.1575ZM23.8632 25.4081C23.8435 25.3853 23.9027 25.3363 23.9423 25.3526L23.8632 25.4081ZM23.8863 21.7882C24.1958 21.7751 23.9653 21.8306 23.9653 21.7327L23.8863 21.7882ZM23.8863 21.811C23.8863 21.7947 23.8863 21.811 23.9159 21.811H23.8863ZM23.8863 22.1375L23.9455 22.157C23.9631 22.1353 23.9719 22.1124 23.9719 22.0885L23.8863 22.1375ZM24.0279 22.379C23.9192 22.379 23.7974 22.3105 24.0279 22.379H23.9554H24.0279ZM24.2978 22.5194L24.2616 22.539C24.2945 22.5226 24.3077 22.503 24.3999 22.4704L24.2978 22.5194ZM24.2748 22.6434C24.2396 22.6764 24.2022 22.7069 24.1628 22.7348C24.211 22.6674 24.2805 22.618 24.3604 22.5944L24.2748 22.6434ZM24.1595 25.4669C24.255 25.4604 24.3044 25.3885 24.2451 25.4342L24.1595 25.4669ZM24.7884 23.1396C24.7587 23.1396 24.7587 23.1232 24.7884 23.0808C24.8806 23.0612 24.8773 23.0808 24.874 23.1069L24.7884 23.1396ZM24.9267 22.8947C24.9826 22.849 25.0188 22.8001 25.0123 22.849L24.9267 22.8947ZM25.0748 22.8001C25.1637 22.6369 25.1637 22.7217 25.1604 22.7674L25.0748 22.8001ZM25.3843 22.6924C25.4567 22.6271 25.46 22.6434 25.4699 22.6597L25.3843 22.6924ZM26.8757 22.33L26.8955 22.3529C26.9679 22.3562 26.9646 22.33 26.9613 22.2974L26.8757 22.33ZM28.028 25.0426C28.005 24.9218 28.028 24.9707 28.0807 24.9903C28.1564 24.9871 28.1466 25.0621 28.1136 25.0099L28.028 25.0426ZM29.3384 24.171C29.3384 24.171 29.3713 24.1514 29.4009 24.171C29.4306 24.1906 29.3614 24.1971 29.3384 24.171ZM30.2503 21.4585C30.2503 21.4781 30.1187 21.1713 30.1615 21.3051C30.1252 21.1647 30.2174 21.4781 30.2339 21.4585H30.2503ZM30.4479 21.3116C30.4413 21.1288 30.5104 21.2496 30.4314 21.3116H30.4479ZM30.9483 20.9265L30.8858 20.7339C30.9845 20.8187 31.0142 20.8906 30.9319 20.9265H30.9483ZM31.4224 20.6C31.2249 20.0713 31.5969 20.4532 31.406 20.5837L31.4224 20.6ZM31.8142 20.352C31.778 20.3846 31.7517 20.352 31.7418 20.2802C31.643 20.2671 31.7253 20.3781 31.7977 20.3357L31.8142 20.352ZM32.0315 20.241C31.9722 20.2377 32.0315 20.1235 32.015 20.2377L32.0315 20.241ZM32.3015 19.5C32.2422 19.4837 32.2587 19.4935 32.3015 19.5V19.5ZM32.6307 19.0039C32.6603 19.0202 32.6307 19.079 32.6307 19.0039V19.0039ZM32.6702 19.2585C32.4101 19.2193 32.8217 18.8962 32.6801 19.2585H32.6702ZM33.2892 12.9815C33.2892 12.9554 33.2332 12.8901 33.2892 12.9065C33.3781 12.9848 33.3188 12.9717 33.2892 12.9815ZM35.5675 20.3291C35.5543 20.2736 35.6201 20.3422 35.551 20.3291H35.5675ZM35.63 20.1627C35.5938 20.1006 35.6267 20.1365 35.6136 20.1627H35.63ZM36.0975 19.4576C36.0975 19.4576 36.0942 19.6469 36.0811 19.4576H36.0975ZM36.6342 16.6178C36.6342 16.5852 36.6342 16.5884 36.677 16.6178C36.7198 16.6472 36.6441 16.6472 36.6177 16.6178H36.6342ZM37.0161 18.7166C37.0786 18.6611 36.9963 18.6775 37.0062 18.7166H37.0161ZM37.184 18.6481C37.1017 18.5175 37.2005 18.5632 37.1741 18.6481H37.184ZM37.2037 15.7985C37.2037 15.7756 37.1708 15.7071 37.2037 15.7495C37.2795 15.8475 37.24 15.8115 37.1939 15.7985H37.2037ZM37.3256 19.4413C37.2729 19.3956 37.3618 19.3858 37.3157 19.4413H37.3256ZM37.3256 18.462C37.3552 18.4294 37.3717 18.462 37.3749 18.5143L37.3256 18.462ZM37.3256 19.4217C37.3124 19.3825 37.342 19.3988 37.3289 19.4184L37.3256 19.4217ZM37.3486 19.4054C37.3456 19.3892 37.3456 19.3726 37.3486 19.3564C37.3717 19.3695 37.3749 19.3858 37.3519 19.4021L37.3486 19.4054ZM37.3486 18.4261C37.3486 18.4261 37.3684 18.4261 37.3717 18.4261H37.3486ZM37.6778 18.5436C37.7272 18.6057 37.691 18.573 37.6943 18.5469L37.6778 18.5436ZM37.6943 18.1585C37.7634 18.1226 37.7174 18.1683 37.7108 18.1617L37.6943 18.1585ZM37.8326 18.7754C37.5231 18.8472 37.9445 18.4359 37.849 18.7787L37.8326 18.7754ZM37.7305 18.1226C37.7305 18.1226 37.7569 18.1226 37.7602 18.1585L37.7305 18.1226ZM37.7898 18.0769C37.8359 18.0671 37.8984 18.1748 37.8062 18.0867L37.7898 18.0769ZM37.9215 18.2564L37.849 18.1356C37.9676 18.1944 37.9906 18.2368 37.9379 18.2792L37.9215 18.2564ZM37.8655 18.0181C37.8655 18.0181 37.8853 18.0181 37.8918 18.0508C37.8966 18.0441 37.8989 18.036 37.8984 18.0279L37.8655 18.0181ZM38.175 18.5795L38.0466 18.4327C38.0235 18.3935 37.9478 18.6057 38.1914 18.6057L38.175 18.5795ZM38.2244 18.5632C37.9149 18.2303 38.2836 18.5241 38.2277 18.573L38.2244 18.5632ZM38.1026 17.8353C38.1519 17.819 38.1486 17.9137 38.119 17.8451L38.1026 17.8353ZM38.2244 18.4424C38.2803 18.6057 38.0169 18.1748 38.2277 18.4522L38.2244 18.4424ZM38.1421 17.8059L38.1684 17.8451C38.1585 17.8418 38.1552 17.8288 38.1585 17.8157L38.1421 17.8059ZM38.2474 18.6938C38.3198 18.7036 38.2968 18.7003 38.2639 18.7036L38.2474 18.6938ZM38.2474 18.2499C38.1882 18.0997 38.277 18.3772 38.277 18.2597L38.2474 18.2499ZM38.3528 18.2695C38.0729 17.8157 38.4384 17.9887 38.3824 18.2792L38.3528 18.2695ZM38.3725 17.7929L38.3429 17.757C38.254 17.7113 38.3297 17.8353 38.4022 17.8027L38.3725 17.7929ZM38.5371 17.7243C38.5569 17.6754 38.5832 17.7243 38.5569 17.7341L38.5371 17.7243ZM38.5997 18.462C38.5997 18.4359 38.5569 18.2792 38.6293 18.4718L38.5997 18.462ZM38.659 17.7766C38.6721 17.7635 38.6886 17.7798 38.6886 17.7864L38.659 17.7766ZM38.659 15.0934C38.6392 15.051 38.738 15.0673 38.6985 15.1032L38.659 15.0934ZM38.8071 17.4763C38.3725 16.9964 39.0935 17.5938 38.8466 17.4861L38.8071 17.4763ZM38.8993 17.535C38.9421 17.4893 38.975 17.4926 39.0014 17.535C38.8565 16.9736 39.0507 17.584 38.9388 17.5448L38.8993 17.535ZM39.0474 16.9638C38.9783 17.0813 39.1298 17.0617 39.087 16.9736L39.0474 16.9638ZM39.4261 17.3555C38.9454 16.4578 39.38 17.0748 39.4656 17.3653L39.4261 17.3555ZM39.2779 16.8234C39.2981 16.8507 39.3167 16.8791 39.3339 16.9083C39.3438 16.8952 39.1396 16.7418 39.3174 16.8332L39.2779 16.8234ZM39.2351 16.7712C39.2549 16.7484 39.268 16.7712 39.2779 16.8202L39.2351 16.7712ZM39.2944 16.7092C39.4294 16.6178 39.5808 16.9507 39.3339 16.719L39.2944 16.7092ZM39.5182 16.4742C39.5182 16.4546 39.538 16.4742 39.5413 16.5068C39.543 16.4993 39.5441 16.4917 39.5446 16.484L39.5182 16.4742ZM39.6236 16.4742C39.5446 16.3208 39.6895 16.4481 39.6631 16.4676L39.6236 16.4742ZM39.6631 14.0946C39.5973 13.9967 39.7257 14.062 39.7026 14.0881L39.6631 14.0946ZM39.6829 16.3077C39.7421 16.2783 39.7915 16.3208 39.7224 16.3012L39.6829 16.3077ZM39.7224 16.2653C39.7487 16.1967 39.7816 16.1902 39.8244 16.2457C39.7355 16.027 39.9002 16.2914 40.0417 16.5362C40.0154 16.4578 39.8738 16.3567 39.7619 16.2587L39.7224 16.2653ZM39.8409 16.1249C39.8409 16.1021 39.8705 16.1249 39.8837 16.1641L39.8409 16.1249ZM40.4434 15.7299C40.2491 15.3742 40.5323 15.4917 40.4829 15.7234L40.4434 15.7299ZM40.7562 15.3285C40.9372 15.3774 40.9043 15.5504 40.7825 15.3937C40.8286 15.4003 40.6541 14.9629 40.7957 15.3219L40.7562 15.3285ZM40.7595 8.16039C40.7002 8.35624 40.6936 8.22894 40.7595 8.16039V8.16039ZM40.6113 8.13428C40.6113 8.05594 40.7068 7.80787 40.6311 8.07553C40.6673 7.97434 40.6574 8.03309 40.6047 8.24853C40.6047 8.22241 40.6047 8.19304 40.6047 8.16366C40.5685 8.31381 40.5323 8.32034 40.6113 8.14081V8.13428ZM40.1701 10.7456C40.1537 10.4159 40.2031 10.7097 40.1701 10.7391V10.7456ZM40.1701 10.5073C40.1701 10.5302 40.1701 10.5497 40.1701 10.5628C40.1624 10.5547 40.1573 10.5444 40.1555 10.5333C40.1537 10.5222 40.1554 10.5109 40.1603 10.5008L40.1701 10.5073ZM40.1339 10.615C40.1402 10.6375 40.1402 10.6612 40.1339 10.6836C40.1207 10.6575 40.1208 10.6281 40.124 10.6085L40.1339 10.615ZM40.0812 10.6509V10.7684C40.0121 10.5628 40.0154 10.5236 40.0714 10.6444L40.0812 10.6509ZM39.6039 8.39541C39.6039 8.39541 39.5907 8.38888 39.594 8.38888L39.6039 8.39541ZM39.5413 8.39541C39.5051 8.40847 39.5446 8.38888 39.5446 8.39215L39.5413 8.39541ZM39.4294 10.5693C39.4294 10.6052 39.4294 10.5889 39.4063 10.5497C39.3833 10.5106 39.4063 10.54 39.4195 10.5661L39.4294 10.5693ZM39.2779 8.28443C39.2878 8.56188 39.2977 8.33013 39.268 8.26811L39.2779 8.28443ZM39.1265 8.26485C38.8038 8.19956 39.4755 8.65654 39.1166 8.24853L39.1265 8.26485ZM39.1265 10.9284C39.1265 10.9512 39.1265 11.0198 39.1265 10.961C39.0672 10.8305 39.0902 10.8827 39.11 10.9121L39.1265 10.9284ZM39.11 7.723C39.11 7.75564 39.11 7.723 39.11 7.69689V7.723ZM39.054 8.30402C39.0211 8.69571 39.0705 8.23547 39.0376 8.2877L39.054 8.30402ZM39.054 8.43785C39.0178 8.43785 39.0112 8.415 39.031 8.35951L39.054 8.43785ZM38.333 10.6999C38.333 10.7162 38.2935 10.6934 38.3133 10.6836L38.333 10.6999ZM34.8629 15.459C35.1164 15.4623 34.8102 15.632 34.8629 15.459V15.459ZM34.8629 15.5015C34.9024 15.5341 34.8431 15.5243 34.8497 15.5015H34.8629ZM34.6061 16.2555L34.8399 16.3403C34.6291 16.3958 34.5501 16.3665 34.6061 16.2555ZM34.5106 16.6733C34.5765 16.7157 34.4909 16.7353 34.504 16.6733H34.5106ZM34.4744 17.1433C35.3304 17.1825 34.4777 17.3751 34.4678 17.1433H34.4744ZM34.5304 17.4697C34.5304 17.4436 34.6851 17.4501 34.5238 17.4763L34.5304 17.4697ZM34.7444 18.0279C34.4415 17.4077 35.0604 18.041 34.7378 18.0344L34.7444 18.0279ZM34.8234 18.2009C34.9057 18.2466 34.8958 18.3837 34.8168 18.2074L34.8234 18.2009ZM34.9057 18.4098C34.8366 18.2303 34.9518 18.3674 34.8991 18.4163L34.9057 18.4098ZM34.9057 18.1356C34.8695 18.1356 34.8859 18.116 34.9485 18.1356H34.9057ZM35.0901 18.0932C34.8728 18.2107 35.0999 18.116 35.0802 18.0997L35.0901 18.0932ZM35.0703 18.0018C35.0934 17.9822 35.0802 17.992 35.0604 18.0083L35.0703 18.0018ZM35.0703 17.7831C35.0802 17.8059 35.0835 17.8321 35.0539 17.7896L35.0703 17.7831ZM35.0901 17.7243C35.1032 17.7113 35.1263 17.7896 35.0736 17.7309L35.0901 17.7243ZM35.0901 17.7048C34.9913 17.6264 35.1263 17.6852 35.0604 17.7113L35.0901 17.7048ZM35.0637 17.7048C34.9979 17.7505 35.0209 17.7015 35.0341 17.7243L35.0637 17.7048ZM35.1757 18.1487C35.1757 18.1487 35.1757 18.1487 35.1757 18.1258C35.1757 18.103 35.1362 18.1519 35.146 18.1683L35.1757 18.1487ZM35.3633 19.9113C35.3074 19.8885 35.3633 19.9309 35.3337 19.9309L35.3633 19.9113ZM35.4127 17.9855C34.8662 17.4175 35.3996 17.9887 35.3831 18.0051L35.4127 17.9855ZM35.2152 17.4665C35.2152 17.5122 35.2382 17.5579 35.1823 17.5318C35.1263 17.5056 35.1724 17.5089 35.1856 17.4861L35.2152 17.4665ZM35.1823 17.4338C35.179 17.4534 35.1987 17.4632 35.1526 17.4534L35.1823 17.4338ZM35.2316 17.4338C35.2349 17.4371 35.2876 17.5122 35.202 17.4469L35.2316 17.4338ZM35.4588 17.6525C35.3337 17.5709 34.1715 16.3175 34.9913 16.6406C34.9515 16.5023 34.9272 16.36 34.9189 16.2163C34.9189 16.2163 35.3996 15.8475 35.1395 15.7854C35.3008 15.8605 35.3337 15.8213 35.2415 15.6712C35.6465 15.7234 34.8827 15.2991 35.1691 15.3807C34.9485 15.3807 35.7321 14.7442 35.6004 14.7279C35.2415 14.6658 35.7815 14.6006 35.4588 14.4014C35.7485 14.4961 35.7288 13.5821 35.9362 13.8204C35.8506 13.6539 35.8901 13.383 35.8177 13.3863C35.8704 13.4189 36.8745 12.9489 36.3214 12.7335C37.0852 13.0599 35.8901 11.9435 36.8383 12.4625C36.5288 12.3124 37.2005 12.0904 37.1017 12.0415C36.8745 11.8978 37.5429 11.6661 37.5955 11.6791C37.5132 11.6334 37.5165 11.6073 37.5955 11.6073C37.6246 11.634 37.6521 11.6624 37.6778 11.6922C37.6021 11.6041 37.8754 11.6498 37.8293 11.6171C37.7338 11.4898 37.7997 11.6171 37.691 11.4931C38.2869 12.0643 37.7141 11.356 37.8984 11.5649C37.6877 11.4702 38.017 11.6139 37.9972 11.5975C37.9544 11.4866 37.9643 11.3723 38.0367 11.3429C37.9972 11.2189 38.0367 11.2417 38.1289 11.4115C38.1017 11.3266 38.0617 11.2463 38.0104 11.1732L38.063 11.2385C37.905 10.9512 38.2178 11.2874 38.2408 11.3168C38.063 10.9904 38.119 11.0492 38.31 11.2646C38.2606 11.0916 38.2342 11.059 38.2342 11.1634C38.1618 10.837 38.3231 11.2189 38.3791 11.3168C38.2639 11.1079 38.4219 11.3168 38.3429 11.1601L38.3989 11.2515C38.3615 11.1471 38.3747 11.1667 38.4384 11.3103C38.3824 11.1699 38.5865 11.1536 38.5536 11.3103C38.5141 11.0133 38.626 11.578 38.4878 11.1536C38.5602 11.2613 38.4878 11.1014 38.468 11.059C38.5207 11.059 38.4943 11.023 38.5503 11.1471C38.5503 11.0655 38.5503 11.0883 38.5997 11.2124C38.5569 11.0687 38.4812 10.9121 38.5997 11.1079C38.7182 11.3038 38.6655 11.1504 38.626 11.0328C38.705 11.1504 38.6952 10.9643 38.738 11.2548V11.1569C38.873 11.3984 38.8664 11.0851 38.8697 11.0916C39.0046 11.0916 38.8236 10.9708 38.9388 11.1438C38.8433 10.7815 39.0771 11.3788 39.0442 11.3233C38.9355 11.0459 39.087 11.2744 38.9816 10.9969C39.0112 10.9969 39.0079 10.8337 39.0343 10.9969C39.0079 10.8925 39.0606 10.9382 39.0705 10.9447C39.0705 10.899 39.0442 10.8272 39.0409 10.7946C39.0639 10.8337 39.0409 10.8272 39.0606 10.8598V10.788C39.1363 10.9512 39.1791 11.0655 39.268 11.2352C39.1396 11.1177 39.1034 11.0002 39.1594 10.886C39.2022 10.9482 39.2219 11.0231 39.2154 11.0981C39.2154 11.0459 39.2549 10.8631 39.2911 10.9447C39.2647 10.8174 39.2647 10.7978 39.2911 10.886C39.2121 10.7162 39.2252 10.6705 39.3306 10.7456C39.347 10.7815 39.3503 10.8272 39.3668 10.8794C39.3207 10.615 39.3306 10.553 39.3997 10.7227C39.3997 10.7521 39.2812 9.94588 39.3405 10.331V10.2951C39.3653 10.3613 39.3808 10.4305 39.3866 10.5008L39.3569 10.4192C39.3664 10.5063 39.3829 10.5925 39.4063 10.677C39.3866 10.5432 39.4294 10.8141 39.4063 10.6411L39.4491 10.7946C39.4491 10.9317 39.38 9.85449 39.5512 10.6738C39.5084 10.5367 39.5314 10.7391 39.5051 10.7162C39.5196 10.7471 39.5286 10.7802 39.5314 10.8141V10.6803C39.5356 10.7239 39.5515 10.7656 39.5775 10.8011C39.5215 10.5889 39.5775 10.6542 39.5775 10.5824C39.6565 10.9447 39.5775 10.5236 39.6006 10.6216C39.6006 10.3637 39.9298 11.8978 39.7026 10.4681C39.7026 10.491 39.7388 10.6901 39.7454 10.726C39.6499 9.59988 39.9561 11.01 39.8508 10.7064C39.8508 10.6868 39.831 10.5987 39.8211 10.5269C39.8211 10.4061 39.8409 10.4649 39.8607 10.6999C39.8244 10.2886 39.8607 10.5922 39.9035 10.726C39.9035 10.726 39.9035 10.331 39.9397 10.6216C39.9594 10.207 40.0779 11.1895 40.0779 10.6901C40.0779 10.7391 40.0977 10.7325 40.1076 10.664C40.1076 10.6868 40.2228 10.7619 40.1965 10.7521C40.259 10.5269 40.1767 10.8762 40.1965 10.8566C40.3315 10.8141 40.4401 10.8566 40.4533 10.961C40.5916 10.9871 40.5586 11.0133 40.3644 11.0394C40.473 11.072 40.4467 11.0394 40.6343 11.0394L40.5553 11.0622C40.8846 11.0622 40.4039 11.2548 40.4072 11.2515C40.9735 11.3299 40.4302 11.0753 40.4434 11.356C40.4105 11.4768 40.878 11.5714 40.3183 11.4604C40.5553 11.5127 40.2821 11.5127 40.4566 11.5812L40.3545 11.5616C40.4533 11.6269 40.4269 11.6269 40.2821 11.5616C40.4895 11.6628 40.1734 11.702 40.1833 11.7444C40.2524 11.8391 40.5619 11.937 40.1833 11.9501C40.3315 12.0643 40.4236 12.1035 40.2393 12.0904C40.0714 12.0186 40.2722 12.4984 40.0187 12.1557C40.0187 12.394 39.943 12.6714 39.8409 12.6453C40.1471 12.8608 39.4458 12.58 39.6565 12.6062C39.9133 12.7171 39.594 12.8608 39.808 13.0174C39.0475 12.7759 39.6927 13.1545 39.4458 13.1284C39.4722 13.1284 39.6862 13.1937 39.515 13.1545C39.6368 13.2394 39.5413 13.2068 39.4755 13.1872C39.2516 13.0925 39.6895 13.2525 39.3734 13.2296C39.4044 13.3992 39.3665 13.574 39.268 13.716C39.3207 13.8531 39.268 13.8563 39.133 13.716C39.245 14.2643 39.0771 13.8596 38.8697 14.1468C38.8005 14.2121 38.8071 14.297 38.9092 14.2513C38.9717 14.6136 38.7808 14.2905 38.6853 14.1925C38.8532 14.3688 38.6162 14.235 38.7248 14.3916C38.6063 14.359 38.6754 14.4112 38.5799 14.2839C38.6985 14.4961 38.4022 14.3394 38.3725 14.4308C38.3429 14.5222 38.3725 14.8747 38.2342 14.8062C38.096 14.7376 38.0334 15.175 37.9972 14.7768C37.8227 15.273 37.7503 15.2893 37.4046 15.1032C37.462 15.1638 37.4939 15.2437 37.4939 15.3268C37.4939 15.4099 37.462 15.4899 37.4046 15.5504C37.4276 15.6255 37.4046 15.6483 37.3321 15.6679C37.4836 15.9552 37.1906 15.6908 36.9272 15.5733C37.2268 15.7985 36.8712 16.2261 36.6473 16.4219C36.7659 16.4905 36.9338 16.9442 36.8416 16.7745C36.7969 16.6637 36.7322 16.5619 36.6506 16.4742C36.6671 16.5068 36.6506 16.5329 36.5288 16.4122C36.5288 16.3926 36.8218 17.2641 36.351 16.6798C36.4663 16.7745 36.3741 16.5819 36.4333 16.5721C36.4004 16.5721 36.3642 16.5231 36.3576 16.5003C36.3016 16.6733 36.2259 16.7941 36.2424 16.8267C36.3082 17.0421 35.3897 16.1412 36.0844 17.1205C36.0844 17.1205 35.9527 16.9409 35.9329 16.9083C36.5255 17.9985 35.574 16.9801 35.7288 17.0715C35.9329 17.3783 35.9296 17.3979 35.7288 17.0715L35.8276 17.3098C35.7786 17.2283 35.715 17.1563 35.6399 17.0976C36.0811 17.5252 35.3139 17.7048 35.4292 17.6656L35.4588 17.6525ZM34.8859 16.4513C34.9123 16.4513 34.9222 16.4513 34.9222 16.4513H34.8859ZM36.4465 12.9097H36.4202C36.3774 12.8803 36.3971 12.8999 36.4169 12.9228L36.4465 12.9097ZM37.4638 21.9057V21.9383C37.4046 21.9743 37.4177 21.9481 37.4342 21.9188L37.4638 21.9057ZM39.1396 25.0719C39.1594 24.9479 39.1791 25.0066 39.2154 25.0393C39.166 25.0752 39.1298 25.1339 39.11 25.085L39.1396 25.0719ZM40.6772 24.5823C40.6936 24.5823 40.7134 24.5823 40.743 24.5823C40.7726 24.5823 40.6804 24.6313 40.6475 24.5954L40.6772 24.5823ZM42.3233 21.2137C42.4023 21.1125 42.3299 21.217 42.2805 21.217L42.3233 21.2137ZM42.5702 24.282C42.4846 24.2657 42.5274 24.2918 42.5274 24.2951L42.5702 24.282ZM42.5406 24.2657C42.5406 24.2657 42.5077 24.2689 42.5077 24.2787L42.5406 24.2657ZM42.7974 24.0992C42.6525 23.4203 42.8369 24.109 42.7546 24.1123L42.7974 24.0992ZM42.883 24.171C42.8534 24.1253 42.883 24.109 42.883 24.0992C42.883 24.0894 42.8369 24.1547 42.8369 24.1841L42.883 24.171ZM42.883 24.0209L42.86 23.9915C42.8621 23.9957 42.8632 24.0004 42.8631 24.0051C42.8631 24.0099 42.8619 24.0145 42.8596 24.0187C42.8573 24.0228 42.8541 24.0264 42.8502 24.0291C42.8462 24.0317 42.8417 24.0334 42.8369 24.0339L42.883 24.0209ZM42.8435 23.8805L42.7678 23.7663C42.7875 23.8022 42.8402 23.8185 42.8303 23.7663C42.7382 23.4105 42.9093 23.9197 42.8106 23.8936L42.8435 23.8805ZM43.2748 23.4692C43.2781 23.4627 43.3011 23.6226 43.2419 23.4823L43.2748 23.4692ZM43.604 23.7075C43.5645 23.7663 43.5678 23.714 43.5777 23.7206L43.604 23.7075ZM43.6567 23.6422C43.6468 23.6292 43.7291 23.7075 43.6304 23.6553L43.6567 23.6422ZM44.1473 22.9894V23.071C44.0682 22.8099 44.1078 23.0547 44.1209 23.0155L44.1473 22.9894ZM44.2131 23.2799C44.1703 23.2766 44.1901 23.2897 44.1868 23.306L44.2131 23.2799ZM44.2131 23.2603C44.1539 23.2995 44.2098 23.2212 44.1901 23.2864L44.2131 23.2603ZM44.4567 20.3748C44.4139 19.9766 44.7432 20.2965 44.4337 20.4009L44.4567 20.3748ZM44.5983 22.7772V22.7479C44.5786 22.787 44.5851 22.7968 44.5753 22.8033L44.5983 22.7772ZM45.0691 20.13L45.0428 20.0745C44.8123 20.0615 45.0527 20.1561 45.0461 20.1561L45.0691 20.13ZM45.3983 22.0885C45.3703 22.0542 45.348 22.0156 45.3325 21.9743C45.3654 22.0983 45.2864 21.8633 45.3325 21.9743C45.3062 21.9612 45.3951 21.9775 45.3786 22.1113L45.3983 22.0885ZM46.1292 19.2193C46.0634 19.2063 46.0864 19.2161 46.1292 19.2193V19.2193ZM47.0182 20.2965C46.8601 20.2181 47.1169 20.2084 47.0083 20.2965H47.0182ZM47.6997 19.9505C47.6801 19.9146 47.6731 19.8732 47.6799 19.833C47.7699 19.8852 47.7732 19.9244 47.6898 19.9505H47.6997ZM47.7425 18.4979L47.7655 18.5175C47.7392 18.5567 47.7359 18.5273 47.7326 18.4979H47.7425ZM48.1046 19.6208C48.1046 19.5555 48.1277 19.6012 48.1046 19.6208V19.6208ZM48.2363 20.2736H48.21C48.2232 20.2377 48.2363 20.2377 48.2495 20.2769L48.2363 20.2736ZM48.4997 18.6775H48.4701H48.503H48.4997ZM48.7927 18.7689C48.7987 18.7654 48.8056 18.7636 48.8125 18.7636C48.8194 18.7636 48.8262 18.7654 48.8322 18.7689H48.7927ZM48.9409 18.276C48.9409 18.276 48.9606 18.2792 48.9541 18.2792L48.9409 18.276ZM48.9705 18.7525C49.0002 18.7101 48.9771 18.7689 48.9837 18.7558L48.9705 18.7525ZM49.01 18.795C49.01 18.795 49.0298 18.795 49.043 18.8276L49.01 18.795ZM49.1681 18.9614C49.145 18.8896 49.1747 18.9321 49.1812 18.9647L49.1681 18.9614Z" fill="#00B766"/>
</svg>
