<svg width="430" height="401" viewBox="0 0 430 401" fill="none" xmlns="http://www.w3.org/2000/svg">
<path d="M190.203 101.675L186.934 25.0011C186.804 21.9487 190.902 20.8304 192.348 23.5237L233.519 100.198C234.539 102.097 237.21 102.244 238.431 100.469L279.252 41.1299C280.919 38.707 284.724 40.0508 284.497 42.9817L278.896 115.143C278.709 117.548 281.395 119.1 283.39 117.741L343.186 77.014C345.605 75.3664 348.658 77.9585 347.418 80.6071L314.086 151.802C313.319 153.44 314.24 155.37 315.997 155.809L392.488 174.921C395.174 175.592 395.459 179.289 392.908 180.359L324.366 209.118C322.259 210.002 321.976 212.868 323.87 214.148L386.433 256.435C388.886 258.093 387.55 261.933 384.598 261.702C353.671 259.278 307.062 256.069 305.362 257.779C303.73 259.421 327.337 290.911 344.686 313.381C346.586 315.842 343.764 319.173 341.019 317.71L286.052 288.415C283.592 287.104 280.889 289.699 282.107 292.204L297.366 354.177C298.641 356.803 295.643 359.434 293.198 357.835L248.561 320.367C246.932 319.302 244.737 320.122 244.211 321.993L234.883 380.784C234.163 383.346 230.642 383.638 229.506 381.23L197.573 313.557C196.74 311.791 194.434 311.34 193.018 312.686C173.72 331.029 143.763 361.858 130.073 376.008C128.045 378.104 124.656 376.249 125.368 373.422C130.016 354.949 140.244 315.056 148.363 288.766C149.106 286.36 146.624 284.197 144.343 285.271L80.3703 315.391C77.7113 316.643 75.1018 313.579 76.7681 311.161L124.546 239.582C125.738 237.852 124.729 235.471 122.655 235.118L38.6506 220.839C35.903 220.372 35.3542 216.67 37.8491 215.431L108.433 180.394C110.554 179.341 110.563 176.323 108.448 175.255L50.5382 146.018C47.9367 144.705 48.7104 140.808 51.6165 140.587L134.675 134.279C136.59 134.134 137.827 132.193 137.149 130.399L110.82 60.7769C109.832 58.1653 112.776 55.8244 115.106 57.3688L185.734 104.189C187.694 105.489 190.303 104.021 190.203 101.675Z" fill="#0EB669"/>
<path d="M198.98 222.942L194.844 211.04L201.606 208.366L202.215 210.117L197.377 212.03L198.689 215.805L203.527 213.892L204.135 215.643L199.298 217.556L200.905 222.181L198.98 222.942Z" fill="white"/>
<path d="M216.835 207.081C217.154 207.999 217.205 208.895 216.987 209.767C216.781 210.635 216.35 211.366 215.694 211.961L219.339 214.89L217.146 215.757L213.763 213.034L211.872 213.782L213.112 217.353L211.188 218.114L207.051 206.212L211.37 204.504C212.541 204.041 213.637 204.053 214.656 204.539C215.687 205.021 216.413 205.868 216.835 207.081ZM209.585 207.202L211.263 212.031L213.539 211.131C214.175 210.879 214.621 210.445 214.876 209.828C215.139 209.196 215.15 208.534 214.91 207.842C214.669 207.151 214.258 206.662 213.677 206.377C213.102 206.075 212.497 206.05 211.861 206.302L209.585 207.202Z" fill="white"/>
<path d="M224.719 212.762L220.582 200.861L227.345 198.186L227.953 199.938L223.116 201.851L224.286 205.217L229.123 203.304L229.732 205.055L224.895 206.968L226.035 210.25L230.873 208.337L231.481 210.088L224.719 212.762Z" fill="white"/>
<path d="M237.171 207.838L233.035 195.936L239.797 193.261L240.406 195.013L235.568 196.926L236.739 200.292L241.576 198.379L242.185 200.13L237.347 202.044L238.488 205.325L243.325 203.412L243.934 205.163L237.171 207.838Z" fill="white"/>
</svg>
