<svg width="21" height="46" viewBox="0 0 21 46" fill="none" xmlns="http://www.w3.org/2000/svg">
<path d="M11.6886 18.414C14.5486 18.634 16.7266 19.624 18.2226 21.384C19.7626 23.1 20.5326 25.146 20.5326 27.522C20.5326 29.722 19.8286 31.944 18.4206 34.188C17.0566 36.476 14.9666 38.588 12.1506 40.524C9.3346 42.504 5.8586 44.044 1.7226 45.144C1.5466 45.188 1.3926 45.078 1.2606 44.814C1.1726 44.594 1.2166 44.462 1.3926 44.418C6.7606 42.878 10.6106 40.59 12.9426 37.554C15.2746 34.518 16.4406 31.416 16.4406 28.248C16.4406 25.916 15.8466 23.936 14.6586 22.308C13.4706 20.636 11.5786 19.8 8.9826 19.8C7.7506 19.8 6.6286 19.932 5.6166 20.196C5.4846 20.24 5.3746 20.13 5.2866 19.866C5.1986 19.602 5.2426 19.448 5.4186 19.404C8.9386 18.524 11.4026 17.292 12.8106 15.708C14.2626 14.124 14.9886 11.99 14.9886 9.306C14.9886 7.062 14.4826 5.28 13.4706 3.96C12.4586 2.64 10.8966 1.98 8.7846 1.98C6.8486 1.98 5.2206 2.618 3.9006 3.894C2.5806 5.17 1.5466 7.194 0.7986 9.966C0.7546 10.01 0.6666 10.032 0.5346 10.032C0.1386 10.032 -0.0374001 9.944 0.00660002 9.768L2.4486 0.132002C2.5366 0.0440017 2.6246 0 2.7126 0C2.8446 0 2.9766 0.0440017 3.1086 0.132002C3.2406 0.176001 3.2846 0.220001 3.2406 0.264C3.1526 0.616001 3.1086 0.858 3.1086 0.99C3.1086 1.738 3.4826 2.112 4.2306 2.112C4.7146 2.112 5.3746 1.936 6.2106 1.584C7.1346 1.276 7.9486 1.056 8.6526 0.924C9.3566 0.747999 10.1266 0.66 10.9626 0.66C13.3386 0.66 15.2086 1.408 16.5726 2.904C17.9366 4.356 18.6186 6.116 18.6186 8.184C18.6186 10.296 18.0026 12.298 16.7706 14.19C15.5386 16.082 13.8446 17.49 11.6886 18.414Z" fill="#1D1D1D"/>
</svg>
