<svg width="27" height="39" viewBox="0 0 27 39" fill="none" xmlns="http://www.w3.org/2000/svg">
<path d="M25.9569 23.43C26.0449 23.43 26.1109 23.584 26.1549 23.892C26.2429 24.156 26.2869 24.464 26.2869 24.816C26.2869 25.168 26.2429 25.498 26.1549 25.806C26.1109 26.07 26.0449 26.202 25.9569 26.202C24.5049 26.114 22.5469 26.026 20.0829 25.938V36.696C20.0829 37.18 19.9069 37.488 19.5549 37.62L17.4429 38.676C17.1789 38.764 17.0469 38.808 17.0469 38.808C16.9149 38.808 16.8489 38.632 16.8489 38.28V25.872C14.0769 25.784 8.66486 25.74 0.612857 25.74C0.392857 25.74 0.216857 25.652 0.0848571 25.476C-0.0471429 25.3 -0.0251428 25.124 0.150857 24.948L19.0929 0.132C19.1809 0.0439998 19.3129 0 19.4889 0C19.6209 0 19.7529 0.0439998 19.8849 0.132C20.0169 0.176001 20.0829 0.264 20.0829 0.396V23.562C21.1829 23.562 23.1409 23.518 25.9569 23.43ZM3.64886 23.826C7.60886 23.826 12.0089 23.782 16.8489 23.694V5.676L3.31886 23.364C3.18686 23.496 3.14286 23.606 3.18686 23.694C3.27486 23.782 3.42886 23.826 3.64886 23.826Z" fill="#1D1D1D"/>
</svg>
