<svg width="52" height="52" viewBox="0 0 52 52" fill="none" xmlns="http://www.w3.org/2000/svg">
<path fill-rule="evenodd" clip-rule="evenodd" d="M26 52C40.3594 52 52 40.3594 52 26C52 11.6406 40.3594 0 26 0C11.6406 0 0 11.6406 0 26C0 40.3594 11.6406 52 26 52Z" fill="#254741"/>
<path fill-rule="evenodd" clip-rule="evenodd" d="M26.2296 16.8232C29.3295 16.8232 29.6966 16.835 30.9208 16.8909C32.0527 16.9426 32.6674 17.1317 33.0765 17.2906C33.6184 17.5012 34.0051 17.7528 34.4114 18.1591C34.8176 18.5653 35.0692 18.9521 35.2798 19.4939C35.4387 19.9031 35.6279 20.5178 35.6795 21.6496C35.7354 22.8738 35.7472 23.241 35.7472 26.3408C35.7472 29.4407 35.7354 29.8078 35.6795 31.032C35.6279 32.1639 35.4387 32.7786 35.2798 33.1877C35.0692 33.7296 34.8176 34.1164 34.4114 34.5226C34.0051 34.9288 33.6184 35.1804 33.0765 35.391C32.6674 35.55 32.0527 35.7391 30.9208 35.7908C29.6968 35.8466 29.3296 35.8584 26.2296 35.8584C23.1296 35.8584 22.7624 35.8466 21.5384 35.7908C20.4065 35.7391 19.7918 35.55 19.3827 35.391C18.8408 35.1804 18.4541 34.9288 18.0478 34.5226C17.6416 34.1164 17.39 33.7296 17.1794 33.1877C17.0205 32.7786 16.8313 32.1639 16.7797 31.032C16.7238 29.8078 16.712 29.4407 16.712 26.3408C16.712 23.241 16.7238 22.8738 16.7797 21.6497C16.8313 20.5178 17.0205 19.9031 17.1794 19.4939C17.39 18.9521 17.6416 18.5653 18.0478 18.1591C18.4541 17.7528 18.8408 17.5012 19.3827 17.2906C19.7918 17.1317 20.4065 16.9426 21.5384 16.8909C22.7626 16.835 23.1297 16.8232 26.2296 16.8232ZM26.2324 14.7324C23.0795 14.7324 22.6842 14.7458 21.4459 14.8023C20.2102 14.8587 19.3663 15.0549 18.6278 15.3419C17.8644 15.6386 17.2169 16.0356 16.5715 16.681C15.9262 17.3264 15.5292 17.9738 15.2325 18.7372C14.9455 19.4757 14.7493 20.3196 14.6929 21.5553C14.6364 22.7935 14.623 23.1889 14.623 26.3418C14.623 29.4948 14.6364 29.8901 14.6929 31.1283C14.7493 32.3641 14.9455 33.208 15.2325 33.9464C15.5292 34.7098 15.9262 35.3573 16.5715 36.0027C17.2169 36.6481 17.8644 37.0451 18.6278 37.3417C19.3663 37.6287 20.2102 37.825 21.4459 37.8814C22.6842 37.9379 23.0795 37.9512 26.2324 37.9512C29.3853 37.9512 29.7807 37.9379 31.0189 37.8814C32.2546 37.825 33.0985 37.6287 33.837 37.3417C34.6004 37.0451 35.2479 36.6481 35.8933 36.0027C36.5387 35.3573 36.9356 34.7099 37.2323 33.9464C37.5193 33.208 37.7155 32.3641 37.7719 31.1283C37.8284 29.8901 37.8418 29.4948 37.8418 26.3418C37.8418 23.1889 37.8284 22.7935 37.7719 21.5553C37.7155 20.3196 37.5193 19.4757 37.2323 18.7372C36.9356 17.9738 36.5387 17.3264 35.8933 16.681C35.2479 16.0356 34.6004 15.6386 33.837 15.3419C33.0985 15.0549 32.2546 14.8587 31.0189 14.8023C29.7807 14.7458 29.3853 14.7324 26.2324 14.7324ZM26.2558 20.4004C22.9609 20.4004 20.2899 23.0714 20.2899 26.3663C20.2899 29.6612 22.9609 32.3323 26.2558 32.3323C29.5507 32.3323 32.2217 29.6612 32.2217 26.3663C32.2217 23.0714 29.5507 20.4004 26.2558 20.4004ZM26.2547 30.2384C24.116 30.2384 22.3821 28.5046 22.3821 26.3658C22.3821 24.227 24.116 22.4932 26.2547 22.4932C28.3935 22.4932 30.1274 24.227 30.1274 26.3658C30.1274 28.5046 28.3935 30.2384 26.2547 30.2384ZM33.7893 20.1213C33.7893 20.8846 33.1705 21.5034 32.4072 21.5034C31.6439 21.5034 31.0251 20.8846 31.0251 20.1213C31.0251 19.358 31.6439 18.7393 32.4072 18.7393C33.1705 18.7393 33.7893 19.358 33.7893 20.1213Z" fill="white"/>
</svg>
