<svg width="471" height="85" viewBox="0 0 471 85" fill="none" xmlns="http://www.w3.org/2000/svg">
<path d="M0.874521 58.61C6.63452 54.11 11.1045 50.39 14.2845 47.45C17.5245 44.51 19.8945 41.81 21.3945 39.35C22.9545 36.89 23.7345 34.43 23.7345 31.97C23.7345 30.17 23.2245 28.73 22.2045 27.65C21.1845 26.51 19.8045 25.94 18.0645 25.94C13.9245 25.94 10.2645 29.57 7.08452 36.83C6.96452 36.95 6.84452 37.01 6.72452 37.01C6.54452 37.01 6.36452 36.95 6.18452 36.83C6.00452 36.71 5.94452 36.56 6.00452 36.38L11.2245 23.06C11.3445 22.88 11.5245 22.82 11.7645 22.88C12.0645 22.94 12.1845 23.09 12.1245 23.33C11.9445 23.93 11.8545 24.41 11.8545 24.77C11.8545 25.43 12.1545 25.76 12.7545 25.76C13.2945 25.76 14.1945 25.55 15.4545 25.13C17.7945 24.35 19.7745 23.96 21.3945 23.96C23.7345 23.96 25.5645 24.59 26.8845 25.85C28.2645 27.11 28.9545 28.82 28.9545 30.98C28.9545 33.44 28.2345 35.78 26.7945 38C25.3545 40.22 23.2545 42.53 20.4945 44.93C17.7345 47.33 13.4745 50.7201 7.71452 55.1001C7.53452 55.1601 7.47452 55.25 7.53452 55.37C7.59452 55.43 7.71452 55.46 7.89452 55.46C13.7145 55.46 17.8545 55.37 20.3145 55.19C22.7745 54.95 24.5745 54.44 25.7145 53.66C26.9145 52.82 27.8745 51.41 28.5945 49.43C28.7145 49.25 28.8645 49.16 29.0445 49.16C29.2245 49.16 29.3745 49.2201 29.4945 49.34C29.6745 49.46 29.7345 49.58 29.6745 49.7L26.7945 59.0601C26.6745 59.6001 26.4045 59.87 25.9845 59.87H1.32452C1.02452 59.87 0.814522 59.7201 0.694521 59.4201C0.574521 59.1201 0.634521 58.85 0.874521 58.61Z" fill="#1D1D1D"/>
<path d="M49.0498 61.04C44.6698 61.04 41.2198 59.8101 38.6998 57.3501C36.2398 54.8901 35.0098 51.41 35.0098 46.91C35.0098 44.99 35.2198 43.07 35.6398 41.15C36.6598 35.57 38.7898 30.08 42.0298 24.68C45.3298 19.28 49.5298 14.45 54.6298 10.19C59.7298 5.93004 65.3998 2.66004 71.6398 0.380046C71.8798 0.320043 72.0298 0.470043 72.0898 0.830045C72.2098 1.13005 72.1798 1.34004 71.9998 1.46004C66.4198 4.04005 61.4398 7.43005 57.0598 11.63C52.7398 15.77 49.2298 20.27 46.5298 25.13C43.8898 29.99 42.1798 34.79 41.3998 39.53C40.9798 41.4501 40.7698 43.43 40.7698 45.47C40.7698 49.61 41.6998 52.97 43.5598 55.55C45.4798 58.07 48.1798 59.33 51.6598 59.33C53.9398 59.33 55.8598 58.4901 57.4198 56.8101C58.9798 55.07 60.0298 52.6101 60.5698 49.43C60.7498 48.17 60.8398 46.94 60.8398 45.74C60.8398 43.04 60.2698 40.91 59.1298 39.35C58.0498 37.73 56.3998 36.92 54.1798 36.92C52.8598 36.92 51.5398 37.25 50.2198 37.91C48.8998 38.51 47.3698 39.5 45.6298 40.88L45.4498 40.97C45.2698 40.97 45.1198 40.88 44.9998 40.7C44.8798 40.52 44.8498 40.37 44.9098 40.25C48.4498 36.41 52.5598 34.49 57.2398 34.49C60.4198 34.49 62.7898 35.42 64.3498 37.28C65.9098 39.14 66.6898 41.48 66.6898 44.3C66.6898 45.26 66.5998 46.19 66.4198 47.09C65.9998 49.6101 64.9198 51.95 63.1798 54.11C61.4998 56.21 59.3998 57.89 56.8798 59.15C54.4198 60.41 51.8098 61.04 49.0498 61.04Z" fill="#1D1D1D"/>
<path d="M146.547 52.94C146.667 52.82 146.787 52.76 146.907 52.76C147.087 52.76 147.237 52.88 147.357 53.12C147.477 53.3 147.447 53.48 147.267 53.66C145.227 56.0601 143.397 57.83 141.777 58.97C140.217 60.11 138.687 60.68 137.187 60.68C136.107 60.68 135.327 60.3801 134.847 59.7801C134.367 59.1201 134.127 58.1 134.127 56.72C134.127 55.46 134.307 53.84 134.667 51.8601L137.277 37.55C137.577 35.99 137.727 34.37 137.727 32.69C137.727 30.95 137.427 29.66 136.827 28.82C136.287 27.92 135.417 27.47 134.217 27.47C132.357 27.47 130.407 28.7 128.367 31.16C126.387 33.56 124.467 37.1 122.607 41.78C120.807 46.4 119.307 51.8601 118.107 58.16L117.927 59.2401C117.867 59.66 117.597 59.99 117.117 60.23C116.637 60.4701 115.977 60.59 115.137 60.59C114.297 60.59 113.727 60.53 113.427 60.41C113.187 60.35 113.067 60.23 113.067 60.05L113.517 57.98L114.417 53.21L117.387 37.55C117.627 35.93 117.747 34.4 117.747 32.96C117.747 29.3 116.637 27.47 114.417 27.47C112.557 27.47 110.607 28.7 108.567 31.16C106.527 33.62 104.607 37.19 102.807 41.87C101.007 46.55 99.5366 52.0401 98.3966 58.34L98.2166 59.2401C98.0366 60.1401 97.0765 60.59 95.3365 60.59C94.4966 60.59 93.9266 60.53 93.6265 60.41C93.3866 60.35 93.2665 60.23 93.2665 60.05C93.2665 59.99 93.5065 58.76 93.9865 56.36L94.5266 53.66L98.3065 33.14C98.4865 32.24 98.5766 31.43 98.5766 30.71C98.5766 28.79 97.9765 27.83 96.7766 27.83C96.0565 27.83 95.1265 28.19 93.9865 28.91C92.9065 29.63 91.7665 30.65 90.5666 31.97C90.5066 32.03 90.4165 32.06 90.2965 32.06C90.1165 32.06 89.9366 31.97 89.7566 31.79C89.6366 31.55 89.6665 31.37 89.8465 31.25C91.8866 28.91 93.7466 27.17 95.4266 26.03C97.1665 24.89 98.8166 24.32 100.377 24.32C101.397 24.32 102.147 24.65 102.627 25.31C103.107 25.91 103.347 26.9 103.347 28.28C103.347 29.84 103.197 31.4 102.897 32.96L101.097 43.13C103.197 37.13 105.657 32.45 108.477 29.09C111.357 25.67 114.327 23.96 117.387 23.96C119.187 23.96 120.507 24.5 121.347 25.58C122.247 26.6 122.697 28.25 122.697 30.53C122.697 31.97 122.517 33.74 122.157 35.84L120.717 43.76C122.817 37.52 125.307 32.66 128.187 29.18C131.067 25.7 134.067 23.96 137.187 23.96C139.047 23.96 140.427 24.5 141.327 25.58C142.227 26.66 142.677 28.37 142.677 30.71C142.677 32.15 142.497 33.86 142.137 35.84L139.257 51.8601C139.077 52.82 138.987 53.63 138.987 54.29C138.987 56.15 139.527 57.08 140.607 57.08C141.927 57.08 143.907 55.7001 146.547 52.94Z" fill="#1D1D1D"/>
<path d="M173.077 24.5C175.957 24.5 178.147 25.31 179.647 26.93C181.147 28.49 181.897 30.8 181.897 33.86C181.897 34.82 181.807 35.9 181.627 37.1C181.087 41.12 179.737 44.9 177.577 48.44C175.417 51.92 172.807 54.7101 169.747 56.8101C166.687 58.91 163.597 59.96 160.477 59.96C158.317 59.96 156.607 59.87 155.347 59.69L152.467 75.89C152.287 76.91 152.197 77.75 152.197 78.41C152.197 79.4901 152.437 80.27 152.917 80.75C153.457 81.23 154.297 81.47 155.437 81.47C155.797 81.47 156.517 81.41 157.597 81.29H157.687C157.867 81.29 157.987 81.44 158.047 81.7401C158.107 82.0401 158.017 82.2201 157.777 82.2801L142.297 84.62C142.057 84.68 141.907 84.5301 141.847 84.1701C141.787 83.8101 141.877 83.6 142.117 83.54C143.437 83.3 144.427 82.97 145.087 82.55C145.747 82.19 146.257 81.5601 146.617 80.66C146.917 79.8201 147.247 78.44 147.607 76.5201L155.257 33.77L151.207 36.83L151.027 36.92C150.847 36.92 150.667 36.8 150.487 36.56C150.367 36.26 150.367 36.08 150.487 36.02C152.407 34.28 154.117 32.9 155.617 31.88L156.787 25.13C156.787 25.01 157.207 24.59 158.047 23.87C158.887 23.09 159.637 22.28 160.297 21.44C160.957 20.6 161.407 19.64 161.647 18.56C161.647 18.38 161.797 18.29 162.097 18.29C162.217 18.29 162.337 18.35 162.457 18.47C162.637 18.53 162.697 18.62 162.637 18.74L160.927 28.28C165.307 25.76 169.357 24.5 173.077 24.5ZM176.497 40.07C176.677 38.81 176.767 37.58 176.767 36.38C176.767 30.62 174.277 27.74 169.297 27.74C166.597 27.74 163.687 28.61 160.567 30.35L155.977 55.91C158.137 56.93 160.477 57.44 162.997 57.44C166.777 57.44 169.807 55.85 172.087 52.67C174.367 49.49 175.837 45.29 176.497 40.07Z" fill="#1D1D1D"/>
<path d="M212.337 28.01C212.337 29.87 211.347 31.67 209.367 33.41C207.447 35.09 204.837 36.5601 201.537 37.82C198.297 39.08 194.787 40.01 191.007 40.61C190.707 42.53 190.557 44.18 190.557 45.56C190.557 49.28 191.397 52.2801 193.077 54.5601C194.757 56.7801 197.127 57.89 200.187 57.89C203.547 57.89 206.547 56.9001 209.187 54.9201H209.367C209.547 54.9201 209.697 55.01 209.817 55.19C209.997 55.37 209.997 55.55 209.817 55.73C205.617 59.21 201.237 60.9501 196.677 60.9501C192.897 60.9501 190.017 59.7501 188.037 57.3501C186.117 54.8901 185.157 51.74 185.157 47.9C185.157 46.58 185.307 45.02 185.607 43.22C186.147 40.16 187.407 37.16 189.387 34.22C191.367 31.22 193.827 28.76 196.767 26.84C199.767 24.92 202.887 23.96 206.127 23.96C208.107 23.96 209.637 24.32 210.717 25.04C211.797 25.76 212.337 26.75 212.337 28.01ZM202.167 26.39C199.407 26.39 197.067 27.62 195.147 30.08C193.287 32.48 191.997 35.57 191.277 39.35C195.477 38.63 198.867 37.55 201.447 36.1101C204.087 34.67 205.677 32.87 206.217 30.71C206.337 30.11 206.397 29.69 206.397 29.45C206.397 28.43 205.977 27.68 205.137 27.2C204.297 26.66 203.307 26.39 202.167 26.39Z" fill="#1D1D1D"/>
<path d="M252.187 52.94C252.307 52.82 252.427 52.76 252.547 52.76C252.727 52.76 252.877 52.88 252.997 53.12C253.117 53.3 253.087 53.48 252.907 53.66C250.867 56.0601 249.007 57.83 247.327 58.97C245.647 60.05 244.027 60.59 242.467 60.59C241.387 60.59 240.607 60.29 240.127 59.69C239.647 59.09 239.407 58.1 239.407 56.72C239.407 55.46 239.587 53.9 239.947 52.04L241.477 43.4H225.367L222.577 59.2401C222.457 59.66 222.127 59.99 221.587 60.23C221.107 60.4701 220.447 60.59 219.607 60.59C218.767 60.59 218.197 60.53 217.897 60.41C217.657 60.35 217.537 60.23 217.537 60.05L217.897 57.98C218.257 56.5401 218.587 54.95 218.887 53.21L222.577 33.14C222.757 32.24 222.847 31.43 222.847 30.71C222.847 28.79 222.247 27.83 221.047 27.83C220.327 27.83 219.397 28.19 218.257 28.91C217.177 29.63 216.037 30.65 214.837 31.97C214.777 32.03 214.687 32.06 214.567 32.06C214.387 32.06 214.207 31.97 214.027 31.79C213.907 31.55 213.937 31.37 214.117 31.25C216.157 28.91 218.017 27.17 219.697 26.03C221.437 24.89 223.087 24.32 224.647 24.32C225.667 24.32 226.417 24.65 226.897 25.31C227.377 25.91 227.617 26.9 227.617 28.28C227.617 29.84 227.467 31.4 227.167 32.96L225.637 41.6H241.837L244.627 25.67C244.687 25.31 244.957 25.01 245.437 24.77C245.917 24.47 246.577 24.32 247.417 24.32C248.797 24.32 249.487 24.53 249.487 24.95C249.427 25.31 249.247 26.21 248.947 27.65C248.647 29.09 248.377 30.44 248.137 31.7L244.447 51.7701C244.327 52.9701 244.267 53.75 244.267 54.11C244.267 56.09 244.867 57.08 246.067 57.08C246.727 57.08 247.597 56.72 248.677 56C249.817 55.28 250.987 54.26 252.187 52.94Z" fill="#1D1D1D"/>
<path d="M292.392 53.03C292.452 52.97 292.542 52.94 292.662 52.94C292.842 52.94 292.992 53.06 293.112 53.3C293.232 53.48 293.232 53.63 293.112 53.75C291.012 56.15 289.122 57.9201 287.442 59.0601C285.762 60.1401 284.142 60.68 282.582 60.68C281.562 60.68 280.812 60.3801 280.332 59.7801C279.852 59.1201 279.612 58.1 279.612 56.72C279.612 55.16 279.762 53.6 280.062 52.04L281.952 41.15C279.792 47.39 277.242 52.28 274.302 55.82C271.362 59.3 268.272 61.04 265.032 61.04C261.072 61.04 259.092 58.82 259.092 54.3801C259.092 52.7601 259.302 51.0201 259.722 49.16L262.962 33.14C263.142 32.12 263.232 31.31 263.232 30.71C263.232 28.85 262.662 27.92 261.522 27.92C260.322 27.92 258.342 29.3 255.582 32.06C255.462 32.18 255.342 32.24 255.222 32.24C255.042 32.24 254.892 32.15 254.772 31.97C254.652 31.73 254.682 31.52 254.862 31.34C256.962 28.94 258.792 27.17 260.352 26.03C261.972 24.89 263.532 24.32 265.032 24.32C267.132 24.32 268.182 25.7 268.182 28.46C268.182 29.36 267.972 30.92 267.552 33.14L264.672 47.45C264.252 49.73 264.042 51.38 264.042 52.4C264.042 55.82 265.332 57.5301 267.912 57.5301C269.892 57.5301 271.932 56.27 274.032 53.75C276.192 51.23 278.202 47.57 280.062 42.77C281.982 37.97 283.512 32.3 284.652 25.76C284.832 24.86 285.792 24.41 287.532 24.41C288.972 24.41 289.692 24.59 289.692 24.95L289.332 27.02C288.972 28.46 288.642 30.05 288.342 31.79L284.652 51.8601C284.472 52.7601 284.382 53.57 284.382 54.29C284.382 56.21 284.982 57.1701 286.182 57.1701C286.842 57.1701 287.712 56.8101 288.792 56.09C289.932 55.37 291.132 54.35 292.392 53.03Z" fill="#1D1D1D"/>
<path d="M319.288 24.5C322.168 24.5 324.358 25.31 325.858 26.93C327.358 28.49 328.108 30.8 328.108 33.86C328.108 34.82 328.018 35.9 327.838 37.1C327.298 41.12 325.948 44.9 323.788 48.44C321.628 51.92 319.018 54.7101 315.958 56.8101C312.898 58.91 309.808 59.96 306.688 59.96C304.528 59.96 302.818 59.87 301.558 59.69L298.678 75.89C298.498 76.91 298.408 77.75 298.408 78.41C298.408 79.4901 298.648 80.27 299.128 80.75C299.668 81.23 300.508 81.47 301.648 81.47C302.008 81.47 302.728 81.41 303.808 81.29H303.898C304.078 81.29 304.198 81.44 304.258 81.7401C304.318 82.0401 304.228 82.2201 303.988 82.2801L288.508 84.62C288.268 84.68 288.118 84.5301 288.058 84.1701C287.998 83.8101 288.088 83.6 288.328 83.54C289.648 83.3 290.638 82.97 291.298 82.55C291.958 82.19 292.468 81.5601 292.828 80.66C293.128 79.8201 293.458 78.44 293.818 76.5201L301.468 33.77L297.418 36.83L297.238 36.92C297.058 36.92 296.878 36.8 296.698 36.56C296.578 36.26 296.578 36.08 296.698 36.02C298.618 34.28 300.328 32.9 301.828 31.88L302.998 25.13C302.998 25.01 303.418 24.59 304.258 23.87C305.098 23.09 305.848 22.28 306.508 21.44C307.168 20.6 307.618 19.64 307.858 18.56C307.858 18.38 308.008 18.29 308.308 18.29C308.428 18.29 308.548 18.35 308.668 18.47C308.848 18.53 308.908 18.62 308.848 18.74L307.138 28.28C311.518 25.76 315.568 24.5 319.288 24.5ZM322.708 40.07C322.888 38.81 322.978 37.58 322.978 36.38C322.978 30.62 320.488 27.74 315.508 27.74C312.808 27.74 309.898 28.61 306.778 30.35L302.188 55.91C304.348 56.93 306.688 57.44 309.208 57.44C312.988 57.44 316.018 55.85 318.298 52.67C320.578 49.49 322.048 45.29 322.708 40.07Z" fill="#1D1D1D"/>
<path d="M342.799 61.1301C339.259 61.1301 336.469 59.8701 334.429 57.3501C332.449 54.8301 331.459 51.53 331.459 47.45C331.459 45.59 331.609 43.94 331.909 42.5C332.569 39.0201 333.829 35.87 335.689 33.05C337.549 30.23 339.799 28.01 342.439 26.39C345.079 24.77 347.869 23.96 350.809 23.96C354.529 23.96 357.409 25.22 359.449 27.74C361.489 30.2 362.509 33.41 362.509 37.37C362.509 39.05 362.329 40.76 361.969 42.5C361.249 46.16 359.899 49.43 357.919 52.31C355.939 55.13 353.599 57.32 350.899 58.8801C348.259 60.3801 345.559 61.1301 342.799 61.1301ZM345.949 58.8801C348.469 58.8801 350.749 57.7701 352.789 55.55C354.829 53.33 356.209 50.3 356.929 46.46C357.229 44.54 357.379 42.8 357.379 41.24C357.379 37.1 356.569 33.56 354.949 30.62C353.389 27.62 351.139 26.12 348.199 26.12C345.619 26.12 343.309 27.26 341.269 29.54C339.229 31.76 337.819 34.79 337.039 38.63C336.679 40.43 336.499 42.26 336.499 44.12C336.499 48.14 337.339 51.6201 339.019 54.5601C340.699 57.4401 343.009 58.8801 345.949 58.8801Z" fill="#1D1D1D"/>
<path d="M395.848 30.17C395.848 32.03 395.008 33.89 393.328 35.75C391.708 37.6101 389.518 39.08 386.758 40.16C389.278 40.4 391.258 41.24 392.698 42.68C394.198 44.12 394.948 45.89 394.948 47.99C394.948 48.29 394.888 48.86 394.768 49.7C394.468 51.5 393.658 53.3001 392.338 55.1001C391.078 56.8401 389.338 58.2801 387.118 59.4201C384.898 60.5601 382.318 61.1301 379.378 61.1301C375.118 61.1301 371.878 59.8701 369.658 57.3501C367.498 54.8301 366.418 51.59 366.418 47.63C366.418 45.83 366.568 44.27 366.868 42.95C367.468 39.71 368.668 36.65 370.468 33.77C372.328 30.83 374.668 28.46 377.488 26.66C380.368 24.86 383.548 23.96 387.028 23.96C389.848 23.96 392.008 24.56 393.508 25.76C395.068 26.9 395.848 28.37 395.848 30.17ZM390.628 32.51C390.688 32.21 390.718 31.82 390.718 31.34C390.718 29.42 390.148 27.98 389.008 27.02C387.928 26 386.518 25.49 384.778 25.49C381.718 25.49 379.018 26.9 376.678 29.72C374.398 32.54 372.838 36.1101 371.998 40.43C371.638 42.2901 371.458 44.12 371.458 45.92C371.458 49.88 372.298 53.15 373.978 55.73C375.718 58.25 378.238 59.51 381.538 59.51C384.298 59.51 386.428 58.64 387.928 56.9C389.428 55.1 390.178 52.97 390.178 50.51C390.178 48.29 389.458 46.46 388.018 45.02C386.638 43.52 384.538 42.77 381.718 42.77C380.758 42.77 379.228 42.92 377.128 43.22H377.038C376.678 43.22 376.438 43.04 376.318 42.68C376.198 42.26 376.348 42.0201 376.768 41.96C380.248 41.06 382.888 40.25 384.688 39.53C386.488 38.81 387.868 37.91 388.828 36.83C389.788 35.75 390.388 34.31 390.628 32.51Z" fill="#1D1D1D"/>
<path d="M411.993 61.1301C408.453 61.1301 405.663 59.8701 403.623 57.3501C401.643 54.8301 400.653 51.53 400.653 47.45C400.653 45.59 400.803 43.94 401.103 42.5C401.763 39.0201 403.023 35.87 404.883 33.05C406.743 30.23 408.993 28.01 411.633 26.39C414.273 24.77 417.063 23.96 420.003 23.96C423.723 23.96 426.603 25.22 428.643 27.74C430.683 30.2 431.703 33.41 431.703 37.37C431.703 39.05 431.523 40.76 431.163 42.5C430.443 46.16 429.093 49.43 427.113 52.31C425.133 55.13 422.793 57.32 420.093 58.8801C417.453 60.3801 414.753 61.1301 411.993 61.1301ZM415.143 58.8801C417.663 58.8801 419.943 57.7701 421.983 55.55C424.023 53.33 425.403 50.3 426.123 46.46C426.423 44.54 426.573 42.8 426.573 41.24C426.573 37.1 425.763 33.56 424.143 30.62C422.583 27.62 420.333 26.12 417.393 26.12C414.813 26.12 412.503 27.26 410.463 29.54C408.423 31.76 407.013 34.79 406.233 38.63C405.873 40.43 405.693 42.26 405.693 44.12C405.693 48.14 406.533 51.6201 408.213 54.5601C409.893 57.4401 412.203 58.8801 415.143 58.8801Z" fill="#1D1D1D"/>
<path d="M469.812 53.57C469.872 53.51 469.962 53.48 470.082 53.48C470.322 53.48 470.503 53.6 470.622 53.84C470.742 54.0201 470.712 54.17 470.533 54.29C468.552 56.63 466.932 58.31 465.672 59.33C464.472 60.35 463.152 60.86 461.712 60.86C460.392 60.86 459.432 60.4401 458.832 59.6001C458.232 58.7601 457.842 57.59 457.662 56.09C457.542 54.53 457.482 52.25 457.482 49.25C457.482 46.73 457.152 44.78 456.492 43.4C455.892 42.02 454.633 41.33 452.712 41.33C451.932 41.33 451.092 41.45 450.192 41.69C446.712 47.51 444.312 53.3601 442.992 59.2401C442.872 59.66 442.542 59.99 442.002 60.23C441.522 60.4701 440.862 60.59 440.022 60.59C439.182 60.59 438.612 60.53 438.312 60.41C438.073 60.35 437.952 60.23 437.952 60.05L438.312 57.98C438.672 56.5401 439.003 54.95 439.302 53.21L442.992 33.14C443.172 32.24 443.262 31.43 443.262 30.71C443.262 28.79 442.663 27.83 441.462 27.83C440.742 27.83 439.812 28.19 438.672 28.91C437.592 29.63 436.452 30.65 435.252 31.97C435.192 32.03 435.102 32.06 434.982 32.06C434.802 32.06 434.622 31.97 434.442 31.79C434.322 31.55 434.353 31.37 434.533 31.25C436.573 28.91 438.432 27.17 440.112 26.03C441.852 24.89 443.503 24.32 445.062 24.32C446.082 24.32 446.832 24.65 447.312 25.31C447.793 25.91 448.033 26.9 448.033 28.28C448.033 29.84 447.882 31.4 447.582 32.96L444.882 48.35C446.682 43.97 448.932 39.95 451.632 36.29C454.392 32.57 457.152 29.63 459.912 27.47C462.672 25.31 465.012 24.23 466.932 24.23C468.012 24.23 468.852 24.5 469.452 25.04C470.052 25.58 470.352 26.3 470.352 27.2C470.352 28.1 470.052 28.85 469.452 29.45C468.912 29.99 468.162 30.26 467.202 30.26C466.542 30.26 465.792 30.02 464.952 29.54C464.232 29.12 463.603 28.91 463.062 28.91C461.622 28.91 459.792 29.96 457.572 32.06C455.412 34.16 453.253 36.89 451.092 40.25C452.533 39.77 454.003 39.53 455.503 39.53C458.022 39.53 459.762 40.37 460.722 42.05C461.682 43.73 462.162 46.01 462.162 48.89C462.162 52.1301 462.283 54.32 462.522 55.46C462.762 56.54 463.332 57.08 464.232 57.08C465.432 57.08 467.293 55.91 469.812 53.57Z" fill="#1D1D1D"/>
</svg>
