<svg width="107" height="117" viewBox="0 0 107 117" fill="none" xmlns="http://www.w3.org/2000/svg">
<path d="M103.021 51.3249C111.556 53.2679 105.267 78.0045 94.4858 90.4101C91.7156 92.951 86.9838 102.992 78.5385 101.975C67.9818 100.705 59.7618 93.4756 57.2755 100.057C55.1018 105.811 33.3171 112.681 17.5944 116.342C1.87174 120.004 0 107.748 0 95.0436C0 82.339 13.9821 78.7967 24.988 85.6721C35.9939 92.5476 44.7722 95.1183 49.9382 88.2429C55.1042 81.3675 41.1036 81.3674 33.3171 71.8764C25.5306 62.3853 17.8939 58.4245 9.28387 49.9049C0.673828 41.3854 1.4974 31.2965 9.28387 27.1861C17.0703 23.0758 21.5625 29.1292 29.1244 38.9192C36.6862 48.7092 48.4485 63.6059 62.1497 73.8443C64.0963 65.9973 52.8581 41.3107 49.9382 27.1861C47.0183 13.0616 51.6602 1.25385 57.2755 0.282324C62.8907 -0.689203 70.0033 -0.166073 78.5385 18.8908C87.0737 37.9477 74.6453 73.5952 81.7579 75.5383C88.8705 77.4813 94.4858 49.3818 103.021 51.3249Z" fill="#0EB669"/>
</svg>
