<svg width="91" height="103" viewBox="0 0 91 103" fill="none" xmlns="http://www.w3.org/2000/svg">
<path fill-rule="evenodd" clip-rule="evenodd" d="M60.3956 27.8348C72.2728 19.3144 87.5434 21.8705 85.8467 32.9471C84.6537 40.7353 78.8471 42.2051 72.2605 43.8723C69.4796 44.5762 66.5595 45.3153 63.7891 46.5801C66.6624 48.0229 70.1315 49.1666 73.6078 50.3127C84.5015 53.9041 95.4663 57.5189 88.3918 70.4374C79.0597 87.4783 73.1211 95.9987 63.7891 80.6619C54.457 65.3251 50.2151 61.9169 51.0635 72.9935C51.1344 73.9189 51.223 74.9216 51.3166 75.9798C52.3427 87.5873 53.9587 105.867 39.1863 101.963C29.6569 99.4445 32.2843 90.6723 34.6229 82.8645C36.24 77.4653 37.719 72.5273 34.9444 70.4374C31.9588 68.1884 27.1672 71.8755 22.0141 75.8407C15.4533 80.8892 8.3066 86.3886 3.55496 80.6619C-1.84462 74.1543 6.50238 67.6468 13.7223 62.0179C17.8462 58.8028 21.6023 55.8744 22.2191 53.3964C22.8225 50.9723 19.0268 49.9491 14.4569 48.7172C6.17665 46.4851 -4.64506 43.5679 3.55496 30.3912C12.4998 16.0176 21.0254 24.3758 26.4803 29.7235C28.786 31.9839 30.543 33.7065 31.5512 32.9471C32.6523 32.1177 33.3961 28.5969 34.3334 24.1604C36.2846 14.9247 39.0741 1.72084 47.6702 0.569705C57.8505 -0.793569 60.3956 18.1784 60.3956 27.8348ZM37.895 44.8614C48.4238 34.4158 55.443 45.3156 51.5434 50.7655C47.6439 56.2154 29.316 62.5735 37.895 44.8614Z" fill="#0EB669"/>
</svg>
