<svg width="113" height="101" viewBox="0 0 113 101" fill="none" xmlns="http://www.w3.org/2000/svg">
<path d="M112.226 83.9038C114.267 76.1404 102.862 74.2898 96.3418 74.211C91.8421 74.1565 90.2756 79.638 83.7277 83.5591C77.1798 87.4802 71.5774 95.9131 77.0408 98.9794C82.5041 102.046 90.5277 100.143 98.5392 99.2394C106.551 98.3362 110.129 91.879 112.226 83.9038Z" fill="#0EB669"/>
<path d="M77.8418 52.0784C84.8418 59.5784 85.3305 63.9453 96.3418 63.0784C103.384 59.6633 103.644 52.6594 100.945 44.2262C97.5726 33.6846 94.1636 26.1428 83.6099 30.5155C73.0563 34.8882 69.5973 43.245 77.8418 52.0784Z" fill="#0EB669"/>
<path d="M37.3842 71.998C36.2633 81.9852 46.4742 84.2942 63.5334 79.5001C82.1047 73.7242 70.9845 63.9039 63.5334 59.8134C56.0823 55.723 38.5051 62.0108 37.3842 71.998Z" fill="#0EB669"/>
<path d="M22.6315 65.2347C34.1004 67.8736 36.5676 63.3678 40.1944 52.9109C37.7852 45.3812 35.9088 42.3936 26.9094 42.2848C17.9101 42.1759 10.3743 45.085 9.78965 52.0784C9.20503 59.0719 11.1626 62.5958 22.6315 65.2347Z" fill="#0EB669"/>
<path d="M27.0246 32.7855C39.5418 31.4368 29.2422 14.811 20.8576 5.20886C9.51563 -7.92927 0.328949 7.46075 0.701923 17.966C1.0749 28.4713 14.5074 34.1342 27.0246 32.7855Z" fill="#0EB669"/>
<path d="M65.6944 35.5001C63.0917 43.9693 51.2047 45.5788 43.3564 32.983C37.5081 20.4114 43.6044 12.4845 53.0855 14.0993C62.5667 15.7141 68.297 27.031 65.6944 35.5001Z" fill="#0EB669"/>
</svg>
