<svg width="360" height="68" viewBox="0 0 360 68" fill="none" xmlns="http://www.w3.org/2000/svg">
<path d="M0.468154 66.1749C0.228154 66.1749 0.108154 65.9949 0.108154 65.6349C0.108154 65.2749 0.228154 65.0949 0.468154 65.0949C2.68815 65.0949 4.36815 64.9449 5.50815 64.6449C6.64815 64.3449 7.48815 63.7749 8.02815 62.9349C8.56816 62.0349 9.01816 60.6849 9.37815 58.8849L12.4382 41.8749C12.7982 39.5949 12.9782 38.2449 12.9782 37.8249C12.9782 37.1649 12.8582 36.6849 12.6182 36.3849C12.4382 36.0849 12.1082 35.9349 11.6282 35.9349C11.0882 35.9349 10.2482 36.1449 9.10816 36.5649C7.96815 36.9849 6.67815 37.5249 5.23815 38.1849L5.05815 38.2749C4.81815 38.2749 4.66815 38.1249 4.60815 37.8249C4.54815 37.5249 4.63815 37.3149 4.87815 37.1949L18.4682 30.5349C18.6482 30.4149 18.8282 30.4149 19.0082 30.5349C19.1882 30.6549 19.2182 30.7749 19.0982 30.8949L14.0582 58.8849C13.8782 59.9649 13.7882 60.8649 13.7882 61.5849C13.7882 63.0249 14.2682 63.9849 15.2282 64.4649C16.2482 64.8849 18.1682 65.0949 20.9882 65.0949C21.1682 65.0949 21.2582 65.2749 21.2582 65.6349C21.2582 65.9949 21.1682 66.1749 20.9882 66.1749C19.1882 66.1749 17.7782 66.1449 16.7582 66.0849L10.8182 65.9949L4.78815 66.0849C3.76815 66.1449 2.32815 66.1749 0.468154 66.1749Z" fill="#1D1D1D"/>
<path d="M79.5233 59.3349C79.5833 59.2749 79.6733 59.2449 79.7933 59.2449C79.9733 59.2449 80.1233 59.3649 80.2433 59.6049C80.3633 59.7849 80.3633 59.9349 80.2433 60.0549C76.2233 64.6749 72.7433 66.9849 69.8033 66.9849C68.7233 66.9849 67.9433 66.6849 67.4633 66.0849C66.9833 65.4249 66.7433 64.3749 66.7433 62.9349C66.7433 61.4349 66.8933 59.9049 67.1933 58.3449L70.1633 41.5149C68.3633 45.7149 66.2333 49.0149 63.7733 51.4149C61.3733 53.7549 58.9133 54.9249 56.3933 54.9249C52.8533 54.9249 51.0833 52.6749 51.0833 48.1749C51.0833 46.5549 51.2933 44.7849 51.7133 42.8649L52.3433 39.4449C52.5233 38.4249 52.6133 37.6149 52.6133 37.0149C52.6133 35.1549 52.0433 34.2249 50.9033 34.2249C49.8233 34.2249 48.1433 35.2749 45.8633 37.3749C45.7433 37.4949 45.6533 37.5549 45.5933 37.5549C45.4133 37.5549 45.2633 37.4649 45.1433 37.2849C45.0233 37.0449 45.0233 36.8349 45.1433 36.6549C48.6233 32.6349 51.6533 30.6249 54.2333 30.6249C55.3133 30.6249 56.1233 30.9249 56.6633 31.5249C57.2033 32.1249 57.4733 33.1449 57.4733 34.5849C57.4733 35.9649 57.2633 37.5849 56.8433 39.4449L56.5733 41.2449C56.1533 43.1649 55.9433 44.9049 55.9433 46.4649C55.9433 49.7049 57.1133 51.3249 59.4533 51.3249C61.9133 51.3249 64.2533 49.5849 66.4733 46.1049C68.6933 42.6249 70.4633 37.9449 71.7833 32.0649C72.0833 31.1649 73.0733 30.7149 74.7533 30.7149C76.1333 30.7149 76.8233 30.8949 76.8233 31.2549L76.4633 33.3249C76.1033 34.7649 75.7733 36.3549 75.4733 38.0949L71.7833 58.1649C71.6033 59.0649 71.5133 59.8749 71.5133 60.5949C71.5133 62.5149 72.1133 63.4749 73.3133 63.4749C74.0333 63.4749 74.9333 63.1149 76.0133 62.3949C77.1533 61.6749 78.3233 60.6549 79.5233 59.3349Z" fill="#1D1D1D"/>
<path d="M117.31 59.2449C117.37 59.1849 117.46 59.1549 117.58 59.1549C117.76 59.1549 117.91 59.2749 118.03 59.5149C118.15 59.6949 118.15 59.8449 118.03 59.9649C115.99 62.3049 114.16 64.0749 112.54 65.2749C110.98 66.4149 109.45 66.9849 107.95 66.9849C106.93 66.9849 106.15 66.6849 105.61 66.0849C105.13 65.4249 104.89 64.3749 104.89 62.9349C104.89 61.7349 105.07 60.1449 105.43 58.1649L107.05 48.8049C104.29 54.3849 101.17 58.8849 97.6899 62.3049C94.27 65.6649 90.9699 67.3449 87.7899 67.3449C84.0699 67.3449 82.2099 65.1249 82.2099 60.6849C82.2099 60.2049 82.2699 59.3049 82.3899 57.9849C82.9899 53.7249 84.5799 49.4349 87.16 45.1149C89.74 40.7949 92.7699 37.2549 96.2499 34.4949C99.7299 31.6749 103 30.2649 106.06 30.2649C107.2 30.2649 108.31 30.4749 109.39 30.8949C110.47 31.3149 111.34 31.9449 112 32.7849C113.08 31.8849 113.8 30.8049 114.16 29.5449C114.22 29.3649 114.43 29.3049 114.79 29.3649C115.15 29.4249 115.3 29.5149 115.24 29.6349L110.02 58.1649C109.84 59.0649 109.75 59.8749 109.75 60.5949C109.75 62.4549 110.29 63.3849 111.37 63.3849C112.69 63.3849 114.67 62.0049 117.31 59.2449ZM91.0299 62.9349C93.1899 62.9349 95.4699 61.8249 97.8699 59.6049C100.33 57.3849 102.52 54.5949 104.44 51.2349C106.36 47.8149 107.65 44.4849 108.31 41.2449C108.49 40.4649 108.55 39.7749 108.49 39.1749C108.49 37.3749 108.01 35.9649 107.05 34.9449C106.15 33.9249 104.77 33.4149 102.91 33.4149C100.81 33.4749 98.6499 34.4349 96.4299 36.2949C94.2699 38.0949 92.38 40.5549 90.7599 43.6749C89.1399 46.7349 88.0599 50.1549 87.5199 53.9349C87.3399 55.2549 87.2499 56.4549 87.2499 57.5349C87.2499 61.1349 88.5099 62.9349 91.0299 62.9349Z" fill="#1D1D1D"/>
<path d="M132.303 67.3449C128.403 67.3449 125.493 66.0249 123.573 63.3849C121.713 60.6849 120.783 57.3549 120.783 53.3949C120.783 51.4749 120.963 49.6749 121.323 47.9949C122.043 44.3949 123.423 41.2449 125.463 38.5449C127.503 35.8449 129.873 33.8049 132.573 32.4249C135.273 30.9849 137.943 30.2649 140.583 30.2649C142.803 30.2649 144.693 30.7749 146.253 31.7949C147.813 32.8149 148.503 34.0749 148.323 35.5749C148.263 36.4149 147.963 37.1049 147.423 37.6449C146.943 38.1849 146.253 38.4549 145.353 38.4549C143.793 38.4549 142.713 37.4949 142.113 35.5749C141.873 34.7349 141.363 33.9849 140.583 33.3249C139.863 32.6049 138.813 32.2449 137.433 32.2449C134.613 32.2449 132.303 33.4449 130.503 35.8449C128.763 38.2449 127.533 41.3649 126.813 45.2049C126.393 47.6049 126.183 49.5849 126.183 51.1449C126.183 54.9849 127.023 58.1349 128.703 60.5949C130.383 62.9949 132.843 64.1949 136.083 64.1949C139.143 64.1949 142.323 62.8449 145.623 60.1449L145.803 60.0549C145.983 60.0549 146.133 60.1749 146.253 60.4149C146.433 60.6549 146.463 60.8349 146.343 60.9549C141.543 65.2149 136.863 67.3449 132.303 67.3449Z" fill="#1D1D1D"/>
<path d="M199.993 36.4749C199.993 38.3349 199.153 40.1949 197.473 42.0549C195.853 43.9149 193.663 45.3849 190.903 46.4649C193.423 46.7049 195.403 47.5449 196.843 48.9849C198.343 50.4249 199.093 52.1949 199.093 54.2949C199.093 54.5949 199.033 55.1649 198.913 56.0049C198.613 57.8049 197.803 59.6049 196.483 61.4049C195.223 63.145 193.483 64.5849 191.263 65.7249C189.043 66.8649 186.463 67.4349 183.523 67.4349C179.263 67.4349 176.023 66.1749 173.803 63.6549C171.643 61.1349 170.563 57.8949 170.563 53.9349C170.563 52.1349 170.713 50.5749 171.013 49.2549C171.613 46.0149 172.813 42.9549 174.613 40.0749C176.473 37.1349 178.813 34.7649 181.633 32.9649C184.513 31.1649 187.693 30.2649 191.173 30.2649C193.993 30.2649 196.153 30.8649 197.653 32.0649C199.213 33.2049 199.993 34.6749 199.993 36.4749ZM194.773 38.8149C194.833 38.5149 194.863 38.1249 194.863 37.6449C194.863 35.7249 194.293 34.2849 193.153 33.3249C192.073 32.3049 190.663 31.7949 188.923 31.7949C185.863 31.7949 183.163 33.2049 180.823 36.0249C178.543 38.8449 176.983 42.4149 176.143 46.7349C175.783 48.5949 175.603 50.4249 175.603 52.2249C175.603 56.1849 176.443 59.4549 178.123 62.0349C179.863 64.5549 182.383 65.8149 185.683 65.8149C188.443 65.8149 190.573 64.9449 192.073 63.2049C193.573 61.4049 194.323 59.2749 194.323 56.8149C194.323 54.5949 193.603 52.7649 192.163 51.3249C190.783 49.8249 188.683 49.0749 185.863 49.0749C184.903 49.0749 183.373 49.2249 181.273 49.5249H181.183C180.823 49.5249 180.583 49.3449 180.463 48.9849C180.343 48.5649 180.493 48.3249 180.913 48.2649C184.393 47.3649 187.033 46.5549 188.833 45.8349C190.633 45.1149 192.013 44.2149 192.973 43.1349C193.933 42.0549 194.533 40.6149 194.773 38.8149Z" fill="#1D1D1D"/>
<path d="M242.001 0.564941C247.101 0.564941 250.911 3.20494 253.431 8.48494C256.011 13.7649 257.301 20.4849 257.301 28.6449C257.301 33.2649 256.881 38.0949 256.041 43.1349C254.721 51.0549 252.381 57.0849 249.021 61.2249C245.721 65.365 241.701 67.4349 236.961 67.4349C232.881 67.4349 229.851 66.115 227.871 63.4749C225.891 60.7749 224.901 57.4749 224.901 53.5749C224.901 52.6749 225.021 51.3849 225.261 49.7049C225.981 45.5649 227.331 42.0849 229.311 39.2649C231.291 36.4449 233.601 34.3449 236.241 32.9649C238.881 31.5849 241.611 30.8949 244.431 30.8949C247.311 30.8949 249.951 31.7049 252.351 33.3249C252.411 32.3649 252.441 30.9249 252.441 29.0049C252.441 21.3849 251.421 15.0849 249.381 10.1049C247.341 5.06494 244.131 2.54494 239.751 2.54494C237.891 2.54494 236.031 3.08494 234.171 4.16494H234.081C233.841 4.16494 233.661 4.07494 233.541 3.89494C233.421 3.65494 233.421 3.47494 233.541 3.35494C236.121 1.49494 238.941 0.564941 242.001 0.564941ZM238.941 65.0949C241.761 65.0949 244.131 63.6249 246.051 60.6849C248.031 57.7449 249.591 53.1249 250.731 46.8249C251.211 44.0049 251.661 40.7949 252.081 37.1949C250.941 35.6349 249.561 34.4949 247.941 33.7749C246.321 33.0549 244.641 32.6949 242.901 32.6949C239.901 32.6949 237.231 33.7749 234.891 35.9349C232.611 38.0349 231.081 41.3649 230.301 45.9249C230.001 47.7249 229.851 49.4049 229.851 50.9649C229.851 54.9249 230.601 58.285 232.101 61.0449C233.661 63.7449 235.941 65.0949 238.941 65.0949Z" fill="#1D1D1D"/>
<path d="M287.371 34.3149C287.371 36.1749 286.381 37.9749 284.401 39.7149C282.481 41.3949 279.871 42.8649 276.571 44.1249C273.331 45.3849 269.821 46.3149 266.041 46.9149C265.741 48.8349 265.591 50.4849 265.591 51.8649C265.591 55.5849 266.431 58.5849 268.111 60.8649C269.791 63.0849 272.161 64.1949 275.221 64.1949C278.581 64.1949 281.581 63.2049 284.221 61.2249H284.401C284.581 61.2249 284.731 61.3149 284.851 61.4949C285.031 61.6749 285.031 61.8549 284.851 62.0349C280.651 65.5149 276.271 67.2549 271.711 67.2549C267.931 67.2549 265.051 66.0549 263.071 63.6549C261.151 61.195 260.191 58.0449 260.191 54.2049C260.191 52.8849 260.341 51.3249 260.641 49.5249C261.181 46.4649 262.441 43.4649 264.421 40.5249C266.401 37.5249 268.861 35.0649 271.801 33.1449C274.801 31.2249 277.921 30.2649 281.161 30.2649C283.141 30.2649 284.671 30.6249 285.751 31.3449C286.831 32.0649 287.371 33.0549 287.371 34.3149ZM277.201 32.6949C274.441 32.6949 272.101 33.9249 270.181 36.3849C268.321 38.7849 267.031 41.8749 266.311 45.6549C270.511 44.9349 273.901 43.8549 276.481 42.4149C279.121 40.9749 280.711 39.1749 281.251 37.0149C281.371 36.4149 281.431 35.9949 281.431 35.7549C281.431 34.7349 281.011 33.9849 280.171 33.5049C279.331 32.9649 278.341 32.6949 277.201 32.6949Z" fill="#1D1D1D"/>
<path d="M327.221 59.2449C327.341 59.1249 327.461 59.0649 327.581 59.0649C327.761 59.0649 327.911 59.1849 328.031 59.4249C328.151 59.6049 328.121 59.7849 327.941 59.9649C325.901 62.3649 324.041 64.1349 322.361 65.2749C320.681 66.3549 319.061 66.8949 317.501 66.8949C316.421 66.8949 315.641 66.5949 315.161 65.9949C314.681 65.3949 314.441 64.4049 314.441 63.0249C314.441 61.7649 314.621 60.2049 314.981 58.3449L316.511 49.7049H300.401L297.611 65.5449C297.491 65.9649 297.161 66.2949 296.621 66.5349C296.141 66.7749 295.481 66.8949 294.641 66.8949C293.801 66.8949 293.231 66.8349 292.931 66.7149C292.691 66.6549 292.571 66.5349 292.571 66.3549L292.931 64.2849C293.291 62.8449 293.621 61.2549 293.921 59.5149L297.611 39.4449C297.791 38.5449 297.881 37.7349 297.881 37.0149C297.881 35.0949 297.281 34.1349 296.081 34.1349C295.361 34.1349 294.431 34.4949 293.291 35.2149C292.211 35.9349 291.071 36.9549 289.871 38.2749C289.811 38.3349 289.721 38.3649 289.601 38.3649C289.421 38.3649 289.241 38.2749 289.061 38.0949C288.941 37.8549 288.971 37.6749 289.151 37.5549C291.191 35.2149 293.051 33.4749 294.731 32.3349C296.471 31.1949 298.121 30.6249 299.681 30.6249C300.701 30.6249 301.451 30.9549 301.931 31.6149C302.411 32.2149 302.651 33.2049 302.651 34.5849C302.651 36.1449 302.501 37.7049 302.201 39.2649L300.671 47.9049H316.871L319.661 31.9749C319.721 31.6149 319.991 31.3149 320.471 31.0749C320.951 30.7749 321.611 30.6249 322.451 30.6249C323.831 30.6249 324.521 30.8349 324.521 31.2549C324.461 31.6149 324.281 32.5149 323.981 33.9549C323.681 35.3949 323.411 36.7449 323.171 38.0049L319.481 58.0749C319.361 59.2749 319.301 60.0549 319.301 60.4149C319.301 62.3949 319.901 63.3849 321.101 63.3849C321.761 63.3849 322.631 63.0249 323.711 62.3049C324.851 61.5849 326.021 60.5649 327.221 59.2449Z" fill="#1D1D1D"/>
<path d="M352.486 46.9149C354.406 46.9149 355.966 47.4549 357.166 48.5349C358.426 49.5549 359.056 51.0249 359.056 52.9449C359.056 55.1649 358.306 57.4149 356.806 59.6949C355.366 61.9149 353.356 63.7449 350.776 65.1849C348.196 66.6249 345.316 67.3449 342.136 67.3449C337.096 67.3449 334.576 65.3949 334.576 61.4949C334.576 61.0149 334.696 60.1149 334.936 58.7949L338.716 39.4449C338.896 38.5449 338.986 37.7349 338.986 37.0149C338.986 36.1149 338.806 35.4249 338.446 34.9449C338.146 34.4049 337.726 34.1349 337.186 34.1349C335.866 34.1349 333.856 35.5749 331.156 38.4549C331.096 38.5149 331.006 38.5449 330.886 38.5449C330.646 38.5449 330.466 38.4549 330.346 38.2749C330.226 38.0349 330.256 37.8249 330.436 37.6449C333.136 35.0049 335.146 33.1749 336.466 32.1549C337.846 31.1349 339.256 30.6249 340.696 30.6249C341.776 30.6249 342.586 30.9549 343.126 31.6149C343.666 32.2749 343.936 33.3549 343.936 34.8549C343.936 35.9949 343.756 37.4649 343.396 39.2649L340.696 52.7649C342.076 50.9649 343.846 49.5549 346.006 48.5349C348.166 47.4549 350.326 46.9149 352.486 46.9149ZM353.836 54.7449C353.836 53.0649 353.356 51.7749 352.396 50.8749C351.496 49.9749 350.356 49.5249 348.976 49.5249C346.996 49.5249 345.076 50.3049 343.216 51.8649C341.416 53.3649 340.246 55.4049 339.706 57.9849C339.526 58.7649 339.436 59.5449 339.436 60.3249C339.436 62.1249 339.916 63.5049 340.876 64.4649C341.896 65.3649 343.216 65.8149 344.836 65.8149C346.696 65.8149 348.316 65.155 349.696 63.8349C351.076 62.5149 352.096 60.9849 352.756 59.2449C353.476 57.5049 353.836 56.0049 353.836 54.7449Z" fill="#1D1D1D"/>
</svg>
