<svg width="274" height="62" viewBox="0 0 274 62" fill="none" xmlns="http://www.w3.org/2000/svg">
<path d="M30.33 11.6097C29.85 14.4297 28.62 17.0997 26.64 19.6197C24.72 22.0797 22.35 23.9397 19.53 25.1997C22.47 25.5597 24.69 26.6997 26.19 28.6197C27.69 30.4797 28.44 32.7597 28.44 35.4597C28.44 38.4597 27.39 41.6397 25.29 44.9997C23.19 48.4197 20.04 51.6297 15.84 54.6297C11.64 57.6897 6.54 60.0897 0.54 61.8297C0.3 61.8897 0.15 61.7397 0.09 61.3797C-0.03 61.0197 -0.03 60.8097 0.09 60.7497C6.99 58.5297 12.21 55.3197 15.75 51.1197C19.35 46.9797 21.51 42.7497 22.23 38.4297C22.41 37.4097 22.5 36.3897 22.5 35.3697C22.5 32.9697 21.9 31.0197 20.7 29.5197C19.5 28.0197 17.64 27.2697 15.12 27.2697C14.16 27.2697 12.84 27.4797 11.16 27.8997C10.92 27.9597 10.74 27.7797 10.62 27.3597C10.5 26.9397 10.56 26.6997 10.8 26.6397C15.24 25.4997 18.54 23.8197 20.7 21.5997C22.92 19.3797 24.36 16.3497 25.02 12.5097C25.26 10.9497 25.38 9.89973 25.38 9.35973C25.38 7.37973 24.9 5.84973 23.94 4.76973C23.04 3.62973 21.66 3.05973 19.8 3.05973C17.4 3.05973 15.21 3.92973 13.23 5.66972C11.31 7.40973 9.54 10.1397 7.92 13.8597C7.86 13.9197 7.77 13.9497 7.65 13.9497C7.47 13.9497 7.26 13.8897 7.02 13.7697C6.84 13.6497 6.78 13.5297 6.84 13.4097L12.24 0.359727C12.3 0.299726 12.39 0.269727 12.51 0.269727C12.69 0.269727 12.84 0.329727 12.96 0.449728C13.14 0.569728 13.2 0.719725 13.14 0.899725C12.9 1.37973 12.78 1.79973 12.78 2.15973C12.78 2.75973 13.14 3.05973 13.86 3.05973C14.22 3.05973 15.12 2.81973 16.56 2.33973C17.76 1.91973 18.81 1.61973 19.71 1.43973C20.61 1.19973 21.57 1.07973 22.59 1.07973C25.17 1.07973 27.15 1.85973 28.53 3.41972C29.91 4.91973 30.6 6.83973 30.6 9.17973C30.6 9.95973 30.51 10.7697 30.33 11.6097Z" fill="#1D1D1D"/>
<path d="M101.445 30.1497C101.505 30.0897 101.595 30.0597 101.715 30.0597C101.895 30.0597 102.045 30.1797 102.165 30.4197C102.285 30.5997 102.285 30.7497 102.165 30.8697L100.725 32.3097C98.6255 34.4097 97.0355 35.8497 95.9555 36.6297C94.9355 37.4097 93.7955 37.7997 92.5355 37.7997C91.0355 37.7997 90.0455 37.1997 89.5655 35.9997C89.1455 34.7397 88.9655 32.4597 89.0255 29.1597L89.4755 8.45973L75.4355 36.3597C75.3155 36.4797 75.1055 36.5397 74.8055 36.5397C74.3255 36.5397 74.0555 36.3897 73.9955 36.0897L68.3255 9.62973C66.5255 17.3697 65.0255 23.1597 63.8255 26.9997C62.6255 30.8397 61.3355 33.5997 59.9555 35.2797C58.6355 36.9597 56.9555 37.7997 54.9155 37.7997C53.8355 37.7997 52.9955 37.4997 52.3955 36.8997C51.8555 36.2997 51.6455 35.5197 51.7655 34.5597C51.9455 33.6597 52.3055 33.0597 52.8455 32.7597C53.4455 32.3997 54.2255 32.2197 55.1855 32.2197C56.9255 32.2197 58.4255 31.3797 59.6855 29.6997C61.0055 28.0197 62.2355 25.4097 63.3755 21.8697C64.5155 18.2697 65.8655 13.1997 67.4255 6.65973C66.6455 5.03973 65.5355 4.22973 64.0955 4.22973C62.8355 4.22973 61.7555 4.67973 60.8555 5.57973L60.4955 5.75973C60.2555 5.75973 60.0755 5.66973 59.9555 5.48972C59.8355 5.30973 59.8655 5.12973 60.0455 4.94973C62.2655 2.72973 64.6355 1.61973 67.1555 1.61973C68.5355 1.61973 69.7055 2.03973 70.6655 2.87973C71.6255 3.71973 72.2855 4.94973 72.6455 6.56973L77.3255 29.2497L90.1055 3.95973C90.4055 3.17973 90.7355 2.66973 91.0955 2.42973C91.4555 2.18973 92.0255 2.06973 92.8055 2.06973C93.4655 2.06973 93.9155 2.18973 94.1555 2.42973C94.3955 2.60973 94.5155 2.96973 94.5155 3.50973L93.7055 28.9797C93.6455 30.8397 93.7355 32.1597 93.9755 32.9397C94.2755 33.6597 94.9055 34.0197 95.8655 34.0197C96.6455 34.0197 97.3355 33.8097 97.9355 33.3897C98.5355 32.9097 99.7055 31.8297 101.445 30.1497Z" fill="#1D1D1D"/>
<path d="M131.278 5.12973C131.278 6.98973 130.288 8.78973 128.308 10.5297C126.388 12.2097 123.778 13.6797 120.478 14.9397C117.238 16.1997 113.728 17.1297 109.948 17.7297C109.648 19.6497 109.498 21.2997 109.498 22.6797C109.498 26.3997 110.338 29.3997 112.018 31.6797C113.698 33.8997 116.068 35.0097 119.128 35.0097C122.488 35.0097 125.488 34.0197 128.128 32.0397H128.308C128.488 32.0397 128.638 32.1297 128.758 32.3097C128.938 32.4897 128.938 32.6697 128.758 32.8497C124.558 36.3297 120.178 38.0697 115.618 38.0697C111.838 38.0697 108.958 36.8697 106.978 34.4697C105.058 32.0097 104.098 28.8597 104.098 25.0197C104.098 23.6997 104.248 22.1397 104.548 20.3397C105.088 17.2797 106.348 14.2797 108.328 11.3397C110.308 8.33973 112.768 5.87973 115.708 3.95973C118.708 2.03973 121.828 1.07973 125.068 1.07973C127.048 1.07973 128.578 1.43973 129.658 2.15973C130.738 2.87973 131.278 3.86973 131.278 5.12973ZM121.108 3.50973C118.348 3.50973 116.008 4.73973 114.088 7.19973C112.228 9.59973 110.938 12.6897 110.218 16.4697C114.418 15.7497 117.808 14.6697 120.388 13.2297C123.028 11.7897 124.618 9.98973 125.158 7.82973C125.278 7.22973 125.338 6.80973 125.338 6.56973C125.338 5.54973 124.918 4.79973 124.078 4.31973C123.238 3.77973 122.248 3.50973 121.108 3.50973Z" fill="#1D1D1D"/>
<path d="M145.298 38.1597C141.398 38.1597 138.488 36.8397 136.568 34.1997C134.708 31.4997 133.778 28.1697 133.778 24.2097C133.778 22.2897 133.958 20.4897 134.318 18.8097C135.038 15.2097 136.418 12.0597 138.458 9.35973C140.498 6.65973 142.868 4.61972 145.568 3.23972C148.268 1.79973 150.938 1.07973 153.578 1.07973C155.798 1.07973 157.688 1.58973 159.248 2.60973C160.808 3.62973 161.498 4.88973 161.318 6.38973C161.258 7.22973 160.958 7.91973 160.418 8.45973C159.938 8.99973 159.248 9.26973 158.348 9.26973C156.788 9.26973 155.708 8.30973 155.108 6.38973C154.868 5.54973 154.358 4.79973 153.578 4.13973C152.858 3.41973 151.808 3.05973 150.428 3.05973C147.608 3.05973 145.298 4.25973 143.498 6.65973C141.758 9.05973 140.528 12.1797 139.808 16.0197C139.388 18.4197 139.178 20.3997 139.178 21.9597C139.178 25.7997 140.018 28.9497 141.698 31.4097C143.378 33.8097 145.838 35.0097 149.078 35.0097C152.138 35.0097 155.318 33.6597 158.618 30.9597L158.798 30.8697C158.978 30.8697 159.128 30.9897 159.248 31.2297C159.428 31.4697 159.458 31.6497 159.338 31.7697C154.538 36.0297 149.858 38.1597 145.298 38.1597Z" fill="#1D1D1D"/>
<path d="M194.683 30.1497C194.743 30.0897 194.833 30.0597 194.953 30.0597C195.133 30.0597 195.283 30.1797 195.403 30.4197C195.523 30.5997 195.523 30.7497 195.403 30.8697C193.303 33.2697 191.413 35.0397 189.733 36.1797C188.053 37.2597 186.463 37.7997 184.963 37.7997C183.883 37.7997 183.073 37.4997 182.533 36.8997C182.053 36.2397 181.813 35.1897 181.813 33.7497C181.813 32.5497 181.993 31.0197 182.353 29.1597L184.153 19.7997C181.813 19.9197 179.983 20.2797 178.663 20.8797C177.403 21.4797 176.323 22.4397 175.423 23.7597C174.523 25.0197 173.413 27.0897 172.093 29.9697C171.013 32.4897 169.903 34.4397 168.763 35.8197C167.683 37.1397 166.123 37.7997 164.083 37.7997C162.943 37.7997 161.263 37.5597 159.043 37.0797C158.923 37.0797 158.863 36.9897 158.863 36.8097C158.863 36.6297 158.923 36.4797 159.043 36.3597C159.163 36.1797 159.283 36.1197 159.403 36.1797C159.643 36.2397 160.033 36.2697 160.573 36.2697C162.193 36.2697 163.513 35.5797 164.533 34.1997C165.613 32.7597 166.723 30.6897 167.863 27.9897C170.083 23.3097 173.473 20.6097 178.033 19.8897C174.853 19.5297 172.393 18.6597 170.653 17.2797C168.913 15.8997 168.043 14.1597 168.043 12.0597C168.043 11.7597 168.103 11.2497 168.223 10.5297C168.763 7.46973 170.683 5.18973 173.983 3.68973C177.283 2.12973 181.453 1.34973 186.493 1.34973C188.173 1.34973 189.373 1.40973 190.093 1.52973C190.813 1.58973 191.263 1.76973 191.443 2.06973C191.683 2.30973 191.743 2.69973 191.623 3.23972L186.943 28.9797C186.763 29.8797 186.673 30.6897 186.673 31.4097C186.673 33.3297 187.273 34.2897 188.473 34.2897C189.133 34.2897 190.003 33.9297 191.083 33.2097C192.223 32.4897 193.423 31.4697 194.683 30.1497ZM186.223 8.90973C186.643 6.50973 186.853 5.03973 186.853 4.49973C186.853 3.71973 186.673 3.23973 186.313 3.05973C186.013 2.81973 185.443 2.69973 184.603 2.69973C180.763 2.69973 177.883 3.50973 175.963 5.12973C174.103 6.68973 173.173 8.63973 173.173 10.9797C173.173 13.0197 173.863 14.8497 175.243 16.4697C176.683 18.0297 178.843 18.8097 181.723 18.8097C182.563 18.8097 183.433 18.7197 184.333 18.5397L186.223 8.90973Z" fill="#1D1D1D"/>
<path d="M235.576 30.8697C233.896 33.1497 232.666 35.1897 231.886 36.9897C231.166 38.7297 230.806 40.1697 230.806 41.3097C230.806 42.2697 230.956 43.3497 231.256 44.5497C231.496 45.9897 231.616 47.0097 231.616 47.6097C231.616 50.5497 229.456 53.7297 225.136 57.1497L224.956 57.2397C224.776 57.2397 224.626 57.1497 224.506 56.9697C224.386 56.7897 224.386 56.6397 224.506 56.5197C225.886 55.1997 226.726 53.9097 227.026 52.6497C227.086 52.4097 227.116 52.0197 227.116 51.4797C227.116 50.8797 226.996 49.8597 226.756 48.4197C226.456 47.3397 226.306 46.2597 226.306 45.1797C226.306 44.3397 226.366 43.6797 226.486 43.1997C226.666 41.9997 227.056 40.8897 227.656 39.8697C228.316 38.9097 229.366 37.4397 230.806 35.4597C228.706 37.0197 226.786 37.7997 225.046 37.7997C224.026 37.7997 223.276 37.4997 222.796 36.8997C222.316 36.2397 222.076 35.2197 222.076 33.8397C222.076 32.2797 222.226 30.7197 222.526 29.1597L224.416 18.2697C222.256 24.5097 219.706 29.3997 216.766 32.9397C213.826 36.4197 210.736 38.1597 207.496 38.1597C203.536 38.1597 201.556 35.9397 201.556 31.4997C201.556 29.8797 201.766 28.1397 202.186 26.2797L205.426 10.2597C205.606 9.23973 205.696 8.42973 205.696 7.82973C205.696 5.96973 205.126 5.03973 203.986 5.03973C202.786 5.03973 200.806 6.41973 198.046 9.17973C197.926 9.29973 197.806 9.35973 197.686 9.35973C197.506 9.35973 197.356 9.26973 197.236 9.08973C197.116 8.84973 197.146 8.63973 197.326 8.45973C199.426 6.05973 201.256 4.28973 202.816 3.14973C204.436 2.00973 205.996 1.43973 207.496 1.43973C209.596 1.43973 210.646 2.81973 210.646 5.57973C210.646 6.47973 210.436 8.03973 210.016 10.2597L207.136 24.5697C206.716 26.8497 206.506 28.4997 206.506 29.5197C206.506 32.9397 207.796 34.6497 210.376 34.6497C212.356 34.6497 214.396 33.3897 216.496 30.8697C218.656 28.3497 220.666 24.6897 222.526 19.8897C224.446 15.0897 225.976 9.41973 227.116 2.87973C227.296 1.97973 228.256 1.52973 229.996 1.52973C231.436 1.52973 232.156 1.70973 232.156 2.06973L231.796 4.13973C231.436 5.57973 231.106 7.16973 230.806 8.90973L227.116 28.9797C226.936 29.8797 226.846 30.6897 226.846 31.4097C226.846 33.3297 227.446 34.2897 228.646 34.2897C230.146 34.2897 232.186 32.9397 234.766 30.2397C234.766 30.1797 234.826 30.1497 234.946 30.1497C235.126 30.1497 235.276 30.2397 235.396 30.4197C235.576 30.5997 235.636 30.7497 235.576 30.8697Z" fill="#1D1D1D"/>
<path d="M272.824 30.0597C272.884 29.9997 272.974 29.9697 273.094 29.9697C273.274 29.9697 273.424 30.0897 273.544 30.3297C273.664 30.5097 273.664 30.6597 273.544 30.7797C271.504 33.1197 269.674 34.8897 268.054 36.0897C266.494 37.2297 264.964 37.7997 263.464 37.7997C262.444 37.7997 261.664 37.4997 261.124 36.8997C260.644 36.2397 260.404 35.1897 260.404 33.7497C260.404 32.5497 260.584 30.9597 260.944 28.9797L262.564 19.6197C259.804 25.1997 256.684 29.6997 253.204 33.1197C249.784 36.4797 246.484 38.1597 243.304 38.1597C239.584 38.1597 237.724 35.9397 237.724 31.4997C237.724 31.0197 237.784 30.1197 237.904 28.7997C238.504 24.5397 240.094 20.2497 242.674 15.9297C245.254 11.6097 248.284 8.06972 251.764 5.30972C255.244 2.48972 258.514 1.07973 261.574 1.07973C262.714 1.07973 263.824 1.28973 264.904 1.70973C265.984 2.12973 266.854 2.75973 267.514 3.59973C268.594 2.69973 269.314 1.61973 269.674 0.359727C269.734 0.179726 269.944 0.119726 270.304 0.179727C270.664 0.239726 270.814 0.329727 270.754 0.449728L265.534 28.9797C265.354 29.8797 265.264 30.6897 265.264 31.4097C265.264 33.2697 265.804 34.1997 266.884 34.1997C268.204 34.1997 270.184 32.8197 272.824 30.0597ZM246.544 33.7497C248.704 33.7497 250.984 32.6397 253.384 30.4197C255.844 28.1997 258.034 25.4097 259.954 22.0497C261.874 18.6297 263.164 15.2997 263.824 12.0597C264.004 11.2797 264.064 10.5897 264.004 9.98973C264.004 8.18973 263.524 6.77973 262.564 5.75973C261.664 4.73973 260.284 4.22973 258.424 4.22973C256.324 4.28973 254.164 5.24973 251.944 7.10973C249.784 8.90973 247.894 11.3697 246.274 14.4897C244.654 17.5497 243.574 20.9697 243.034 24.7497C242.854 26.0697 242.764 27.2697 242.764 28.3497C242.764 31.9497 244.024 33.7497 246.544 33.7497Z" fill="#1D1D1D"/>
</svg>
