<svg width="23" height="28" viewBox="0 0 23 28" fill="none" xmlns="http://www.w3.org/2000/svg">
<path d="M0.099 26.268C4.015 23.232 7.051 20.68 9.207 18.612C11.407 16.544 12.991 14.674 13.959 13.002C14.971 11.33 15.477 9.68 15.477 8.052C15.477 6.204 14.905 4.752 13.761 3.696C12.617 2.596 11.165 2.046 9.405 2.046C7.645 2.046 6.105 2.728 4.785 4.092C3.465 5.412 2.453 7.392 1.749 10.032C1.749 10.076 1.661 10.098 1.485 10.098C1.089 10.098 0.913 10.01 0.957 9.834L3.465 0.132C3.465 0.0439998 3.553 0 3.729 0C3.861 0 3.971 0.0439998 4.059 0.132C4.191 0.176001 4.235 0.220001 4.191 0.264C4.147 0.44 4.125 0.660001 4.125 0.924C4.125 1.628 4.455 1.98 5.115 1.98C5.511 1.98 6.171 1.826 7.095 1.518C7.755 1.342 8.503 1.166 9.339 0.99C10.175 0.813999 10.989 0.726 11.781 0.726C13.981 0.726 15.719 1.342 16.995 2.574C18.315 3.762 18.975 5.346 18.975 7.326C18.975 8.822 18.513 10.318 17.589 11.814C16.709 13.31 15.257 15.004 13.233 16.896C11.209 18.788 8.393 21.12 4.785 23.892C4.609 24.024 4.543 24.134 4.587 24.222C4.675 24.31 4.829 24.354 5.049 24.354C10.197 24.354 13.717 24.288 15.609 24.156C17.545 23.98 18.909 23.606 19.701 23.034C20.493 22.418 21.065 21.34 21.417 19.8C21.461 19.712 21.593 19.69 21.813 19.734C22.077 19.734 22.209 19.778 22.209 19.866L21.285 26.334C21.285 26.51 21.219 26.686 21.087 26.862C20.999 26.994 20.867 27.06 20.691 27.06H0.561C0.385 27.06 0.231 26.972 0.099 26.796C-0.033 26.62 -0.033 26.444 0.099 26.268Z" fill="#1D1D1D"/>
</svg>
