<svg width="335" height="91" viewBox="0 0 335 91" fill="none" xmlns="http://www.w3.org/2000/svg">
<path d="M34.7041 27.7636C34.8241 27.6436 34.9141 27.5836 34.9741 27.5836C35.1541 27.5836 35.3041 27.6436 35.4241 27.7636C35.6041 27.8836 35.6641 28.0036 35.6041 28.1236L32.9041 34.3336C32.5441 35.0536 32.1841 35.5036 31.8241 35.6836C31.5241 35.8636 31.0141 35.9536 30.2941 35.9536L14.8141 36.3136C14.1541 36.3136 13.6441 36.7636 13.2841 37.6636L9.77409 48.1936C16.3741 48.2536 21.2341 49.4836 24.3541 51.8836C27.5341 54.2236 29.1241 57.4636 29.1241 61.6036C29.1241 62.6836 29.0341 63.8236 28.8541 65.0236C27.9541 70.0036 25.3441 74.4436 21.0241 78.3436C16.7641 82.2436 10.1341 86.3236 1.13409 90.5836H1.04409C0.804092 90.5836 0.624092 90.4336 0.504092 90.1336C0.384092 89.8936 0.444092 89.7136 0.684092 89.5936C8.06409 85.9336 13.4341 82.2436 16.7941 78.5236C20.2141 74.8036 22.2841 70.8136 23.0041 66.5536C23.1841 65.3536 23.2741 64.2736 23.2741 63.3136C23.2741 59.3536 21.9841 56.2936 19.4041 54.1336C16.8241 51.9136 13.0441 50.8036 8.06409 50.8036C7.82409 50.8036 7.64409 50.7136 7.52409 50.5336C7.40409 50.2936 7.40409 50.0236 7.52409 49.7236L12.9241 33.7036C13.0441 33.2836 13.1641 33.0436 13.2841 32.9836C13.4041 32.8636 13.7041 32.7736 14.1841 32.7136C21.1441 31.8136 25.8241 31.1836 28.2241 30.8236C30.6241 30.4636 32.1841 30.1036 32.9041 29.7436C33.6841 29.3236 34.2841 28.6636 34.7041 27.7636Z" fill="#1D1D1D"/>
<path d="M36.7762 65.8336C36.5362 65.8336 36.4162 65.6536 36.4162 65.2936C36.4162 64.9336 36.5362 64.7536 36.7762 64.7536C38.9962 64.7536 40.6762 64.6036 41.8162 64.3036C42.9562 64.0036 43.7962 63.4336 44.3362 62.5936C44.8762 61.6936 45.3262 60.3436 45.6862 58.5436L48.7462 41.5336C49.1062 39.2536 49.2862 37.9036 49.2862 37.4836C49.2862 36.8236 49.1662 36.3436 48.9262 36.0436C48.7462 35.7436 48.4162 35.5936 47.9362 35.5936C47.3962 35.5936 46.5562 35.8036 45.4162 36.2236C44.2762 36.6436 42.9862 37.1836 41.5462 37.8436L41.3662 37.9336C41.1262 37.9336 40.9762 37.7836 40.9162 37.4836C40.8562 37.1836 40.9462 36.9736 41.1862 36.8536L54.7762 30.1936C54.9562 30.0736 55.1362 30.0736 55.3162 30.1936C55.4962 30.3136 55.5262 30.4336 55.4062 30.5536L50.3662 58.5436C50.1862 59.6236 50.0962 60.5236 50.0962 61.2436C50.0962 62.6836 50.5762 63.6436 51.5362 64.1236C52.5562 64.5436 54.4762 64.7536 57.2962 64.7536C57.4762 64.7536 57.5662 64.9336 57.5662 65.2936C57.5662 65.6536 57.4762 65.8336 57.2962 65.8336C55.4962 65.8336 54.0862 65.8036 53.0662 65.7436L47.1262 65.6536L41.0962 65.7436C40.0762 65.8036 38.6362 65.8336 36.7762 65.8336Z" fill="#1D1D1D"/>
<path d="M112.501 36.1336C112.501 37.9936 111.661 39.8536 109.981 41.7136C108.361 43.5736 106.171 45.0436 103.411 46.1236C105.931 46.3636 107.911 47.2036 109.351 48.6436C110.851 50.0836 111.601 51.8536 111.601 53.9536C111.601 54.2536 111.541 54.8236 111.421 55.6636C111.121 57.4636 110.311 59.2636 108.991 61.0636C107.731 62.8036 105.991 64.2436 103.771 65.3836C101.551 66.5236 98.9714 67.0936 96.0314 67.0936C91.7714 67.0936 88.5314 65.8336 86.3114 63.3136C84.1514 60.7936 83.0714 57.5536 83.0714 53.5936C83.0714 51.7936 83.2214 50.2336 83.5214 48.9136C84.1214 45.6736 85.3214 42.6136 87.1214 39.7336C88.9814 36.7936 91.3214 34.4236 94.1414 32.6236C97.0214 30.8236 100.201 29.9236 103.681 29.9236C106.501 29.9236 108.661 30.5236 110.161 31.7236C111.721 32.8636 112.501 34.3336 112.501 36.1336ZM107.281 38.4736C107.341 38.1736 107.371 37.7836 107.371 37.3036C107.371 35.3836 106.801 33.9436 105.661 32.9836C104.581 31.9636 103.171 31.4536 101.431 31.4536C98.3714 31.4536 95.6714 32.8636 93.3314 35.6836C91.0514 38.5036 89.4914 42.0736 88.6514 46.3936C88.2914 48.2536 88.1114 50.0836 88.1114 51.8836C88.1114 55.8436 88.9514 59.1136 90.6314 61.6936C92.3714 64.2136 94.8914 65.4736 98.1914 65.4736C100.951 65.4736 103.081 64.6036 104.581 62.8636C106.081 61.0636 106.831 58.9336 106.831 56.4736C106.831 54.2536 106.111 52.4236 104.671 50.9836C103.291 49.4836 101.191 48.7336 98.3714 48.7336C97.4114 48.7336 95.8814 48.8836 93.7814 49.1836H93.6914C93.3314 49.1836 93.0914 49.0036 92.9714 48.6436C92.8514 48.2236 93.0014 47.9836 93.4214 47.9236C96.9014 47.0236 99.5414 46.2136 101.341 45.4936C103.141 44.7736 104.521 43.8736 105.481 42.7936C106.441 41.7136 107.041 40.2736 107.281 38.4736Z" fill="#1D1D1D"/>
<path d="M144.397 33.9736C144.397 35.8336 143.407 37.6336 141.427 39.3736C139.507 41.0536 136.897 42.5236 133.597 43.7836C130.357 45.0436 126.847 45.9736 123.067 46.5736C122.767 48.4936 122.617 50.1436 122.617 51.5236C122.617 55.2436 123.457 58.2436 125.137 60.5236C126.817 62.7436 129.187 63.8536 132.247 63.8536C135.607 63.8536 138.607 62.8636 141.247 60.8836H141.427C141.607 60.8836 141.757 60.9736 141.877 61.1536C142.057 61.3336 142.057 61.5136 141.877 61.6936C137.677 65.1736 133.297 66.9136 128.737 66.9136C124.957 66.9136 122.077 65.7136 120.097 63.3136C118.177 60.8536 117.217 57.7036 117.217 53.8636C117.217 52.5436 117.367 50.9836 117.667 49.1836C118.207 46.1236 119.467 43.1236 121.447 40.1836C123.427 37.1836 125.887 34.7236 128.827 32.8036C131.827 30.8836 134.947 29.9236 138.187 29.9236C140.167 29.9236 141.697 30.2836 142.777 31.0036C143.857 31.7236 144.397 32.7136 144.397 33.9736ZM134.227 32.3536C131.467 32.3536 129.127 33.5836 127.207 36.0436C125.347 38.4436 124.057 41.5336 123.337 45.3136C127.537 44.5936 130.926 43.5136 133.507 42.0736C136.146 40.6336 137.737 38.8336 138.277 36.6736C138.396 36.0736 138.457 35.6536 138.457 35.4136C138.457 34.3936 138.036 33.6436 137.197 33.1636C136.357 32.6236 135.367 32.3536 134.227 32.3536Z" fill="#1D1D1D"/>
<path d="M183.089 0.583568C183.089 0.463566 183.209 0.403564 183.449 0.403564C183.629 0.403564 183.779 0.463566 183.899 0.583568C184.079 0.643567 184.139 0.703566 184.079 0.763565C183.179 3.58356 182.249 5.71357 181.289 7.15357C180.389 8.59357 179.279 9.67357 177.959 10.3936C176.639 11.1136 174.749 11.8336 172.289 12.5536C168.029 13.6936 164.519 15.2536 161.759 17.2336C158.999 19.1536 156.539 22.1836 154.379 26.3236C152.279 30.4636 150.449 36.2536 148.889 43.6936C151.469 38.4136 154.439 34.9636 157.799 33.3436C161.159 31.7236 164.189 30.9136 166.889 30.9136C171.029 30.9136 174.149 32.2636 176.249 34.9636C178.409 37.6636 179.489 40.9636 179.489 44.8636C179.489 45.7036 179.369 46.9636 179.129 48.6436C178.469 52.1836 177.089 55.3636 174.989 58.1836C172.889 61.0036 170.399 63.1936 167.519 64.7536C164.639 66.3136 161.789 67.0936 158.969 67.0936C155.429 67.0936 152.519 65.7736 150.239 63.1336C148.019 60.4936 146.909 56.5036 146.909 51.1636C146.909 48.6436 147.179 45.8236 147.719 42.7036C149.099 34.0636 151.079 27.2836 153.659 22.3636C156.299 17.4436 159.119 13.9636 162.119 11.9236C165.119 9.88357 168.569 8.35357 172.469 7.33357C175.709 6.31357 178.109 5.35356 179.669 4.45357C181.289 3.55357 182.429 2.26357 183.089 0.583568ZM152.849 47.3836C152.549 49.3636 152.399 51.0436 152.399 52.4236C152.399 56.4436 153.239 59.5936 154.919 61.8736C156.599 64.1536 158.729 65.2936 161.309 65.2936C163.949 65.2936 166.409 64.0036 168.689 61.4236C170.969 58.8436 172.529 55.1836 173.369 50.4436C173.729 48.5236 173.909 46.7236 173.909 45.0436C173.909 41.2636 173.099 38.2336 171.479 35.9536C169.919 33.6136 167.759 32.4436 164.999 32.4436C161.939 32.4436 159.329 33.9436 157.169 36.9436C155.009 39.8836 153.569 43.3636 152.849 47.3836Z" fill="#1D1D1D"/>
<path d="M219.793 58.9936C219.853 58.9336 219.943 58.9036 220.063 58.9036C220.243 58.9036 220.393 59.0236 220.513 59.2636C220.633 59.4436 220.633 59.5936 220.513 59.7136C218.413 62.1136 216.523 63.8836 214.843 65.0236C213.163 66.1036 211.543 66.6436 209.983 66.6436C208.963 66.6436 208.213 66.3436 207.733 65.7436C207.253 65.0836 207.013 64.0636 207.013 62.6836C207.013 61.1236 207.163 59.5636 207.463 58.0036L209.353 47.1136C207.193 53.3536 204.643 58.2436 201.703 61.7836C198.763 65.2636 195.673 67.0036 192.433 67.0036C188.473 67.0036 186.493 64.7836 186.493 60.3436C186.493 58.7236 186.703 56.9836 187.123 55.1236L190.363 39.1036C190.543 38.0836 190.633 37.2736 190.633 36.6736C190.633 34.8136 190.063 33.8836 188.923 33.8836C187.723 33.8836 185.743 35.2636 182.983 38.0236C182.863 38.1436 182.743 38.2036 182.623 38.2036C182.443 38.2036 182.293 38.1136 182.173 37.9336C182.053 37.6936 182.083 37.4836 182.263 37.3036C184.363 34.9036 186.193 33.1336 187.753 31.9936C189.373 30.8536 190.933 30.2836 192.433 30.2836C194.533 30.2836 195.583 31.6636 195.583 34.4236C195.583 35.3236 195.373 36.8836 194.953 39.1036L192.073 53.4136C191.653 55.6936 191.443 57.3436 191.443 58.3636C191.443 61.7836 192.733 63.4936 195.313 63.4936C197.293 63.4936 199.333 62.2336 201.433 59.7136C203.593 57.1936 205.603 53.5336 207.463 48.7336C209.383 43.9336 210.913 38.2636 212.053 31.7236C212.233 30.8236 213.193 30.3736 214.933 30.3736C216.373 30.3736 217.093 30.5536 217.093 30.9136L216.733 32.9836C216.373 34.4236 216.043 36.0136 215.743 37.7536L212.053 57.8236C211.873 58.7236 211.783 59.5336 211.783 60.2536C211.783 62.1736 212.383 63.1336 213.583 63.1336C214.243 63.1336 215.113 62.7736 216.193 62.0536C217.333 61.3336 218.533 60.3136 219.793 58.9936Z" fill="#1D1D1D"/>
<path d="M260.999 58.9036C261.119 58.7836 261.239 58.7236 261.359 58.7236C261.539 58.7236 261.689 58.8436 261.809 59.0836C261.929 59.2636 261.899 59.4436 261.719 59.6236C259.679 62.0236 257.819 63.7936 256.139 64.9336C254.459 66.0136 252.839 66.5536 251.279 66.5536C250.199 66.5536 249.419 66.2536 248.939 65.6536C248.459 65.0536 248.219 64.0636 248.219 62.6836C248.219 61.4236 248.399 59.8636 248.759 58.0036L250.289 49.3636H234.179L231.389 65.2036C231.269 65.6236 230.939 65.9536 230.399 66.1936C229.919 66.4336 229.259 66.5536 228.419 66.5536C227.579 66.5536 227.009 66.4936 226.709 66.3736C226.469 66.3136 226.349 66.1936 226.349 66.0136L226.709 63.9436C227.069 62.5036 227.399 60.9136 227.699 59.1736L231.389 39.1036C231.569 38.2036 231.659 37.3936 231.659 36.6736C231.659 34.7536 231.059 33.7936 229.859 33.7936C229.139 33.7936 228.209 34.1536 227.069 34.8736C225.989 35.5936 224.849 36.6136 223.649 37.9336C223.589 37.9936 223.499 38.0236 223.379 38.0236C223.199 38.0236 223.019 37.9336 222.839 37.7536C222.719 37.5136 222.749 37.3336 222.929 37.2136C224.969 34.8736 226.829 33.1336 228.509 31.9936C230.249 30.8536 231.899 30.2836 233.459 30.2836C234.479 30.2836 235.229 30.6136 235.709 31.2736C236.189 31.8736 236.429 32.8636 236.429 34.2436C236.429 35.8036 236.279 37.3636 235.979 38.9236L234.449 47.5636H250.649L253.439 31.6336C253.499 31.2736 253.769 30.9736 254.249 30.7336C254.729 30.4336 255.389 30.2836 256.229 30.2836C257.609 30.2836 258.299 30.4936 258.299 30.9136C258.239 31.2736 258.059 32.1736 257.759 33.6136C257.459 35.0536 257.189 36.4036 256.949 37.6636L253.259 57.7336C253.139 58.9336 253.079 59.7136 253.079 60.0736C253.079 62.0536 253.679 63.0436 254.879 63.0436C255.539 63.0436 256.409 62.6836 257.489 61.9636C258.629 61.2436 259.799 60.2236 260.999 58.9036Z" fill="#1D1D1D"/>
<path d="M298.775 58.9036C298.835 58.8436 298.925 58.8136 299.045 58.8136C299.225 58.8136 299.375 58.9336 299.495 59.1736C299.615 59.3536 299.615 59.5036 299.495 59.6236C297.455 61.9636 295.625 63.7336 294.005 64.9336C292.445 66.0736 290.915 66.6436 289.415 66.6436C288.395 66.6436 287.615 66.3436 287.075 65.7436C286.595 65.0836 286.355 64.0336 286.355 62.5936C286.355 61.3936 286.535 59.8036 286.895 57.8236L288.515 48.4636C285.755 54.0436 282.635 58.5436 279.155 61.9636C275.735 65.3236 272.435 67.0036 269.255 67.0036C265.535 67.0036 263.675 64.7836 263.675 60.3436C263.675 59.8636 263.735 58.9636 263.855 57.6436C264.455 53.3836 266.045 49.0936 268.625 44.7736C271.205 40.4536 274.235 36.9136 277.715 34.1536C281.195 31.3336 284.465 29.9236 287.525 29.9236C288.665 29.9236 289.775 30.1336 290.855 30.5536C291.935 30.9736 292.805 31.6036 293.465 32.4436C294.545 31.5436 295.265 30.4636 295.625 29.2036C295.685 29.0236 295.895 28.9636 296.255 29.0236C296.615 29.0836 296.765 29.1736 296.705 29.2936L291.485 57.8236C291.305 58.7236 291.215 59.5336 291.215 60.2536C291.215 62.1136 291.755 63.0436 292.835 63.0436C294.155 63.0436 296.135 61.6636 298.775 58.9036ZM272.495 62.5936C274.655 62.5936 276.935 61.4836 279.335 59.2636C281.795 57.0436 283.985 54.2536 285.905 50.8936C287.825 47.4736 289.115 44.1436 289.775 40.9036C289.955 40.1236 290.015 39.4336 289.955 38.8336C289.955 37.0336 289.475 35.6236 288.515 34.6036C287.615 33.5836 286.235 33.0736 284.375 33.0736C282.275 33.1336 280.115 34.0936 277.895 35.9536C275.735 37.7536 273.845 40.2136 272.225 43.3336C270.605 46.3936 269.525 49.8136 268.985 53.5936C268.805 54.9136 268.715 56.1136 268.715 57.1936C268.715 60.7936 269.975 62.5936 272.495 62.5936Z" fill="#1D1D1D"/>
<path d="M325.288 30.4636C328.168 30.4636 330.358 31.2736 331.858 32.8936C333.358 34.4536 334.108 36.7636 334.108 39.8236C334.108 40.7836 334.018 41.8636 333.838 43.0636C333.298 47.0836 331.948 50.8636 329.788 54.4036C327.628 57.8836 325.018 60.6736 321.958 62.7736C318.898 64.8736 315.808 65.9236 312.688 65.9236C310.528 65.9236 308.818 65.8336 307.558 65.6536L304.678 81.8536C304.498 82.8736 304.408 83.7136 304.408 84.3736C304.408 85.4536 304.648 86.2336 305.128 86.7136C305.668 87.1936 306.508 87.4336 307.648 87.4336C308.008 87.4336 308.728 87.3736 309.808 87.2536H309.898C310.078 87.2536 310.198 87.4036 310.258 87.7036C310.318 88.0036 310.228 88.1836 309.988 88.2436L294.508 90.5836C294.268 90.6436 294.118 90.4936 294.058 90.1336C293.998 89.7736 294.088 89.5636 294.328 89.5036C295.648 89.2636 296.638 88.9336 297.298 88.5136C297.958 88.1536 298.468 87.5236 298.828 86.6236C299.128 85.7836 299.458 84.4036 299.818 82.4836L307.468 39.7336L303.418 42.7936L303.238 42.8836C303.058 42.8836 302.878 42.7636 302.698 42.5236C302.578 42.2236 302.578 42.0436 302.698 41.9836C304.618 40.2436 306.328 38.8636 307.828 37.8436L308.998 31.0936C308.998 30.9736 309.418 30.5536 310.258 29.8336C311.098 29.0536 311.848 28.2436 312.508 27.4036C313.168 26.5636 313.618 25.6036 313.858 24.5236C313.858 24.3436 314.008 24.2536 314.308 24.2536C314.428 24.2536 314.548 24.3136 314.668 24.4336C314.848 24.4936 314.908 24.5836 314.848 24.7036L313.138 34.2436C317.518 31.7236 321.568 30.4636 325.288 30.4636ZM328.708 46.0336C328.888 44.7736 328.978 43.5436 328.978 42.3436C328.978 36.5836 326.488 33.7036 321.508 33.7036C318.808 33.7036 315.898 34.5736 312.778 36.3136L308.188 61.8736C310.348 62.8936 312.688 63.4036 315.208 63.4036C318.988 63.4036 322.018 61.8136 324.298 58.6336C326.578 55.4536 328.048 51.2536 328.708 46.0336Z" fill="#1D1D1D"/>
</svg>
