<svg width="18" height="27" viewBox="0 0 18 27" fill="none" xmlns="http://www.w3.org/2000/svg">
<path d="M0.506 26.136C0.418 26.136 0.374 26.004 0.374 25.74C0.374 25.476 0.418 25.344 0.506 25.344C2.442 25.344 3.85 25.234 4.73 25.014C5.654 24.75 6.292 24.31 6.644 23.694C6.996 23.078 7.172 22.11 7.172 20.79V8.382C7.172 6.578 7.062 5.346 6.842 4.686C6.622 3.982 6.16 3.63 5.456 3.63C4.576 3.63 2.926 4.202 0.506 5.346L0.374 5.412C0.242 5.412 0.132 5.302 0.044 5.082C-0.044 4.862 -4.47035e-08 4.73 0.176 4.686L9.614 0.066C9.658 0.0219992 9.724 0 9.812 0C9.944 0 10.054 0.0660009 10.142 0.198002C10.23 0.286001 10.274 0.395999 10.274 0.528V20.79C10.274 22.154 10.428 23.144 10.736 23.76C11.044 24.376 11.638 24.794 12.518 25.014C13.442 25.234 14.894 25.344 16.874 25.344C17.006 25.344 17.072 25.476 17.072 25.74C17.072 26.004 17.006 26.136 16.874 26.136C15.466 26.136 14.344 26.114 13.508 26.07L8.69 26.004L4.004 26.07C3.168 26.114 2.002 26.136 0.506 26.136Z" fill="#1D1D1D"/>
</svg>
