<svg width="1160" height="411" viewBox="0 0 1160 411" fill="none" xmlns="http://www.w3.org/2000/svg">
<path d="M1160 2.82989C997.531 -7.33281 502.222 14.0089 0 2.82989V410.354C138.272 398.159 892.346 409.337 1153.09 399.175C1159.01 319.398 1160 125.798 1160 2.82989Z" fill="#F5F7F3"/>
<mask id="mask0_46_313" style="mask-type:alpha" maskUnits="userSpaceOnUse" x="0" y="0" width="1160" height="411">
<path d="M1160 2.82989C997.531 -7.33281 502.222 14.0089 0 2.82989V410.354C138.272 398.159 892.346 409.337 1153.09 399.175C1159.01 319.398 1160 125.798 1160 2.82989Z" fill="#F5F7F3"/>
</mask>
<g mask="url(#mask0_46_313)">
<path d="M1284.62 228.724C1303.81 195.744 1321.94 195.104 1327.11 180.345C1322.25 153.586 1283.21 131.398 1273.31 95.5806C1256.46 34.6511 1280.04 -56.9344 1220.09 -43.1344C1148.33 -26.6154 1252.55 123.421 1185.83 113.188C1157.81 108.889 1149.91 82.0961 1141.48 3.04708C1133.05 -76.0018 1111.77 -91.1634 1060.72 -70.3018C1009.67 -49.4402 1105.15 94.5131 1099.51 128.405C1093.87 162.296 1061.43 163.386 1014.11 130.08C966.797 96.7735 992.543 73.1194 958.333 2.40132C924.122 -68.3167 895.369 -87.9675 873.159 -65.5594C848.13 -40.3076 893.112 36.9511 896.687 59.0377C900.261 81.1243 886.05 71.4801 848.049 56.3204C810.048 41.1608 778.547 -60.0885 734.499 -80.3748C690.451 -100.661 676.479 -27.0699 703.73 19.3315C728.04 60.727 834.087 65.1422 820.525 96.9635C806.963 128.785 760.559 114.669 696.544 137.429C632.529 160.189 657.691 198.495 680.189 225.895C702.688 253.295 736.597 234.158 753.578 211.881C770.559 189.604 836.256 135.922 886.641 122.345C937.027 108.769 863.147 190.666 821.717 230.731C780.288 270.796 798.165 308.451 839.01 330.345C879.855 352.239 895.778 330.266 901.717 281.414C907.656 232.561 930.213 161.764 968.874 161.629C1007.54 161.495 997.937 206.365 963.886 253.005C929.834 299.645 934.136 329.074 969.902 347.623C1002.64 364.603 1026.24 333.25 1031.67 280.197C1037.09 227.144 1094.87 179.401 1126.97 185.958C1159.08 192.516 1122.65 270.049 1084.21 313.372C1045.78 356.696 1133.42 383.669 1161.73 356.987C1190.04 330.306 1159.56 205.42 1166.51 173.672C1173.45 141.924 1182.36 137.071 1207.12 144.368C1231.88 151.665 1231.07 170.435 1221.28 187.44C1211.5 204.444 1212.16 285.956 1208.45 323.41C1204.75 360.864 1220.56 365.7 1235.31 370.84C1250.06 375.98 1264.2 362.987 1261.06 347.186C1257.91 331.385 1265.44 261.705 1284.62 228.724Z" fill="#4C8D6C"/>
</g>
</svg>
