<svg width="52" height="52" viewBox="0 0 52 52" fill="none" xmlns="http://www.w3.org/2000/svg">
<path fill-rule="evenodd" clip-rule="evenodd" d="M26 52C40.3594 52 52 40.3594 52 26C52 11.6406 40.3594 0 26 0C11.6406 0 0 11.6406 0 26C0 40.3594 11.6406 52 26 52Z" fill="#01A059"/>
<path fill-rule="evenodd" clip-rule="evenodd" d="M27.7485 34.5951C27.7485 34.5951 28.2605 34.5372 28.5227 34.2506C28.7627 33.9881 28.7544 33.4926 28.7544 33.4926C28.7544 33.4926 28.7225 31.1787 29.7783 30.8371C30.8188 30.5011 32.1549 33.0747 33.5728 34.0643C34.6439 34.8125 35.4569 34.6488 35.4569 34.6488L39.2458 34.5951C39.2458 34.5951 41.227 34.4709 40.2878 32.8855C40.2101 32.7556 39.7397 31.7124 37.4714 29.5694C35.0948 27.3262 35.4139 27.689 38.2747 23.8082C40.0172 21.4449 40.7137 20.0022 40.4959 19.3852C40.2891 18.7951 39.0072 18.9518 39.0072 18.9518L34.7424 18.9787C34.7424 18.9787 34.426 18.9349 34.1916 19.0775C33.9626 19.2172 33.8142 19.5433 33.8142 19.5433C33.8142 19.5433 33.1399 21.3715 32.2395 22.9272C30.3402 26.2081 29.5813 26.3817 29.2705 26.1784C28.5477 25.7027 28.728 24.2698 28.728 23.2519C28.728 20.0713 29.2025 18.7457 27.8054 18.4027C27.342 18.2883 27.0007 18.2135 25.8145 18.2008C24.2925 18.1853 23.005 18.2064 22.2753 18.5693C21.7897 18.8107 21.4151 19.3499 21.644 19.381C21.9256 19.4191 22.5638 19.556 22.9024 20.0247C23.3394 20.6304 23.3241 21.9884 23.3241 21.9884C23.3241 21.9884 23.5753 25.7323 22.7373 26.1968C22.1629 26.5158 21.3749 25.865 19.6808 22.8877C18.8137 21.3631 18.1589 19.6775 18.1589 19.6775C18.1589 19.6775 18.0326 19.3626 17.8065 19.1932C17.5332 18.9885 17.1516 18.925 17.1516 18.925L13.0991 18.9518C13.0991 18.9518 12.49 18.9688 12.2666 19.2384C12.0682 19.477 12.2514 19.9725 12.2514 19.9725C12.2514 19.9725 15.4243 27.5266 19.0177 31.334C22.3127 34.8238 26.0531 34.5951 26.0531 34.5951H27.7485Z" fill="white"/>
</svg>
