<svg width="52" height="52" viewBox="0 0 52 52" fill="none" xmlns="http://www.w3.org/2000/svg">
<path fill-rule="evenodd" clip-rule="evenodd" d="M26 52C40.3594 52 52 40.3594 52 26C52 11.6406 40.3594 0 26 0C11.6406 0 0 11.6406 0 26C0 40.3594 11.6406 52 26 52Z" fill="#01A059"/>
<path d="M19.2186 27.0423C18.6122 28.2342 19.3007 28.804 20.8714 29.7773C22.2067 30.6022 24.0515 30.9039 25.2364 31.0246C24.7508 31.4914 26.9763 29.3509 20.5668 35.5162C19.2077 36.8189 21.3957 38.9089 22.7537 37.6339L26.4303 34.0879C27.8379 35.442 29.187 36.7397 30.1069 37.6389C31.466 38.9188 33.653 36.8466 32.3087 35.5211C32.2078 35.4252 27.3265 30.7427 27.6242 31.0295C28.824 30.9088 30.6411 30.5893 31.9606 29.7822L31.9596 29.7812C33.5303 28.803 34.2187 28.2342 33.6213 27.0423C33.2603 26.3657 32.287 25.8 30.9912 26.7782C30.9912 26.7782 29.2414 28.1185 26.4194 28.1185C23.5965 28.1185 21.8477 26.7782 21.8477 26.7782C20.5529 25.795 19.5757 26.3657 19.2186 27.0423Z" fill="white"/>
<path d="M26.4173 26.3108C29.8575 26.3108 32.6666 23.6223 32.6666 20.3127C32.6666 16.9892 29.8575 14.3008 26.4173 14.3008C22.9761 14.3008 20.167 16.9892 20.167 20.3127C20.167 23.6223 22.9761 26.3108 26.4173 26.3108ZM26.4173 17.3463C28.1077 17.3463 29.4866 18.6727 29.4866 20.3127C29.4866 21.9388 28.1077 23.2653 26.4173 23.2653C24.7269 23.2653 23.348 21.9388 23.348 20.3127C23.347 18.6717 24.7259 17.3463 26.4173 17.3463Z" fill="white"/>
</svg>
